<svg width="1920" height="1080" viewBox="0 0 1920 1080" fill="none" xmlns="http://www.w3.org/2000/svg">
<rect width="1920" height="1080" fill="#48249E"/>
<path d="M48.8636 84.0682V77.8182H92.5V84.0682H74.2045V136H67.1591V84.0682H48.8636ZM113.864 136.909C109.924 136.909 106.468 135.972 103.494 134.097C100.54 132.222 98.2292 129.598 96.5625 126.227C94.9148 122.856 94.0909 118.917 94.0909 114.409C94.0909 109.864 94.9148 105.896 96.5625 102.506C98.2292 99.1155 100.54 96.483 103.494 94.608C106.468 92.733 109.924 91.7955 113.864 91.7955C117.803 91.7955 121.25 92.733 124.205 94.608C127.178 96.483 129.489 99.1155 131.136 102.506C132.803 105.896 133.636 109.864 133.636 114.409C133.636 118.917 132.803 122.856 131.136 126.227C129.489 129.598 127.178 132.222 124.205 134.097C121.25 135.972 117.803 136.909 113.864 136.909ZM113.864 130.886C116.856 130.886 119.318 130.119 121.25 128.585C123.182 127.051 124.612 125.034 125.54 122.534C126.468 120.034 126.932 117.326 126.932 114.409C126.932 111.492 126.468 108.775 125.54 106.256C124.612 103.737 123.182 101.701 121.25 100.148C119.318 98.5947 116.856 97.8182 113.864 97.8182C110.871 97.8182 108.409 98.5947 106.477 100.148C104.545 101.701 103.116 103.737 102.188 106.256C101.259 108.775 100.795 111.492 100.795 114.409C100.795 117.326 101.259 120.034 102.188 122.534C103.116 125.034 104.545 127.051 106.477 128.585C108.409 130.119 110.871 130.886 113.864 130.886ZM161.598 136.909C157.659 136.909 154.202 135.972 151.229 134.097C148.274 132.222 145.964 129.598 144.297 126.227C142.649 122.856 141.825 118.917 141.825 114.409C141.825 109.864 142.649 105.896 144.297 102.506C145.964 99.1155 148.274 96.483 151.229 94.608C154.202 92.733 157.659 91.7955 161.598 91.7955C165.537 91.7955 168.984 92.733 171.939 94.608C174.912 96.483 177.223 99.1155 178.871 102.506C180.537 105.896 181.371 109.864 181.371 114.409C181.371 118.917 180.537 122.856 178.871 126.227C177.223 129.598 174.912 132.222 171.939 134.097C168.984 135.972 165.537 136.909 161.598 136.909ZM161.598 130.886C164.59 130.886 167.053 130.119 168.984 128.585C170.916 127.051 172.346 125.034 173.274 122.534C174.202 120.034 174.666 117.326 174.666 114.409C174.666 111.492 174.202 108.775 173.274 106.256C172.346 103.737 170.916 101.701 168.984 100.148C167.053 98.5947 164.59 97.8182 161.598 97.8182C158.606 97.8182 156.143 98.5947 154.212 100.148C152.28 101.701 150.85 103.737 149.922 106.256C148.994 108.775 148.53 111.492 148.53 114.409C148.53 117.326 148.994 120.034 149.922 122.534C150.85 125.034 152.28 127.051 154.212 128.585C156.143 130.119 158.606 130.886 161.598 130.886ZM198.31 77.8182V136H191.605V77.8182H198.31ZM241.499 102.136L235.476 103.841C235.097 102.837 234.538 101.862 233.8 100.915C233.08 99.9489 232.095 99.1534 230.845 98.5284C229.595 97.9034 227.995 97.5909 226.044 97.5909C223.374 97.5909 221.148 98.2064 219.368 99.4375C217.607 100.65 216.726 102.193 216.726 104.068C216.726 105.735 217.332 107.051 218.544 108.017C219.756 108.983 221.65 109.788 224.226 110.432L230.703 112.023C234.605 112.97 237.512 114.419 239.425 116.369C241.338 118.301 242.294 120.792 242.294 123.841C242.294 126.341 241.574 128.576 240.135 130.545C238.714 132.515 236.726 134.068 234.169 135.205C231.612 136.341 228.639 136.909 225.249 136.909C220.798 136.909 217.114 135.943 214.197 134.011C211.281 132.08 209.434 129.258 208.658 125.545L215.021 123.955C215.627 126.303 216.773 128.064 218.459 129.239C220.163 130.413 222.389 131 225.135 131C228.26 131 230.741 130.337 232.578 129.011C234.434 127.667 235.362 126.057 235.362 124.182C235.362 122.667 234.832 121.398 233.771 120.375C232.711 119.333 231.082 118.557 228.885 118.045L221.612 116.341C217.616 115.394 214.68 113.926 212.805 111.938C210.949 109.93 210.021 107.42 210.021 104.409C210.021 101.947 210.713 99.7689 212.095 97.875C213.497 95.9811 215.4 94.4943 217.805 93.4148C220.23 92.3352 222.976 91.7955 226.044 91.7955C230.362 91.7955 233.752 92.7424 236.214 94.6364C238.696 96.5303 240.457 99.0303 241.499 102.136Z" fill="#D83CF0"/>
<path d="M173.75 365.321C171.888 365.321 170.188 364.867 168.649 363.959C167.11 363.036 165.879 361.805 164.956 360.266C164.048 358.727 163.594 357.027 163.594 355.165C163.594 353.287 164.048 351.587 164.956 350.064C165.879 348.525 167.11 347.301 168.649 346.393C170.188 345.47 171.888 345.009 173.75 345.009C175.627 345.009 177.328 345.47 178.851 346.393C180.39 347.301 181.613 348.525 182.521 350.064C183.445 351.587 183.906 353.287 183.906 355.165C183.906 357.027 183.445 358.727 182.521 360.266C181.613 361.805 180.39 363.036 178.851 363.959C177.328 364.867 175.627 365.321 173.75 365.321ZM265.71 326.727V374H260.17L234.411 336.884H233.949V374H228.224V326.727H233.764L259.616 363.936H260.078V326.727H265.71ZM291.291 374.739C287.875 374.739 284.928 373.985 282.451 372.477C279.989 370.953 278.088 368.83 276.749 366.106C275.426 363.367 274.764 360.181 274.764 356.55C274.764 352.918 275.426 349.717 276.749 346.947C278.088 344.162 279.95 341.992 282.335 340.438C284.736 338.869 287.537 338.084 290.737 338.084C292.584 338.084 294.407 338.392 296.208 339.007C298.008 339.623 299.647 340.623 301.124 342.008C302.602 343.377 303.779 345.193 304.656 347.455C305.533 349.717 305.972 352.503 305.972 355.811V358.119H278.642V353.411H300.432C300.432 351.41 300.032 349.625 299.232 348.055C298.447 346.486 297.323 345.247 295.862 344.339C294.415 343.431 292.707 342.977 290.737 342.977C288.568 342.977 286.69 343.516 285.105 344.593C283.536 345.655 282.328 347.04 281.481 348.748C280.635 350.456 280.212 352.287 280.212 354.241V357.381C280.212 360.058 280.673 362.328 281.597 364.19C282.535 366.037 283.836 367.445 285.498 368.414C287.16 369.368 289.091 369.845 291.291 369.845C292.722 369.845 294.015 369.645 295.169 369.245C296.339 368.83 297.347 368.214 298.193 367.398C299.039 366.567 299.693 365.536 300.155 364.305L305.418 365.783C304.864 367.568 303.933 369.137 302.625 370.491C301.317 371.83 299.701 372.877 297.777 373.631C295.854 374.369 293.692 374.739 291.291 374.739ZM317.369 338.545L325.863 353.041L334.357 338.545H340.636L329.187 356.273L340.636 374H334.357L325.863 360.243L317.369 374H311.09L322.354 356.273L311.09 338.545H317.369ZM363.828 338.545V343.162H345.454V338.545H363.828ZM350.809 330.051H356.257V363.844C356.257 365.383 356.48 366.537 356.926 367.306C357.388 368.06 357.972 368.568 358.68 368.83C359.404 369.076 360.165 369.199 360.965 369.199C361.566 369.199 362.058 369.168 362.443 369.107C362.827 369.03 363.135 368.968 363.366 368.922L364.474 373.815C364.105 373.954 363.589 374.092 362.927 374.231C362.266 374.385 361.427 374.462 360.411 374.462C358.873 374.462 357.365 374.131 355.887 373.469C354.425 372.807 353.21 371.799 352.24 370.445C351.286 369.091 350.809 367.383 350.809 365.321V330.051ZM375.992 374.369C374.853 374.369 373.876 373.962 373.061 373.146C372.245 372.33 371.837 371.353 371.837 370.214C371.837 369.076 372.245 368.099 373.061 367.283C373.876 366.467 374.853 366.06 375.992 366.06C377.131 366.06 378.108 366.467 378.924 367.283C379.739 368.099 380.147 369.076 380.147 370.214C380.147 370.969 379.955 371.661 379.57 372.292C379.201 372.923 378.7 373.431 378.07 373.815C377.454 374.185 376.762 374.369 375.992 374.369ZM389.922 338.545H395.37V376.585C395.37 378.77 394.993 380.663 394.239 382.263C393.5 383.864 392.377 385.103 390.869 385.98C389.376 386.857 387.491 387.295 385.214 387.295C385.029 387.295 384.844 387.295 384.66 387.295C384.475 387.295 384.29 387.295 384.106 387.295V382.217C384.29 382.217 384.459 382.217 384.613 382.217C384.767 382.217 384.937 382.217 385.121 382.217C386.783 382.217 387.999 381.725 388.768 380.74C389.538 379.771 389.922 378.386 389.922 376.585V338.545ZM392.6 332.636C391.538 332.636 390.622 332.275 389.853 331.551C389.099 330.828 388.722 329.959 388.722 328.943C388.722 327.928 389.099 327.058 389.853 326.335C390.622 325.612 391.538 325.25 392.6 325.25C393.662 325.25 394.57 325.612 395.324 326.335C396.093 327.058 396.478 327.928 396.478 328.943C396.478 329.959 396.093 330.828 395.324 331.551C394.57 332.275 393.662 332.636 392.6 332.636ZM430.461 346.486L425.567 347.871C425.26 347.055 424.806 346.263 424.205 345.493C423.621 344.708 422.82 344.062 421.805 343.554C420.789 343.047 419.489 342.793 417.904 342.793C415.734 342.793 413.926 343.293 412.48 344.293C411.048 345.278 410.333 346.532 410.333 348.055C410.333 349.41 410.825 350.479 411.81 351.264C412.795 352.049 414.334 352.703 416.427 353.226L421.689 354.518C424.859 355.288 427.222 356.465 428.776 358.05C430.33 359.62 431.107 361.643 431.107 364.121C431.107 366.152 430.522 367.968 429.353 369.568C428.199 371.169 426.583 372.43 424.506 373.354C422.428 374.277 420.012 374.739 417.258 374.739C413.641 374.739 410.648 373.954 408.279 372.384C405.909 370.815 404.408 368.522 403.778 365.506L408.948 364.213C409.44 366.121 410.371 367.552 411.741 368.506C413.126 369.46 414.934 369.938 417.165 369.938C419.704 369.938 421.72 369.399 423.213 368.322C424.721 367.229 425.475 365.921 425.475 364.398C425.475 363.167 425.044 362.136 424.182 361.305C423.321 360.458 421.997 359.827 420.212 359.412L414.303 358.027C411.056 357.258 408.671 356.065 407.148 354.449C405.64 352.818 404.885 350.779 404.885 348.332C404.885 346.332 405.447 344.562 406.57 343.023C407.709 341.485 409.256 340.277 411.21 339.4C413.18 338.522 415.411 338.084 417.904 338.084C421.412 338.084 424.167 338.853 426.167 340.392C428.183 341.931 429.614 343.962 430.461 346.486ZM459.527 350.364C459.527 344.547 460.281 339.199 461.789 334.321C463.313 329.428 465.483 324.927 468.299 320.818H473.1C471.992 322.342 470.953 324.219 469.984 326.45C469.03 328.666 468.191 331.105 467.468 333.767C466.744 336.414 466.175 339.153 465.759 341.985C465.359 344.816 465.159 347.609 465.159 350.364C465.159 354.026 465.513 357.742 466.221 361.512C466.929 365.283 467.883 368.783 469.083 372.015C470.284 375.246 471.622 377.878 473.1 379.909H468.299C465.483 375.8 463.313 371.307 461.789 366.429C460.281 361.536 459.527 356.18 459.527 350.364ZM481.877 374V326.727H497.85C501.543 326.727 504.574 327.358 506.944 328.62C509.314 329.866 511.068 331.582 512.207 333.767C513.346 335.953 513.915 338.438 513.915 341.223C513.915 344.008 513.346 346.478 512.207 348.632C511.068 350.787 509.322 352.48 506.967 353.711C504.613 354.926 501.605 355.534 497.942 355.534H485.016V350.364H497.757C500.281 350.364 502.312 349.994 503.851 349.256C505.405 348.517 506.529 347.471 507.221 346.116C507.929 344.747 508.283 343.116 508.283 341.223C508.283 339.33 507.929 337.676 507.221 336.26C506.513 334.845 505.382 333.752 503.828 332.983C502.274 332.198 500.22 331.805 497.665 331.805H487.601V374H481.877ZM504.128 352.764L515.762 374H509.114L497.665 352.764H504.128ZM537.199 374.739C533.783 374.739 530.836 373.985 528.359 372.477C525.897 370.953 523.996 368.83 522.658 366.106C521.334 363.367 520.672 360.181 520.672 356.55C520.672 352.918 521.334 349.717 522.658 346.947C523.996 344.162 525.858 341.992 528.244 340.438C530.644 338.869 533.445 338.084 536.646 338.084C538.492 338.084 540.316 338.392 542.116 339.007C543.916 339.623 545.555 340.623 547.033 342.008C548.51 343.377 549.687 345.193 550.564 347.455C551.441 349.717 551.88 352.503 551.88 355.811V358.119H524.55V353.411H546.34C546.34 351.41 545.94 349.625 545.14 348.055C544.355 346.486 543.232 345.247 541.77 344.339C540.323 343.431 538.615 342.977 536.646 342.977C534.476 342.977 532.598 343.516 531.013 344.593C529.444 345.655 528.236 347.04 527.389 348.748C526.543 350.456 526.12 352.287 526.12 354.241V357.381C526.12 360.058 526.582 362.328 527.505 364.19C528.444 366.037 529.744 367.445 531.406 368.414C533.068 369.368 534.999 369.845 537.199 369.845C538.631 369.845 539.923 369.645 541.077 369.245C542.247 368.83 543.255 368.214 544.101 367.398C544.947 366.567 545.601 365.536 546.063 364.305L551.326 365.783C550.772 367.568 549.841 369.137 548.533 370.491C547.225 371.83 545.609 372.877 543.686 373.631C541.762 374.369 539.6 374.739 537.199 374.739ZM570.6 374.831C568.353 374.831 566.314 374.408 564.483 373.561C562.652 372.7 561.197 371.461 560.12 369.845C559.043 368.214 558.505 366.244 558.505 363.936C558.505 361.905 558.905 360.258 559.705 358.996C560.505 357.719 561.574 356.719 562.913 355.996C564.252 355.272 565.729 354.734 567.345 354.38C568.976 354.011 570.615 353.718 572.262 353.503C574.416 353.226 576.163 353.018 577.501 352.88C578.855 352.726 579.84 352.472 580.456 352.118C581.087 351.764 581.402 351.148 581.402 350.271V350.087C581.402 347.809 580.779 346.04 579.533 344.778C578.302 343.516 576.432 342.885 573.924 342.885C571.323 342.885 569.284 343.454 567.807 344.593C566.329 345.732 565.291 346.947 564.691 348.24L559.52 346.393C560.443 344.239 561.675 342.562 563.213 341.362C564.768 340.146 566.46 339.299 568.291 338.822C570.138 338.33 571.954 338.084 573.739 338.084C574.878 338.084 576.186 338.222 577.663 338.499C579.156 338.761 580.594 339.307 581.979 340.138C583.38 340.969 584.541 342.223 585.465 343.901C586.388 345.578 586.85 347.825 586.85 350.641V374H581.402V369.199H581.125C580.756 369.968 580.14 370.792 579.279 371.669C578.417 372.546 577.271 373.292 575.839 373.908C574.408 374.523 572.662 374.831 570.6 374.831ZM571.431 369.938C573.585 369.938 575.401 369.514 576.878 368.668C578.371 367.822 579.494 366.729 580.248 365.39C581.018 364.051 581.402 362.643 581.402 361.166V356.18C581.171 356.457 580.664 356.711 579.879 356.942C579.109 357.158 578.217 357.35 577.201 357.519C576.201 357.673 575.224 357.812 574.27 357.935C573.331 358.042 572.569 358.135 571.985 358.212C570.569 358.396 569.246 358.696 568.014 359.112C566.799 359.512 565.814 360.12 565.06 360.935C564.321 361.736 563.952 362.828 563.952 364.213C563.952 366.106 564.652 367.537 566.052 368.506C567.468 369.46 569.261 369.938 571.431 369.938ZM611.196 374.739C607.872 374.739 605.01 373.954 602.609 372.384C600.209 370.815 598.362 368.653 597.069 365.898C595.777 363.144 595.131 359.997 595.131 356.457C595.131 352.857 595.792 349.679 597.116 346.924C598.454 344.154 600.316 341.992 602.702 340.438C605.102 338.869 607.903 338.084 611.104 338.084C613.596 338.084 615.843 338.545 617.844 339.469C619.844 340.392 621.483 341.685 622.76 343.347C624.037 345.009 624.83 346.947 625.138 349.163H619.69C619.275 347.548 618.351 346.116 616.92 344.87C615.505 343.608 613.596 342.977 611.196 342.977C609.072 342.977 607.21 343.531 605.61 344.639C604.025 345.732 602.786 347.278 601.894 349.279C601.017 351.264 600.578 353.595 600.578 356.273C600.578 359.012 601.009 361.397 601.871 363.428C602.748 365.46 603.979 367.037 605.564 368.16C607.164 369.283 609.041 369.845 611.196 369.845C612.612 369.845 613.896 369.599 615.051 369.107C616.205 368.614 617.182 367.906 617.982 366.983C618.782 366.06 619.352 364.952 619.69 363.659H625.138C624.83 365.752 624.068 367.637 622.852 369.314C621.652 370.976 620.059 372.3 618.074 373.284C616.105 374.254 613.812 374.739 611.196 374.739ZM648.52 338.545V343.162H630.146V338.545H648.52ZM635.502 330.051H640.949V363.844C640.949 365.383 641.172 366.537 641.618 367.306C642.08 368.06 642.665 368.568 643.373 368.83C644.096 369.076 644.858 369.199 645.658 369.199C646.258 369.199 646.75 369.168 647.135 369.107C647.52 369.03 647.828 368.968 648.058 368.922L649.166 373.815C648.797 373.954 648.282 374.092 647.62 374.231C646.958 374.385 646.119 374.462 645.104 374.462C643.565 374.462 642.057 374.131 640.58 373.469C639.118 372.807 637.902 371.799 636.933 370.445C635.979 369.091 635.502 367.383 635.502 365.321V330.051ZM668.348 354.057C668.348 359.874 667.586 365.229 666.063 370.122C664.555 375 662.393 379.494 659.577 383.602H654.775C655.883 382.079 656.914 380.201 657.868 377.97C658.838 375.754 659.684 373.323 660.407 370.676C661.131 368.014 661.692 365.267 662.093 362.436C662.508 359.589 662.716 356.796 662.716 354.057C662.716 350.394 662.362 346.678 661.654 342.908C660.946 339.138 659.992 335.637 658.792 332.406C657.591 329.174 656.253 326.543 654.775 324.511H659.577C662.393 328.62 664.555 333.121 666.063 338.015C667.586 342.893 668.348 348.24 668.348 354.057ZM173.75 465.321C171.888 465.321 170.188 464.867 168.649 463.959C167.11 463.036 165.879 461.805 164.956 460.266C164.048 458.727 163.594 457.027 163.594 455.165C163.594 453.287 164.048 451.587 164.956 450.064C165.879 448.525 167.11 447.301 168.649 446.393C170.188 445.47 171.888 445.009 173.75 445.009C175.627 445.009 177.328 445.47 178.851 446.393C180.39 447.301 181.613 448.525 182.521 450.064C183.445 451.587 183.906 453.287 183.906 455.165C183.906 457.027 183.445 458.727 182.521 460.266C181.613 461.805 180.39 463.036 178.851 463.959C177.328 464.867 175.627 465.321 173.75 465.321ZM228.224 474V426.727H256.754V431.805H233.949V447.778H255.277V452.857H233.949V468.922H257.124V474H228.224ZM270.396 438.545L278.89 453.041L287.385 438.545H293.663L282.214 456.273L293.663 474H287.385L278.89 460.243L270.396 474H264.118L275.382 456.273L264.118 438.545H270.396ZM301.436 487.295V438.545H306.699V444.178H307.345C307.745 443.562 308.299 442.777 309.007 441.823C309.73 440.854 310.761 439.992 312.1 439.238C313.454 438.469 315.285 438.084 317.594 438.084C320.579 438.084 323.21 438.83 325.488 440.323C327.765 441.815 329.543 443.931 330.82 446.67C332.097 449.41 332.736 452.641 332.736 456.365C332.736 460.12 332.097 463.374 330.82 466.129C329.543 468.868 327.773 470.992 325.511 472.5C323.249 473.992 320.641 474.739 317.686 474.739C315.409 474.739 313.585 474.362 312.215 473.608C310.846 472.838 309.792 471.969 309.053 470.999C308.315 470.014 307.745 469.199 307.345 468.553H306.883V487.295H301.436ZM306.791 456.273C306.791 458.95 307.184 461.312 307.968 463.359C308.753 465.39 309.9 466.983 311.408 468.137C312.916 469.276 314.762 469.845 316.947 469.845C319.225 469.845 321.125 469.245 322.649 468.045C324.188 466.829 325.342 465.198 326.111 463.151C326.896 461.089 327.288 458.796 327.288 456.273C327.288 453.78 326.904 451.533 326.134 449.533C325.38 447.517 324.234 445.924 322.695 444.755C321.171 443.57 319.256 442.977 316.947 442.977C314.731 442.977 312.869 443.539 311.361 444.662C309.853 445.77 308.715 447.324 307.945 449.325C307.176 451.31 306.791 453.626 306.791 456.273ZM341.045 474V438.545H346.308V443.901H346.677C347.324 442.146 348.493 440.723 350.186 439.63C351.879 438.538 353.787 437.991 355.91 437.991C356.311 437.991 356.811 437.999 357.411 438.015C358.011 438.03 358.465 438.053 358.773 438.084V443.624C358.588 443.577 358.165 443.508 357.503 443.416C356.857 443.308 356.172 443.254 355.449 443.254C353.725 443.254 352.186 443.616 350.832 444.339C349.494 445.047 348.432 446.032 347.647 447.294C346.878 448.54 346.493 449.964 346.493 451.564V474H341.045ZM379.016 474.739C375.6 474.739 372.653 473.985 370.175 472.477C367.713 470.953 365.813 468.83 364.474 466.106C363.151 463.367 362.489 460.181 362.489 456.55C362.489 452.918 363.151 449.717 364.474 446.947C365.813 444.162 367.675 441.992 370.06 440.438C372.46 438.869 375.261 438.084 378.462 438.084C380.309 438.084 382.132 438.392 383.932 439.007C385.733 439.623 387.372 440.623 388.849 442.008C390.326 443.377 391.503 445.193 392.381 447.455C393.258 449.717 393.696 452.503 393.696 455.811V458.119H366.367V453.411H388.157C388.157 451.41 387.756 449.625 386.956 448.055C386.171 446.486 385.048 445.247 383.586 444.339C382.14 443.431 380.432 442.977 378.462 442.977C376.292 442.977 374.415 443.516 372.83 444.593C371.26 445.655 370.052 447.04 369.206 448.748C368.36 450.456 367.936 452.287 367.936 454.241V457.381C367.936 460.058 368.398 462.328 369.321 464.19C370.26 466.037 371.56 467.445 373.222 468.414C374.884 469.368 376.815 469.845 379.016 469.845C380.447 469.845 381.74 469.645 382.894 469.245C384.063 468.83 385.071 468.214 385.918 467.398C386.764 466.567 387.418 465.536 387.88 464.305L393.142 465.783C392.588 467.568 391.657 469.137 390.349 470.491C389.041 471.83 387.426 472.877 385.502 473.631C383.579 474.369 381.416 474.739 379.016 474.739ZM427.097 446.486L422.203 447.871C421.895 447.055 421.441 446.263 420.841 445.493C420.256 444.708 419.456 444.062 418.441 443.554C417.425 443.047 416.125 442.793 414.54 442.793C412.37 442.793 410.562 443.293 409.115 444.293C407.684 445.278 406.969 446.532 406.969 448.055C406.969 449.41 407.461 450.479 408.446 451.264C409.431 452.049 410.97 452.703 413.062 453.226L418.325 454.518C421.495 455.288 423.857 456.465 425.411 458.05C426.966 459.62 427.743 461.643 427.743 464.121C427.743 466.152 427.158 467.968 425.989 469.568C424.834 471.169 423.219 472.43 421.141 473.354C419.064 474.277 416.648 474.739 413.893 474.739C410.277 474.739 407.284 473.954 404.914 472.384C402.545 470.815 401.044 468.522 400.413 465.506L405.584 464.213C406.076 466.121 407.007 467.552 408.377 468.506C409.762 469.46 411.57 469.938 413.801 469.938C416.34 469.938 418.356 469.399 419.849 468.322C421.357 467.229 422.111 465.921 422.111 464.398C422.111 463.167 421.68 462.136 420.818 461.305C419.956 460.458 418.633 459.827 416.848 459.412L410.939 458.027C407.692 457.258 405.307 456.065 403.783 454.449C402.275 452.818 401.521 450.779 401.521 448.332C401.521 446.332 402.083 444.562 403.206 443.023C404.345 441.485 405.891 440.277 407.846 439.4C409.815 438.522 412.047 438.084 414.54 438.084C418.048 438.084 420.803 438.853 422.803 440.392C424.819 441.931 426.25 443.962 427.097 446.486ZM461.056 446.486L456.163 447.871C455.855 447.055 455.401 446.263 454.801 445.493C454.216 444.708 453.416 444.062 452.401 443.554C451.385 443.047 450.085 442.793 448.5 442.793C446.33 442.793 444.522 443.293 443.075 444.293C441.644 445.278 440.929 446.532 440.929 448.055C440.929 449.41 441.421 450.479 442.406 451.264C443.391 452.049 444.93 452.703 447.022 453.226L452.285 454.518C455.455 455.288 457.817 456.465 459.371 458.05C460.926 459.62 461.703 461.643 461.703 464.121C461.703 466.152 461.118 467.968 459.949 469.568C458.794 471.169 457.179 472.43 455.101 473.354C453.024 474.277 450.608 474.739 447.853 474.739C444.237 474.739 441.244 473.954 438.874 472.384C436.504 470.815 435.004 468.522 434.373 465.506L439.544 464.213C440.036 466.121 440.967 467.552 442.337 468.506C443.722 469.46 445.53 469.938 447.761 469.938C450.3 469.938 452.316 469.399 453.809 468.322C455.317 467.229 456.071 465.921 456.071 464.398C456.071 463.167 455.64 462.136 454.778 461.305C453.916 460.458 452.593 459.827 450.808 459.412L444.899 458.027C441.652 457.258 439.267 456.065 437.743 454.449C436.235 452.818 435.481 450.779 435.481 448.332C435.481 446.332 436.043 444.562 437.166 443.023C438.305 441.485 439.851 440.277 441.806 439.4C443.775 438.522 446.007 438.084 448.5 438.084C452.008 438.084 454.763 438.853 456.763 440.392C458.779 441.931 460.21 443.962 461.056 446.486ZM488.923 474V426.727H494.37V444.178H494.832C495.232 443.562 495.786 442.777 496.494 441.823C497.217 440.854 498.248 439.992 499.587 439.238C500.941 438.469 502.772 438.084 505.08 438.084C508.066 438.084 510.697 438.83 512.975 440.323C515.252 441.815 517.029 443.931 518.307 446.67C519.584 449.41 520.222 452.641 520.222 456.365C520.222 460.12 519.584 463.374 518.307 466.129C517.029 468.868 515.26 470.992 512.998 472.5C510.736 473.992 508.127 474.739 505.173 474.739C502.895 474.739 501.072 474.362 499.702 473.608C498.333 472.838 497.278 471.969 496.54 470.999C495.801 470.014 495.232 469.199 494.832 468.553H494.185V474H488.923ZM494.278 456.273C494.278 458.95 494.67 461.312 495.455 463.359C496.24 465.39 497.386 466.983 498.894 468.137C500.402 469.276 502.249 469.845 504.434 469.845C506.712 469.845 508.612 469.245 510.135 468.045C511.674 466.829 512.828 465.198 513.598 463.151C514.383 461.089 514.775 458.796 514.775 456.273C514.775 453.78 514.39 451.533 513.621 449.533C512.867 447.517 511.72 445.924 510.182 444.755C508.658 443.57 506.742 442.977 504.434 442.977C502.218 442.977 500.356 443.539 498.848 444.662C497.34 445.77 496.201 447.324 495.432 449.325C494.662 451.31 494.278 453.626 494.278 456.273ZM538.988 474.831C536.742 474.831 534.703 474.408 532.872 473.561C531.04 472.7 529.586 471.461 528.509 469.845C527.432 468.214 526.893 466.244 526.893 463.936C526.893 461.905 527.293 460.258 528.093 458.996C528.894 457.719 529.963 456.719 531.302 455.996C532.641 455.272 534.118 454.734 535.734 454.38C537.365 454.011 539.004 453.718 540.65 453.503C542.805 453.226 544.551 453.018 545.89 452.88C547.244 452.726 548.229 452.472 548.845 452.118C549.475 451.764 549.791 451.148 549.791 450.271V450.087C549.791 447.809 549.168 446.04 547.921 444.778C546.69 443.516 544.821 442.885 542.312 442.885C539.712 442.885 537.673 443.454 536.195 444.593C534.718 445.732 533.679 446.947 533.079 448.24L527.909 446.393C528.832 444.239 530.063 442.562 531.602 441.362C533.156 440.146 534.849 439.299 536.68 438.822C538.527 438.33 540.343 438.084 542.128 438.084C543.266 438.084 544.574 438.222 546.052 438.499C547.544 438.761 548.983 439.307 550.368 440.138C551.768 440.969 552.93 442.223 553.853 443.901C554.777 445.578 555.238 447.825 555.238 450.641V474H549.791V469.199H549.514C549.145 469.968 548.529 470.792 547.667 471.669C546.806 472.546 545.659 473.292 544.228 473.908C542.797 474.523 541.05 474.831 538.988 474.831ZM539.819 469.938C541.974 469.938 543.79 469.514 545.267 468.668C546.759 467.822 547.883 466.729 548.637 465.39C549.406 464.051 549.791 462.643 549.791 461.166V456.18C549.56 456.457 549.052 456.711 548.267 456.942C547.498 457.158 546.606 457.35 545.59 457.519C544.59 457.673 543.613 457.812 542.658 457.935C541.72 458.042 540.958 458.135 540.373 458.212C538.958 458.396 537.634 458.696 536.403 459.112C535.187 459.512 534.203 460.12 533.449 460.935C532.71 461.736 532.341 462.828 532.341 464.213C532.341 466.106 533.041 467.537 534.441 468.506C535.857 469.46 537.65 469.938 539.819 469.938ZM579.585 474.739C576.261 474.739 573.398 473.954 570.998 472.384C568.597 470.815 566.751 468.653 565.458 465.898C564.165 463.144 563.519 459.997 563.519 456.457C563.519 452.857 564.181 449.679 565.504 446.924C566.843 444.154 568.705 441.992 571.09 440.438C573.491 438.869 576.291 438.084 579.492 438.084C581.985 438.084 584.232 438.545 586.232 439.469C588.233 440.392 589.872 441.685 591.149 443.347C592.426 445.009 593.219 446.947 593.526 449.163H588.079C587.663 447.548 586.74 446.116 585.309 444.87C583.893 443.608 581.985 442.977 579.585 442.977C577.461 442.977 575.599 443.531 573.999 444.639C572.414 445.732 571.175 447.278 570.282 449.279C569.405 451.264 568.967 453.595 568.967 456.273C568.967 459.012 569.397 461.397 570.259 463.428C571.136 465.46 572.367 467.037 573.952 468.16C575.553 469.283 577.43 469.845 579.585 469.845C581 469.845 582.285 469.599 583.439 469.107C584.593 468.614 585.571 467.906 586.371 466.983C587.171 466.06 587.74 464.952 588.079 463.659H593.526C593.219 465.752 592.457 467.637 591.241 469.314C590.041 470.976 588.448 472.3 586.463 473.284C584.493 474.254 582.201 474.739 579.585 474.739ZM606.568 461.074L606.475 454.334H607.583L623.095 438.545H629.835L613.308 455.257H612.846L606.568 461.074ZM601.49 474V426.727H606.937V474H601.49ZM624.018 474L610.169 456.457L614.047 452.672L630.943 474H624.018ZM650.251 474.739C646.835 474.739 643.888 473.985 641.411 472.477C638.949 470.953 637.048 468.83 635.709 466.106C634.386 463.367 633.724 460.181 633.724 456.55C633.724 452.918 634.386 449.717 635.709 446.947C637.048 444.162 638.91 441.992 641.295 440.438C643.696 438.869 646.497 438.084 649.697 438.084C651.544 438.084 653.367 438.392 655.168 439.007C656.968 439.623 658.607 440.623 660.084 442.008C661.562 443.377 662.739 445.193 663.616 447.455C664.493 449.717 664.932 452.503 664.932 455.811V458.119H637.602V453.411H659.392C659.392 451.41 658.992 449.625 658.192 448.055C657.407 446.486 656.283 445.247 654.822 444.339C653.375 443.431 651.667 442.977 649.697 442.977C647.528 442.977 645.65 443.516 644.065 444.593C642.496 445.655 641.288 447.04 640.441 448.748C639.595 450.456 639.172 452.287 639.172 454.241V457.381C639.172 460.058 639.633 462.328 640.557 464.19C641.495 466.037 642.796 467.445 644.458 468.414C646.119 469.368 648.051 469.845 650.251 469.845C651.682 469.845 652.975 469.645 654.129 469.245C655.299 468.83 656.307 468.214 657.153 467.398C657.999 466.567 658.653 465.536 659.115 464.305L664.378 465.783C663.824 467.568 662.893 469.137 661.585 470.491C660.277 471.83 658.661 472.877 656.737 473.631C654.814 474.369 652.652 474.739 650.251 474.739ZM678.666 452.672V474H673.218V438.545H678.481V444.085H678.943C679.774 442.285 681.035 440.838 682.728 439.746C684.421 438.638 686.606 438.084 689.284 438.084C691.684 438.084 693.785 438.576 695.585 439.561C697.385 440.531 698.786 442.008 699.786 443.993C700.786 445.963 701.286 448.455 701.286 451.472V474H695.839V451.841C695.839 449.056 695.116 446.886 693.669 445.332C692.223 443.762 690.238 442.977 687.714 442.977C685.975 442.977 684.421 443.354 683.051 444.108C681.697 444.862 680.628 445.963 679.843 447.409C679.058 448.856 678.666 450.61 678.666 452.672ZM724.628 474.739C721.674 474.739 719.066 473.992 716.804 472.5C714.541 470.992 712.772 468.868 711.495 466.129C710.217 463.374 709.579 460.12 709.579 456.365C709.579 452.641 710.217 449.41 711.495 446.67C712.772 443.931 714.549 441.815 716.827 440.323C719.104 438.83 721.735 438.084 724.721 438.084C727.029 438.084 728.853 438.469 730.191 439.238C731.545 439.992 732.576 440.854 733.284 441.823C734.008 442.777 734.569 443.562 734.969 444.178H735.431V426.727H740.878V474H735.616V468.553H734.969C734.569 469.199 734 470.014 733.261 470.999C732.523 471.969 731.469 472.838 730.099 473.608C728.729 474.362 726.906 474.739 724.628 474.739ZM725.367 469.845C727.552 469.845 729.399 469.276 730.907 468.137C732.415 466.983 733.561 465.39 734.346 463.359C735.131 461.312 735.523 458.95 735.523 456.273C735.523 453.626 735.139 451.31 734.369 449.325C733.6 447.324 732.461 445.77 730.953 444.662C729.445 443.539 727.583 442.977 725.367 442.977C723.059 442.977 721.135 443.57 719.597 444.755C718.073 445.924 716.927 447.517 716.157 449.533C715.403 451.533 715.026 453.78 715.026 456.273C715.026 458.796 715.411 461.089 716.18 463.151C716.965 465.198 718.119 466.829 719.643 468.045C721.181 469.245 723.09 469.845 725.367 469.845ZM771.832 454.057C771.832 448.24 772.586 442.893 774.094 438.015C775.617 433.121 777.787 428.62 780.603 424.511H785.404C784.296 426.035 783.258 427.912 782.288 430.143C781.334 432.359 780.496 434.798 779.772 437.461C779.049 440.107 778.48 442.846 778.064 445.678C777.664 448.509 777.464 451.302 777.464 454.057C777.464 457.719 777.818 461.435 778.526 465.206C779.234 468.976 780.188 472.477 781.388 475.708C782.588 478.94 783.927 481.571 785.404 483.602H780.603C777.787 479.494 775.617 475 774.094 470.122C772.586 465.229 771.832 459.874 771.832 454.057ZM803.876 474.831C801.629 474.831 799.59 474.408 797.759 473.561C795.928 472.7 794.474 471.461 793.397 469.845C792.319 468.214 791.781 466.244 791.781 463.936C791.781 461.905 792.181 460.258 792.981 458.996C793.781 457.719 794.851 456.719 796.19 455.996C797.528 455.272 799.006 454.734 800.621 454.38C802.253 454.011 803.891 453.718 805.538 453.503C807.692 453.226 809.439 453.018 810.778 452.88C812.132 452.726 813.117 452.472 813.732 452.118C814.363 451.764 814.679 451.148 814.679 450.271V450.087C814.679 447.809 814.055 446.04 812.809 444.778C811.578 443.516 809.708 442.885 807.2 442.885C804.599 442.885 802.56 443.454 801.083 444.593C799.606 445.732 798.567 446.947 797.967 448.24L792.797 446.393C793.72 444.239 794.951 442.562 796.49 441.362C798.044 440.146 799.737 439.299 801.568 438.822C803.414 438.33 805.23 438.084 807.015 438.084C808.154 438.084 809.462 438.222 810.939 438.499C812.432 438.761 813.871 439.307 815.256 440.138C816.656 440.969 817.818 442.223 818.741 443.901C819.664 445.578 820.126 447.825 820.126 450.641V474H814.679V469.199H814.402C814.032 469.968 813.417 470.792 812.555 471.669C811.693 472.546 810.547 473.292 809.116 473.908C807.685 474.523 805.938 474.831 803.876 474.831ZM804.707 469.938C806.861 469.938 808.677 469.514 810.154 468.668C811.647 467.822 812.77 466.729 813.525 465.39C814.294 464.051 814.679 462.643 814.679 461.166V456.18C814.448 456.457 813.94 456.711 813.155 456.942C812.386 457.158 811.493 457.35 810.478 457.519C809.477 457.673 808.5 457.812 807.546 457.935C806.607 458.042 805.846 458.135 805.261 458.212C803.845 458.396 802.522 458.696 801.291 459.112C800.075 459.512 799.09 460.12 798.336 460.935C797.598 461.736 797.228 462.828 797.228 464.213C797.228 466.106 797.929 467.537 799.329 468.506C800.745 469.46 802.537 469.938 804.707 469.938ZM852.413 459.504V438.545H857.86V474H852.413V467.999H852.043C851.212 469.799 849.92 471.33 848.165 472.592C846.411 473.838 844.195 474.462 841.518 474.462C839.302 474.462 837.332 473.977 835.609 473.007C833.885 472.023 832.531 470.545 831.546 468.576C830.561 466.591 830.069 464.09 830.069 461.074V438.545H835.516V460.705C835.516 463.29 836.239 465.352 837.686 466.891C839.148 468.429 841.01 469.199 843.272 469.199C844.626 469.199 846.003 468.853 847.404 468.16C848.819 467.468 850.004 466.406 850.958 464.975C851.928 463.544 852.413 461.72 852.413 459.504ZM883.256 438.545V443.162H864.883V438.545H883.256ZM870.238 430.051H875.685V463.844C875.685 465.383 875.908 466.537 876.355 467.306C876.816 468.06 877.401 468.568 878.109 468.83C878.832 469.076 879.594 469.199 880.394 469.199C880.994 469.199 881.487 469.168 881.871 469.107C882.256 469.03 882.564 468.968 882.795 468.922L883.903 473.815C883.533 473.954 883.018 474.092 882.356 474.231C881.694 474.385 880.856 474.462 879.84 474.462C878.301 474.462 876.793 474.131 875.316 473.469C873.854 472.807 872.638 471.799 871.669 470.445C870.715 469.091 870.238 467.383 870.238 465.321V430.051ZM897.66 452.672V474H892.212V426.727H897.66V444.085H898.121C898.952 442.254 900.199 440.8 901.861 439.723C903.538 438.63 905.769 438.084 908.555 438.084C910.971 438.084 913.087 438.569 914.902 439.538C916.718 440.492 918.126 441.962 919.126 443.947C920.142 445.916 920.65 448.425 920.65 451.472V474H915.202V451.841C915.202 449.025 914.471 446.847 913.01 445.309C911.563 443.754 909.555 442.977 906.985 442.977C905.2 442.977 903.6 443.354 902.184 444.108C900.784 444.862 899.676 445.963 898.86 447.409C898.06 448.856 897.66 450.61 897.66 452.672ZM959.33 474.831C957.083 474.831 955.045 474.408 953.213 473.561C951.382 472.7 949.928 471.461 948.851 469.845C947.774 468.214 947.235 466.244 947.235 463.936C947.235 461.905 947.635 460.258 948.435 458.996C949.235 457.719 950.305 456.719 951.644 455.996C952.983 455.272 954.46 454.734 956.076 454.38C957.707 454.011 959.346 453.718 960.992 453.503C963.146 453.226 964.893 453.018 966.232 452.88C967.586 452.726 968.571 452.472 969.186 452.118C969.817 451.764 970.133 451.148 970.133 450.271V450.087C970.133 447.809 969.509 446.04 968.263 444.778C967.032 443.516 965.162 442.885 962.654 442.885C960.053 442.885 958.014 443.454 956.537 444.593C955.06 445.732 954.021 446.947 953.421 448.24L948.251 446.393C949.174 444.239 950.405 442.562 951.944 441.362C953.498 440.146 955.191 439.299 957.022 438.822C958.869 438.33 960.684 438.084 962.469 438.084C963.608 438.084 964.916 438.222 966.393 438.499C967.886 438.761 969.325 439.307 970.71 440.138C972.11 440.969 973.272 442.223 974.195 443.901C975.119 445.578 975.58 447.825 975.58 450.641V474H970.133V469.199H969.856C969.486 469.968 968.871 470.792 968.009 471.669C967.147 472.546 966.001 473.292 964.57 473.908C963.139 474.523 961.392 474.831 959.33 474.831ZM960.161 469.938C962.315 469.938 964.131 469.514 965.609 468.668C967.101 467.822 968.225 466.729 968.979 465.39C969.748 464.051 970.133 462.643 970.133 461.166V456.18C969.902 456.457 969.394 456.711 968.609 456.942C967.84 457.158 966.947 457.35 965.932 457.519C964.931 457.673 963.954 457.812 963 457.935C962.062 458.042 961.3 458.135 960.715 458.212C959.299 458.396 957.976 458.696 956.745 459.112C955.529 459.512 954.544 460.12 953.79 460.935C953.052 461.736 952.682 462.828 952.682 464.213C952.682 466.106 953.383 467.537 954.783 468.506C956.199 469.46 957.991 469.938 960.161 469.938ZM990.97 452.672V474H985.523V438.545H990.786V444.085H991.247C992.078 442.285 993.34 440.838 995.033 439.746C996.726 438.638 998.911 438.084 1001.59 438.084C1003.99 438.084 1006.09 438.576 1007.89 439.561C1009.69 440.531 1011.09 442.008 1012.09 443.993C1013.09 445.963 1013.59 448.455 1013.59 451.472V474H1008.14V451.841C1008.14 449.056 1007.42 446.886 1005.97 445.332C1004.53 443.762 1002.54 442.977 1000.02 442.977C998.28 442.977 996.726 443.354 995.356 444.108C994.002 444.862 992.932 445.963 992.148 447.409C991.363 448.856 990.97 450.61 990.97 452.672ZM1036.93 474.739C1033.98 474.739 1031.37 473.992 1029.11 472.5C1026.85 470.992 1025.08 468.868 1023.8 466.129C1022.52 463.374 1021.88 460.12 1021.88 456.365C1021.88 452.641 1022.52 449.41 1023.8 446.67C1025.08 443.931 1026.85 441.815 1029.13 440.323C1031.41 438.83 1034.04 438.084 1037.03 438.084C1039.33 438.084 1041.16 438.469 1042.5 439.238C1043.85 439.992 1044.88 440.854 1045.59 441.823C1046.31 442.777 1046.87 443.562 1047.27 444.178H1047.74V426.727H1053.18V474H1047.92V468.553H1047.27C1046.87 469.199 1046.3 470.014 1045.57 470.999C1044.83 471.969 1043.77 472.838 1042.4 473.608C1041.03 474.362 1039.21 474.739 1036.93 474.739ZM1037.67 469.845C1039.86 469.845 1041.7 469.276 1043.21 468.137C1044.72 466.983 1045.87 465.39 1046.65 463.359C1047.44 461.312 1047.83 458.95 1047.83 456.273C1047.83 453.626 1047.44 451.31 1046.67 449.325C1045.9 447.324 1044.77 445.77 1043.26 444.662C1041.75 443.539 1039.89 442.977 1037.67 442.977C1035.36 442.977 1033.44 443.57 1031.9 444.755C1030.38 445.924 1029.23 447.517 1028.46 449.533C1027.71 451.533 1027.33 453.78 1027.33 456.273C1027.33 458.796 1027.72 461.089 1028.48 463.151C1029.27 465.198 1030.42 466.829 1031.95 468.045C1033.49 469.245 1035.39 469.845 1037.67 469.845ZM1120.98 441.5H1115.25C1114.91 439.853 1114.32 438.407 1113.47 437.161C1112.64 435.914 1111.63 434.868 1110.43 434.021C1109.24 433.16 1107.93 432.513 1106.48 432.082C1105.03 431.652 1103.53 431.436 1101.96 431.436C1099.09 431.436 1096.5 432.159 1094.18 433.606C1091.87 435.052 1090.03 437.184 1088.66 440C1087.31 442.816 1086.63 446.27 1086.63 450.364C1086.63 454.457 1087.31 457.912 1088.66 460.728C1090.03 463.544 1091.87 465.675 1094.18 467.121C1096.5 468.568 1099.09 469.291 1101.96 469.291C1103.53 469.291 1105.03 469.076 1106.48 468.645C1107.93 468.214 1109.24 467.575 1110.43 466.729C1111.63 465.867 1112.64 464.813 1113.47 463.567C1114.32 462.305 1114.91 460.858 1115.25 459.227H1120.98C1120.55 461.643 1119.76 463.805 1118.62 465.713C1117.48 467.622 1116.07 469.245 1114.37 470.584C1112.68 471.907 1110.78 472.915 1108.67 473.608C1106.58 474.3 1104.34 474.646 1101.96 474.646C1097.92 474.646 1094.34 473.661 1091.2 471.692C1088.06 469.722 1085.59 466.921 1083.79 463.29C1081.99 459.658 1081.09 455.349 1081.09 450.364C1081.09 445.378 1081.99 441.069 1083.79 437.438C1085.59 433.806 1088.06 431.005 1091.2 429.036C1094.34 427.066 1097.92 426.081 1101.96 426.081C1104.34 426.081 1106.58 426.427 1108.67 427.12C1110.78 427.812 1112.68 428.828 1114.37 430.167C1116.07 431.49 1117.48 433.106 1118.62 435.014C1119.76 436.907 1120.55 439.069 1120.98 441.5ZM1130.23 474V426.727H1146.2C1149.89 426.727 1152.92 427.358 1155.29 428.62C1157.66 429.866 1159.42 431.582 1160.56 433.767C1161.7 435.953 1162.26 438.438 1162.26 441.223C1162.26 444.008 1161.7 446.478 1160.56 448.632C1159.42 450.787 1157.67 452.48 1155.32 453.711C1152.96 454.926 1149.95 455.534 1146.29 455.534H1133.37V450.364H1146.11C1148.63 450.364 1150.66 449.994 1152.2 449.256C1153.76 448.517 1154.88 447.471 1155.57 446.116C1156.28 444.747 1156.63 443.116 1156.63 441.223C1156.63 439.33 1156.28 437.676 1155.57 436.26C1154.86 434.845 1153.73 433.752 1152.18 432.983C1150.62 432.198 1148.57 431.805 1146.01 431.805H1135.95V474H1130.23ZM1152.48 452.764L1164.11 474H1157.46L1146.01 452.764H1152.48ZM1202.83 426.727H1208.55V458.027C1208.55 461.259 1207.79 464.144 1206.27 466.683C1204.76 469.207 1202.63 471.199 1199.87 472.661C1197.12 474.108 1193.89 474.831 1190.18 474.831C1186.47 474.831 1183.24 474.108 1180.48 472.661C1177.73 471.199 1175.59 469.207 1174.07 466.683C1172.56 464.144 1171.8 461.259 1171.8 458.027V426.727H1177.53V457.565C1177.53 459.874 1178.04 461.928 1179.05 463.728C1180.07 465.513 1181.51 466.921 1183.39 467.952C1185.28 468.968 1187.55 469.476 1190.18 469.476C1192.81 469.476 1195.07 468.968 1196.96 467.952C1198.86 466.921 1200.3 465.513 1201.3 463.728C1202.32 461.928 1202.83 459.874 1202.83 457.565V426.727ZM1234.57 474H1219.98V426.727H1235.22C1239.8 426.727 1243.73 427.674 1246.99 429.566C1250.25 431.444 1252.75 434.144 1254.49 437.668C1256.23 441.177 1257.1 445.378 1257.1 450.271C1257.1 455.196 1256.22 459.435 1254.47 462.99C1252.71 466.529 1250.16 469.253 1246.8 471.161C1243.45 473.054 1239.37 474 1234.57 474ZM1225.71 468.922H1234.2C1238.11 468.922 1241.35 468.168 1243.92 466.66C1246.49 465.152 1248.4 463.005 1249.67 460.22C1250.93 457.435 1251.56 454.118 1251.56 450.271C1251.56 446.455 1250.94 443.17 1249.69 440.415C1248.44 437.645 1246.58 435.522 1244.1 434.044C1241.63 432.552 1238.54 431.805 1234.85 431.805H1225.71V468.922ZM1277.6 450.364C1277.6 456.18 1276.83 461.536 1275.31 466.429C1273.8 471.307 1271.64 475.8 1268.82 479.909H1264.02C1265.13 478.386 1266.16 476.508 1267.12 474.277C1268.09 472.061 1268.93 469.63 1269.66 466.983C1270.38 464.321 1270.94 461.574 1271.34 458.743C1271.76 455.896 1271.96 453.103 1271.96 450.364C1271.96 446.701 1271.61 442.985 1270.9 439.215C1270.19 435.445 1269.24 431.944 1268.04 428.712C1266.84 425.481 1265.5 422.849 1264.02 420.818H1268.82C1271.64 424.927 1273.8 429.428 1275.31 434.321C1276.83 439.199 1277.6 444.547 1277.6 450.364ZM173.75 565.321C171.888 565.321 170.188 564.867 168.649 563.959C167.11 563.036 165.879 561.805 164.956 560.266C164.048 558.727 163.594 557.027 163.594 555.165C163.594 553.287 164.048 551.587 164.956 550.064C165.879 548.525 167.11 547.301 168.649 546.393C170.188 545.47 171.888 545.009 173.75 545.009C175.627 545.009 177.328 545.47 178.851 546.393C180.39 547.301 181.613 548.525 182.521 550.064C183.445 551.587 183.906 553.287 183.906 555.165C183.906 557.027 183.445 558.727 182.521 560.266C181.613 561.805 180.39 563.036 178.851 563.959C177.328 564.867 175.627 565.321 173.75 565.321ZM228.224 526.727H235.057L251.122 565.967H251.676L267.741 526.727H274.574V574H269.219V538.084H268.757L253.984 574H248.814L234.041 538.084H233.58V574H228.224V526.727ZM299.716 574.739C296.516 574.739 293.707 573.977 291.291 572.453C288.891 570.93 287.013 568.799 285.659 566.06C284.32 563.321 283.651 560.12 283.651 556.457C283.651 552.764 284.32 549.54 285.659 546.786C287.013 544.031 288.891 541.892 291.291 540.369C293.707 538.846 296.516 538.084 299.716 538.084C302.917 538.084 305.718 538.846 308.118 540.369C310.534 541.892 312.412 544.031 313.75 546.786C315.105 549.54 315.782 552.764 315.782 556.457C315.782 560.12 315.105 563.321 313.75 566.06C312.412 568.799 310.534 570.93 308.118 572.453C305.718 573.977 302.917 574.739 299.716 574.739ZM299.716 569.845C302.148 569.845 304.148 569.222 305.718 567.975C307.287 566.729 308.449 565.09 309.203 563.059C309.957 561.028 310.334 558.827 310.334 556.457C310.334 554.088 309.957 551.879 309.203 549.833C308.449 547.786 307.287 546.132 305.718 544.87C304.148 543.608 302.148 542.977 299.716 542.977C297.285 542.977 295.285 543.608 293.715 544.87C292.145 546.132 290.984 547.786 290.229 549.833C289.475 551.879 289.098 554.088 289.098 556.457C289.098 558.827 289.475 561.028 290.229 563.059C290.984 565.09 292.145 566.729 293.715 567.975C295.285 569.222 297.285 569.845 299.716 569.845ZM329.545 552.672V574H324.097V538.545H329.36V544.085H329.822C330.653 542.285 331.914 540.838 333.607 539.746C335.3 538.638 337.485 538.084 340.162 538.084C342.563 538.084 344.664 538.576 346.464 539.561C348.264 540.531 349.665 542.008 350.665 543.993C351.665 545.963 352.165 548.455 352.165 551.472V574H346.718V551.841C346.718 549.056 345.995 546.886 344.548 545.332C343.102 543.762 341.117 542.977 338.593 542.977C336.854 542.977 335.3 543.354 333.93 544.108C332.576 544.862 331.507 545.963 330.722 547.409C329.937 548.856 329.545 550.61 329.545 552.672ZM376.431 588.034C373.799 588.034 371.537 587.696 369.644 587.018C367.752 586.357 366.174 585.48 364.913 584.387C363.666 583.31 362.674 582.156 361.935 580.925L366.274 577.878C366.767 578.524 367.39 579.263 368.144 580.094C368.898 580.94 369.929 581.671 371.237 582.287C372.561 582.917 374.292 583.233 376.431 583.233C379.293 583.233 381.655 582.54 383.517 581.156C385.379 579.771 386.31 577.601 386.31 574.646V567.445H385.848C385.448 568.091 384.879 568.891 384.14 569.845C383.417 570.784 382.371 571.623 381.001 572.361C379.647 573.084 377.816 573.446 375.507 573.446C372.645 573.446 370.075 572.769 367.798 571.415C365.536 570.061 363.743 568.091 362.42 565.506C361.112 562.92 360.458 559.781 360.458 556.088C360.458 552.456 361.096 549.294 362.373 546.601C363.651 543.893 365.428 541.8 367.706 540.323C369.983 538.83 372.614 538.084 375.6 538.084C377.908 538.084 379.739 538.469 381.093 539.238C382.463 539.992 383.509 540.854 384.233 541.823C384.971 542.777 385.541 543.562 385.941 544.178H386.495V538.545H391.757V575.016C391.757 578.062 391.065 580.54 389.68 582.448C388.31 584.372 386.464 585.78 384.14 586.672C381.832 587.58 379.262 588.034 376.431 588.034ZM376.246 568.553C378.431 568.553 380.278 568.052 381.786 567.052C383.294 566.052 384.44 564.613 385.225 562.736C386.01 560.858 386.402 558.612 386.402 555.996C386.402 553.441 386.018 551.187 385.248 549.233C384.479 547.278 383.34 545.747 381.832 544.639C380.324 543.531 378.462 542.977 376.246 542.977C373.938 542.977 372.014 543.562 370.475 544.732C368.952 545.901 367.806 547.471 367.036 549.44C366.282 551.41 365.905 553.595 365.905 555.996C365.905 558.458 366.29 560.635 367.059 562.528C367.844 564.405 368.998 565.883 370.522 566.96C372.06 568.022 373.969 568.553 376.246 568.553ZM416.132 574.739C412.932 574.739 410.123 573.977 407.707 572.453C405.307 570.93 403.429 568.799 402.075 566.06C400.736 563.321 400.067 560.12 400.067 556.457C400.067 552.764 400.736 549.54 402.075 546.786C403.429 544.031 405.307 541.892 407.707 540.369C410.123 538.846 412.932 538.084 416.132 538.084C419.333 538.084 422.134 538.846 424.534 540.369C426.95 541.892 428.828 544.031 430.166 546.786C431.521 549.54 432.198 552.764 432.198 556.457C432.198 560.12 431.521 563.321 430.166 566.06C428.828 568.799 426.95 570.93 424.534 572.453C422.134 573.977 419.333 574.739 416.132 574.739ZM416.132 569.845C418.564 569.845 420.564 569.222 422.134 567.975C423.703 566.729 424.865 565.09 425.619 563.059C426.373 561.028 426.75 558.827 426.75 556.457C426.75 554.088 426.373 551.879 425.619 549.833C424.865 547.786 423.703 546.132 422.134 544.87C420.564 543.608 418.564 542.977 416.132 542.977C413.701 542.977 411.701 543.608 410.131 544.87C408.561 546.132 407.4 547.786 406.646 549.833C405.891 551.879 405.514 554.088 405.514 556.457C405.514 558.827 405.891 561.028 406.646 563.059C407.4 565.09 408.561 566.729 410.131 567.975C411.701 569.222 413.701 569.845 416.132 569.845ZM455.84 574H441.252V526.727H456.486C461.072 526.727 464.996 527.674 468.258 529.566C471.52 531.444 474.021 534.144 475.76 537.668C477.499 541.177 478.368 545.378 478.368 550.271C478.368 555.196 477.491 559.435 475.737 562.99C473.983 566.529 471.428 569.253 468.074 571.161C464.719 573.054 460.641 574 455.84 574ZM446.976 568.922H455.471C459.379 568.922 462.618 568.168 465.188 566.66C467.758 565.152 469.674 563.005 470.936 560.22C472.198 557.435 472.828 554.118 472.828 550.271C472.828 546.455 472.205 543.17 470.959 540.415C469.712 537.645 467.85 535.522 465.373 534.044C462.895 532.552 459.81 531.805 456.117 531.805H446.976V568.922ZM487.971 574V526.727H504.498C507.791 526.727 510.507 527.297 512.646 528.435C514.785 529.559 516.377 531.074 517.424 532.983C518.47 534.875 518.993 536.976 518.993 539.284C518.993 541.315 518.632 542.993 517.908 544.316C517.201 545.639 516.262 546.686 515.092 547.455C513.938 548.225 512.684 548.794 511.33 549.163V549.625C512.776 549.717 514.231 550.225 515.692 551.148C517.154 552.072 518.378 553.395 519.363 555.119C520.347 556.842 520.84 558.95 520.84 561.443C520.84 563.813 520.301 565.944 519.224 567.837C518.147 569.73 516.446 571.23 514.123 572.338C511.799 573.446 508.775 574 505.051 574H487.971ZM493.695 568.922H505.051C508.791 568.922 511.445 568.199 513.015 566.752C514.6 565.29 515.392 563.521 515.392 561.443C515.392 559.843 514.985 558.366 514.169 557.011C513.353 555.642 512.192 554.549 510.684 553.734C509.176 552.903 507.391 552.487 505.328 552.487H493.695V568.922ZM493.695 547.501H504.313C506.036 547.501 507.591 547.163 508.975 546.486C510.376 545.809 511.484 544.855 512.299 543.624C513.13 542.393 513.546 540.946 513.546 539.284C513.546 537.207 512.823 535.445 511.376 533.998C509.93 532.536 507.637 531.805 504.498 531.805H493.695V547.501ZM173.75 665.321C171.888 665.321 170.188 664.867 168.649 663.959C167.11 663.036 165.879 661.805 164.956 660.266C164.048 658.727 163.594 657.027 163.594 655.165C163.594 653.287 164.048 651.587 164.956 650.064C165.879 648.525 167.11 647.301 168.649 646.393C170.188 645.47 171.888 645.009 173.75 645.009C175.627 645.009 177.328 645.47 178.851 646.393C180.39 647.301 181.613 648.525 182.521 650.064C183.445 651.587 183.906 653.287 183.906 655.165C183.906 657.027 183.445 658.727 182.521 660.266C181.613 661.805 180.39 663.036 178.851 663.959C177.328 664.867 175.627 665.321 173.75 665.321ZM228.224 674V626.727H256.754V631.805H233.949V647.778H255.277V652.857H233.949V668.922H257.124V674H228.224ZM295.325 638.545L282.214 674H276.674L263.564 638.545H269.473L279.26 666.798H279.629L289.416 638.545H295.325ZM316.111 674.739C312.694 674.739 309.748 673.985 307.27 672.477C304.808 670.953 302.907 668.83 301.569 666.106C300.245 663.367 299.584 660.181 299.584 656.55C299.584 652.918 300.245 649.717 301.569 646.947C302.907 644.162 304.769 641.992 307.155 640.438C309.555 638.869 312.356 638.084 315.557 638.084C317.403 638.084 319.227 638.392 321.027 639.007C322.828 639.623 324.466 640.623 325.944 642.008C327.421 643.377 328.598 645.193 329.475 647.455C330.352 649.717 330.791 652.503 330.791 655.811V658.119H303.461V653.411H325.251C325.251 651.41 324.851 649.625 324.051 648.055C323.266 646.486 322.143 645.247 320.681 644.339C319.234 643.431 317.526 642.977 315.557 642.977C313.387 642.977 311.51 643.516 309.925 644.593C308.355 645.655 307.147 647.04 306.301 648.748C305.454 650.456 305.031 652.287 305.031 654.241V657.381C305.031 660.058 305.493 662.328 306.416 664.19C307.355 666.037 308.655 667.445 310.317 668.414C311.979 669.368 313.91 669.845 316.111 669.845C317.542 669.845 318.834 669.645 319.988 669.245C321.158 668.83 322.166 668.214 323.012 667.398C323.859 666.567 324.513 665.536 324.974 664.305L330.237 665.783C329.683 667.568 328.752 669.137 327.444 670.491C326.136 671.83 324.52 672.877 322.597 673.631C320.673 674.369 318.511 674.739 316.111 674.739ZM344.525 652.672V674H339.078V638.545H344.34V644.085H344.802C345.633 642.285 346.895 640.838 348.588 639.746C350.28 638.638 352.465 638.084 355.143 638.084C357.544 638.084 359.644 638.576 361.444 639.561C363.245 640.531 364.645 642.008 365.645 643.993C366.646 645.963 367.146 648.455 367.146 651.472V674H361.698V651.841C361.698 649.056 360.975 646.886 359.529 645.332C358.082 643.762 356.097 642.977 353.573 642.977C351.834 642.977 350.28 643.354 348.911 644.108C347.557 644.862 346.487 645.963 345.702 647.409C344.917 648.856 344.525 650.61 344.525 652.672ZM392.519 638.545V643.162H374.146V638.545H392.519ZM379.501 630.051H384.948V663.844C384.948 665.383 385.171 666.537 385.617 667.306C386.079 668.06 386.664 668.568 387.372 668.83C388.095 669.076 388.857 669.199 389.657 669.199C390.257 669.199 390.749 669.168 391.134 669.107C391.519 669.03 391.827 668.968 392.057 668.922L393.165 673.815C392.796 673.954 392.281 674.092 391.619 674.231C390.957 674.385 390.119 674.462 389.103 674.462C387.564 674.462 386.056 674.131 384.579 673.469C383.117 672.807 381.901 671.799 380.932 670.445C379.978 669.091 379.501 667.383 379.501 665.321V630.051ZM423.057 659.504V638.545H428.505V674H423.057V667.999H422.688C421.857 669.799 420.564 671.33 418.81 672.592C417.056 673.838 414.84 674.462 412.162 674.462C409.946 674.462 407.977 673.977 406.253 673.007C404.53 672.023 403.175 670.545 402.191 668.576C401.206 666.591 400.713 664.09 400.713 661.074V638.545H406.161V660.705C406.161 663.29 406.884 665.352 408.331 666.891C409.792 668.429 411.654 669.199 413.916 669.199C415.271 669.199 416.648 668.853 418.048 668.16C419.464 667.468 420.649 666.406 421.603 664.975C422.572 663.544 423.057 661.72 423.057 659.504ZM448.915 674.831C446.668 674.831 444.629 674.408 442.798 673.561C440.967 672.7 439.513 671.461 438.436 669.845C437.359 668.214 436.82 666.244 436.82 663.936C436.82 661.905 437.22 660.258 438.02 658.996C438.82 657.719 439.89 656.719 441.229 655.996C442.567 655.272 444.045 654.734 445.661 654.38C447.292 654.011 448.931 653.718 450.577 653.503C452.731 653.226 454.478 653.018 455.817 652.88C457.171 652.726 458.156 652.472 458.771 652.118C459.402 651.764 459.718 651.148 459.718 650.271V650.087C459.718 647.809 459.094 646.04 457.848 644.778C456.617 643.516 454.747 642.885 452.239 642.885C449.638 642.885 447.599 643.454 446.122 644.593C444.645 645.732 443.606 646.947 443.006 648.24L437.836 646.393C438.759 644.239 439.99 642.562 441.529 641.362C443.083 640.146 444.776 639.299 446.607 638.822C448.453 638.33 450.269 638.084 452.054 638.084C453.193 638.084 454.501 638.222 455.978 638.499C457.471 638.761 458.91 639.307 460.295 640.138C461.695 640.969 462.857 642.223 463.78 643.901C464.703 645.578 465.165 647.825 465.165 650.641V674H459.718V669.199H459.441C459.071 669.968 458.456 670.792 457.594 671.669C456.732 672.546 455.586 673.292 454.155 673.908C452.724 674.523 450.977 674.831 448.915 674.831ZM449.746 669.938C451.9 669.938 453.716 669.514 455.194 668.668C456.686 667.822 457.81 666.729 458.564 665.39C459.333 664.051 459.718 662.643 459.718 661.166V656.18C459.487 656.457 458.979 656.711 458.194 656.942C457.425 657.158 456.532 657.35 455.517 657.519C454.516 657.673 453.539 657.812 452.585 657.935C451.647 658.042 450.885 658.135 450.3 658.212C448.884 658.396 447.561 658.696 446.33 659.112C445.114 659.512 444.129 660.12 443.375 660.935C442.637 661.736 442.267 662.828 442.267 664.213C442.267 666.106 442.968 667.537 444.368 668.506C445.784 669.46 447.576 669.938 449.746 669.938ZM480.555 626.727V674H475.108V626.727H480.555ZM495.98 626.727V674H490.533V626.727H495.98ZM509.466 687.295C508.543 687.295 507.719 687.219 506.996 687.065C506.273 686.926 505.773 686.788 505.496 686.649L506.881 681.848C508.204 682.187 509.374 682.31 510.389 682.217C511.405 682.125 512.305 681.671 513.09 680.855C513.89 680.055 514.621 678.755 515.283 676.955L516.298 674.185L503.188 638.545H509.097L518.884 666.798H519.253L529.04 638.545H534.949L519.899 679.17C519.222 681.002 518.383 682.517 517.383 683.718C516.383 684.933 515.221 685.834 513.898 686.418C512.59 687.003 511.113 687.295 509.466 687.295ZM568.453 674L557.65 638.545H563.375L571.038 665.69H571.408L578.979 638.545H584.795L592.274 665.598H592.643L600.307 638.545H606.031L595.229 674H589.873L582.118 646.763H581.564L573.808 674H568.453ZM613.233 674V638.545H618.68V674H613.233ZM616.003 632.636C614.941 632.636 614.025 632.275 613.256 631.551C612.502 630.828 612.125 629.959 612.125 628.943C612.125 627.928 612.502 627.058 613.256 626.335C614.025 625.612 614.941 625.25 616.003 625.25C617.065 625.25 617.972 625.612 618.726 626.335C619.496 627.058 619.881 627.928 619.881 628.943C619.881 629.959 619.496 630.828 618.726 631.551C617.972 632.275 617.065 632.636 616.003 632.636ZM634.105 626.727V674H628.658V626.727H634.105ZM649.53 626.727V674H644.082V626.727H649.53ZM677.789 674V638.545H683.236V674H677.789ZM680.558 632.636C679.497 632.636 678.581 632.275 677.812 631.551C677.058 630.828 676.681 629.959 676.681 628.943C676.681 627.928 677.058 627.058 677.812 626.335C678.581 625.612 679.497 625.25 680.558 625.25C681.62 625.25 682.528 625.612 683.282 626.335C684.052 627.058 684.436 627.928 684.436 628.943C684.436 629.959 684.052 630.828 683.282 631.551C682.528 632.275 681.62 632.636 680.558 632.636ZM698.661 652.672V674H693.213V638.545H698.476V644.085H698.938C699.769 642.285 701.031 640.838 702.723 639.746C704.416 638.638 706.601 638.084 709.279 638.084C711.679 638.084 713.78 638.576 715.58 639.561C717.381 640.531 718.781 642.008 719.781 643.993C720.781 645.963 721.282 648.455 721.282 651.472V674H715.834V651.841C715.834 649.056 715.111 646.886 713.664 645.332C712.218 643.762 710.233 642.977 707.709 642.977C705.97 642.977 704.416 643.354 703.046 644.108C701.692 644.862 700.623 645.963 699.838 647.409C699.053 648.856 698.661 650.61 698.661 652.672ZM746.655 638.545V643.162H728.281V638.545H746.655ZM733.636 630.051H739.084V663.844C739.084 665.383 739.307 666.537 739.753 667.306C740.215 668.06 740.8 668.568 741.507 668.83C742.231 669.076 742.992 669.199 743.793 669.199C744.393 669.199 744.885 669.168 745.27 669.107C745.655 669.03 745.962 668.968 746.193 668.922L747.301 673.815C746.932 673.954 746.416 674.092 745.755 674.231C745.093 674.385 744.254 674.462 743.239 674.462C741.7 674.462 740.192 674.131 738.714 673.469C737.253 672.807 736.037 671.799 735.067 670.445C734.113 669.091 733.636 667.383 733.636 665.321V630.051ZM769.333 674.739C765.917 674.739 762.97 673.985 760.493 672.477C758.031 670.953 756.13 668.83 754.791 666.106C753.468 663.367 752.806 660.181 752.806 656.55C752.806 652.918 753.468 649.717 754.791 646.947C756.13 644.162 757.992 641.992 760.377 640.438C762.778 638.869 765.579 638.084 768.779 638.084C770.626 638.084 772.449 638.392 774.25 639.007C776.05 639.623 777.689 640.623 779.166 642.008C780.644 643.377 781.821 645.193 782.698 647.455C783.575 649.717 784.014 652.503 784.014 655.811V658.119H756.684V653.411H778.474C778.474 651.41 778.074 649.625 777.274 648.055C776.489 646.486 775.365 645.247 773.904 644.339C772.457 643.431 770.749 642.977 768.779 642.977C766.61 642.977 764.732 643.516 763.147 644.593C761.578 645.655 760.37 647.04 759.523 648.748C758.677 650.456 758.254 652.287 758.254 654.241V657.381C758.254 660.058 758.715 662.328 759.639 664.19C760.577 666.037 761.878 667.445 763.54 668.414C765.202 669.368 767.133 669.845 769.333 669.845C770.764 669.845 772.057 669.645 773.211 669.245C774.381 668.83 775.389 668.214 776.235 667.398C777.081 666.567 777.735 665.536 778.197 664.305L783.46 665.783C782.906 667.568 781.975 669.137 780.667 670.491C779.359 671.83 777.743 672.877 775.819 673.631C773.896 674.369 771.734 674.739 769.333 674.739ZM806.611 688.034C803.98 688.034 801.718 687.696 799.825 687.018C797.932 686.357 796.355 685.48 795.093 684.387C793.847 683.31 792.854 682.156 792.116 680.925L796.455 677.878C796.948 678.524 797.571 679.263 798.325 680.094C799.079 680.94 800.11 681.671 801.418 682.287C802.741 682.917 804.472 683.233 806.611 683.233C809.474 683.233 811.836 682.54 813.698 681.156C815.56 679.771 816.491 677.601 816.491 674.646V667.445H816.029C815.629 668.091 815.059 668.891 814.321 669.845C813.598 670.784 812.551 671.623 811.182 672.361C809.827 673.084 807.996 673.446 805.688 673.446C802.826 673.446 800.256 672.769 797.979 671.415C795.716 670.061 793.924 668.091 792.6 665.506C791.292 662.92 790.638 659.781 790.638 656.088C790.638 652.456 791.277 649.294 792.554 646.601C793.831 643.893 795.609 641.8 797.886 640.323C800.164 638.83 802.795 638.084 805.78 638.084C808.089 638.084 809.92 638.469 811.274 639.238C812.644 639.992 813.69 640.854 814.413 641.823C815.152 642.777 815.721 643.562 816.121 644.178H816.675V638.545H821.938V675.016C821.938 678.062 821.246 680.54 819.861 682.448C818.491 684.372 816.644 685.78 814.321 686.672C812.013 687.58 809.443 688.034 806.611 688.034ZM806.427 668.553C808.612 668.553 810.458 668.052 811.966 667.052C813.474 666.052 814.621 664.613 815.406 662.736C816.191 660.858 816.583 658.612 816.583 655.996C816.583 653.441 816.198 651.187 815.429 649.233C814.659 647.278 813.521 645.747 812.013 644.639C810.505 643.531 808.643 642.977 806.427 642.977C804.118 642.977 802.195 643.562 800.656 644.732C799.133 645.901 797.986 647.471 797.217 649.44C796.463 651.41 796.086 653.595 796.086 655.996C796.086 658.458 796.47 660.635 797.24 662.528C798.025 664.405 799.179 665.883 800.702 666.96C802.241 668.022 804.149 668.553 806.427 668.553ZM831.91 674V638.545H837.172V643.901H837.542C838.188 642.146 839.358 640.723 841.05 639.63C842.743 638.538 844.651 637.991 846.775 637.991C847.175 637.991 847.675 637.999 848.275 638.015C848.875 638.03 849.329 638.053 849.637 638.084V643.624C849.452 643.577 849.029 643.508 848.367 643.416C847.721 643.308 847.036 643.254 846.313 643.254C844.59 643.254 843.051 643.616 841.697 644.339C840.358 645.047 839.296 646.032 838.511 647.294C837.742 648.54 837.357 649.964 837.357 651.564V674H831.91ZM866.527 674.831C864.281 674.831 862.242 674.408 860.411 673.561C858.579 672.7 857.125 671.461 856.048 669.845C854.971 668.214 854.432 666.244 854.432 663.936C854.432 661.905 854.832 660.258 855.633 658.996C856.433 657.719 857.502 656.719 858.841 655.996C860.18 655.272 861.657 654.734 863.273 654.38C864.904 654.011 866.543 653.718 868.189 653.503C870.344 653.226 872.09 653.018 873.429 652.88C874.783 652.726 875.768 652.472 876.384 652.118C877.015 651.764 877.33 651.148 877.33 650.271V650.087C877.33 647.809 876.707 646.04 875.46 644.778C874.229 643.516 872.36 642.885 869.851 642.885C867.251 642.885 865.212 643.454 863.734 644.593C862.257 645.732 861.218 646.947 860.618 648.24L855.448 646.393C856.371 644.239 857.602 642.562 859.141 641.362C860.695 640.146 862.388 639.299 864.219 638.822C866.066 638.33 867.882 638.084 869.667 638.084C870.805 638.084 872.113 638.222 873.591 638.499C875.083 638.761 876.522 639.307 877.907 640.138C879.307 640.969 880.469 642.223 881.392 643.901C882.316 645.578 882.777 647.825 882.777 650.641V674H877.33V669.199H877.053C876.684 669.968 876.068 670.792 875.206 671.669C874.345 672.546 873.198 673.292 871.767 673.908C870.336 674.523 868.589 674.831 866.527 674.831ZM867.358 669.938C869.513 669.938 871.329 669.514 872.806 668.668C874.299 667.822 875.422 666.729 876.176 665.39C876.945 664.051 877.33 662.643 877.33 661.166V656.18C877.099 656.457 876.591 656.711 875.807 656.942C875.037 657.158 874.145 657.35 873.129 657.519C872.129 657.673 871.152 657.812 870.198 657.935C869.259 658.042 868.497 658.135 867.912 658.212C866.497 658.396 865.173 658.696 863.942 659.112C862.727 659.512 861.742 660.12 860.988 660.935C860.249 661.736 859.88 662.828 859.88 664.213C859.88 666.106 860.58 667.537 861.98 668.506C863.396 669.46 865.189 669.938 867.358 669.938ZM908.139 638.545V643.162H889.766V638.545H908.139ZM895.121 630.051H900.568V663.844C900.568 665.383 900.791 666.537 901.238 667.306C901.699 668.06 902.284 668.568 902.992 668.83C903.715 669.076 904.477 669.199 905.277 669.199C905.877 669.199 906.37 669.168 906.754 669.107C907.139 669.03 907.447 668.968 907.678 668.922L908.786 673.815C908.416 673.954 907.901 674.092 907.239 674.231C906.577 674.385 905.739 674.462 904.723 674.462C903.184 674.462 901.676 674.131 900.199 673.469C898.737 672.807 897.521 671.799 896.552 670.445C895.598 669.091 895.121 667.383 895.121 665.321V630.051ZM930.818 674.739C927.401 674.739 924.455 673.985 921.977 672.477C919.515 670.953 917.615 668.83 916.276 666.106C914.952 663.367 914.291 660.181 914.291 656.55C914.291 652.918 914.952 649.717 916.276 646.947C917.615 644.162 919.477 641.992 921.862 640.438C924.262 638.869 927.063 638.084 930.264 638.084C932.11 638.084 933.934 638.392 935.734 639.007C937.535 639.623 939.173 640.623 940.651 642.008C942.128 643.377 943.305 645.193 944.182 647.455C945.059 649.717 945.498 652.503 945.498 655.811V658.119H918.169V653.411H939.958C939.958 651.41 939.558 649.625 938.758 648.055C937.973 646.486 936.85 645.247 935.388 644.339C933.941 643.431 932.233 642.977 930.264 642.977C928.094 642.977 926.217 643.516 924.632 644.593C923.062 645.655 921.854 647.04 921.008 648.748C920.161 650.456 919.738 652.287 919.738 654.241V657.381C919.738 660.058 920.2 662.328 921.123 664.19C922.062 666.037 923.362 667.445 925.024 668.414C926.686 669.368 928.617 669.845 930.818 669.845C932.249 669.845 933.541 669.645 934.695 669.245C935.865 668.83 936.873 668.214 937.719 667.398C938.566 666.567 939.22 665.536 939.681 664.305L944.944 665.783C944.39 667.568 943.459 669.137 942.151 670.491C940.843 671.83 939.227 672.877 937.304 673.631C935.38 674.369 933.218 674.739 930.818 674.739ZM980.099 674L969.296 638.545H975.02L982.684 665.69H983.053L990.624 638.545H996.441L1003.92 665.598H1004.29L1011.95 638.545H1017.68L1006.87 674H1001.52L993.763 646.763H993.209L985.454 674H980.099ZM1024.88 674V638.545H1030.33V674H1024.88ZM1027.65 632.636C1026.59 632.636 1025.67 632.275 1024.9 631.551C1024.15 630.828 1023.77 629.959 1023.77 628.943C1023.77 627.928 1024.15 627.058 1024.9 626.335C1025.67 625.612 1026.59 625.25 1027.65 625.25C1028.71 625.25 1029.62 625.612 1030.37 626.335C1031.14 627.058 1031.53 627.928 1031.53 628.943C1031.53 629.959 1031.14 630.828 1030.37 631.551C1029.62 632.275 1028.71 632.636 1027.65 632.636ZM1055.72 638.545V643.162H1037.35V638.545H1055.72ZM1042.7 630.051H1048.15V663.844C1048.15 665.383 1048.37 666.537 1048.82 667.306C1049.28 668.06 1049.87 668.568 1050.57 668.83C1051.3 669.076 1052.06 669.199 1052.86 669.199C1053.46 669.199 1053.95 669.168 1054.34 669.107C1054.72 669.03 1055.03 668.968 1055.26 668.922L1056.37 673.815C1056 673.954 1055.48 674.092 1054.82 674.231C1054.16 674.385 1053.32 674.462 1052.31 674.462C1050.77 674.462 1049.26 674.131 1047.78 673.469C1046.32 672.807 1045.1 671.799 1044.13 670.445C1043.18 669.091 1042.7 667.383 1042.7 665.321V630.051ZM1070.13 652.672V674H1064.68V626.727H1070.13V644.085H1070.59C1071.42 642.254 1072.66 640.8 1074.33 639.723C1076 638.63 1078.24 638.084 1081.02 638.084C1083.44 638.084 1085.55 638.569 1087.37 639.538C1089.18 640.492 1090.59 641.962 1091.59 643.947C1092.61 645.916 1093.12 648.425 1093.12 651.472V674H1087.67V651.841C1087.67 649.025 1086.94 646.847 1085.48 645.309C1084.03 643.754 1082.02 642.977 1079.45 642.977C1077.67 642.977 1076.07 643.354 1074.65 644.108C1073.25 644.862 1072.14 645.963 1071.33 647.409C1070.53 648.856 1070.13 650.61 1070.13 652.672ZM1122.1 674V626.727H1138.07C1141.78 626.727 1144.81 627.397 1147.17 628.735C1149.54 630.059 1151.29 631.852 1152.43 634.114C1153.57 636.376 1154.14 638.899 1154.14 641.685C1154.14 644.47 1153.57 647.001 1152.43 649.279C1151.31 651.556 1149.57 653.372 1147.22 654.726C1144.86 656.065 1141.84 656.734 1138.17 656.734H1126.72V651.656H1137.98C1140.52 651.656 1142.56 651.218 1144.1 650.341C1145.64 649.463 1146.75 648.279 1147.45 646.786C1148.15 645.278 1148.51 643.577 1148.51 641.685C1148.51 639.792 1148.15 638.099 1147.45 636.607C1146.75 635.114 1145.63 633.944 1144.08 633.098C1142.52 632.236 1140.46 631.805 1137.89 631.805H1127.83V674H1122.1ZM1173.06 674.831C1170.81 674.831 1168.77 674.408 1166.94 673.561C1165.11 672.7 1163.65 671.461 1162.58 669.845C1161.5 668.214 1160.96 666.244 1160.96 663.936C1160.96 661.905 1161.36 660.258 1162.16 658.996C1162.96 657.719 1164.03 656.719 1165.37 655.996C1166.71 655.272 1168.19 654.734 1169.8 654.38C1171.43 654.011 1173.07 653.718 1174.72 653.503C1176.87 653.226 1178.62 653.018 1179.96 652.88C1181.31 652.726 1182.3 652.472 1182.91 652.118C1183.54 651.764 1183.86 651.148 1183.86 650.271V650.087C1183.86 647.809 1183.24 646.04 1181.99 644.778C1180.76 643.516 1178.89 642.885 1176.38 642.885C1173.78 642.885 1171.74 643.454 1170.26 644.593C1168.79 645.732 1167.75 646.947 1167.15 648.24L1161.98 646.393C1162.9 644.239 1164.13 642.562 1165.67 641.362C1167.22 640.146 1168.92 639.299 1170.75 638.822C1172.59 638.33 1174.41 638.084 1176.19 638.084C1177.33 638.084 1178.64 638.222 1180.12 638.499C1181.61 638.761 1183.05 639.307 1184.44 640.138C1185.84 640.969 1187 642.223 1187.92 643.901C1188.84 645.578 1189.31 647.825 1189.31 650.641V674H1183.86V669.199H1183.58C1183.21 669.968 1182.6 670.792 1181.73 671.669C1180.87 672.546 1179.73 673.292 1178.3 673.908C1176.86 674.523 1175.12 674.831 1173.06 674.831ZM1173.89 669.938C1176.04 669.938 1177.86 669.514 1179.33 668.668C1180.83 667.822 1181.95 666.729 1182.7 665.39C1183.47 664.051 1183.86 662.643 1183.86 661.166V656.18C1183.63 656.457 1183.12 656.711 1182.33 656.942C1181.57 657.158 1180.67 657.35 1179.66 657.519C1178.66 657.673 1177.68 657.812 1176.73 657.935C1175.79 658.042 1175.03 658.135 1174.44 658.212C1173.02 658.396 1171.7 658.696 1170.47 659.112C1169.25 659.512 1168.27 660.12 1167.52 660.935C1166.78 661.736 1166.41 662.828 1166.41 664.213C1166.41 666.106 1167.11 667.537 1168.51 668.506C1169.92 669.46 1171.72 669.938 1173.89 669.938ZM1204.7 626.727V674H1199.25V626.727H1204.7ZM1225.11 674.831C1222.86 674.831 1220.82 674.408 1218.99 673.561C1217.16 672.7 1215.7 671.461 1214.63 669.845C1213.55 668.214 1213.01 666.244 1213.01 663.936C1213.01 661.905 1213.41 660.258 1214.21 658.996C1215.01 657.719 1216.08 656.719 1217.42 655.996C1218.76 655.272 1220.24 654.734 1221.85 654.38C1223.48 654.011 1225.12 653.718 1226.77 653.503C1228.92 653.226 1230.67 653.018 1232.01 652.88C1233.36 652.726 1234.35 652.472 1234.96 652.118C1235.59 651.764 1235.91 651.148 1235.91 650.271V650.087C1235.91 647.809 1235.29 646.04 1234.04 644.778C1232.81 643.516 1230.94 642.885 1228.43 642.885C1225.83 642.885 1223.79 643.454 1222.31 644.593C1220.84 645.732 1219.8 646.947 1219.2 648.24L1214.03 646.393C1214.95 644.239 1216.18 642.562 1217.72 641.362C1219.27 640.146 1220.97 639.299 1222.8 638.822C1224.64 638.33 1226.46 638.084 1228.25 638.084C1229.38 638.084 1230.69 638.222 1232.17 638.499C1233.66 638.761 1235.1 639.307 1236.49 640.138C1237.89 640.969 1239.05 642.223 1239.97 643.901C1240.89 645.578 1241.36 647.825 1241.36 650.641V674H1235.91V669.199H1235.63C1235.26 669.968 1234.65 670.792 1233.79 671.669C1232.92 672.546 1231.78 673.292 1230.35 673.908C1228.92 674.523 1227.17 674.831 1225.11 674.831ZM1225.94 669.938C1228.09 669.938 1229.91 669.514 1231.38 668.668C1232.88 667.822 1234 666.729 1234.75 665.39C1235.52 664.051 1235.91 662.643 1235.91 661.166V656.18C1235.68 656.457 1235.17 656.711 1234.39 656.942C1233.62 657.158 1232.72 657.35 1231.71 657.519C1230.71 657.673 1229.73 657.812 1228.78 657.935C1227.84 658.042 1227.08 658.135 1226.49 658.212C1225.08 658.396 1223.75 658.696 1222.52 659.112C1221.31 659.512 1220.32 660.12 1219.57 660.935C1218.83 661.736 1218.46 662.828 1218.46 664.213C1218.46 666.106 1219.16 667.537 1220.56 668.506C1221.98 669.46 1223.77 669.938 1225.94 669.938ZM1252.04 674V626.727H1257.49V644.178H1257.95C1258.35 643.562 1258.9 642.777 1259.61 641.823C1260.33 640.854 1261.36 639.992 1262.7 639.238C1264.06 638.469 1265.89 638.084 1268.2 638.084C1271.18 638.084 1273.81 638.83 1276.09 640.323C1278.37 641.815 1280.14 643.931 1281.42 646.67C1282.7 649.41 1283.34 652.641 1283.34 656.365C1283.34 660.12 1282.7 663.374 1281.42 666.129C1280.14 668.868 1278.37 670.992 1276.11 672.5C1273.85 673.992 1271.24 674.739 1268.29 674.739C1266.01 674.739 1264.19 674.362 1262.82 673.608C1261.45 672.838 1260.39 671.969 1259.66 670.999C1258.92 670.014 1258.35 669.199 1257.95 668.553H1257.3V674H1252.04ZM1257.39 656.273C1257.39 658.95 1257.79 661.312 1258.57 663.359C1259.36 665.39 1260.5 666.983 1262.01 668.137C1263.52 669.276 1265.36 669.845 1267.55 669.845C1269.83 669.845 1271.73 669.245 1273.25 668.045C1274.79 666.829 1275.94 665.198 1276.71 663.151C1277.5 661.089 1277.89 658.796 1277.89 656.273C1277.89 653.78 1277.51 651.533 1276.74 649.533C1275.98 647.517 1274.84 645.924 1273.3 644.755C1271.77 643.57 1269.86 642.977 1267.55 642.977C1265.33 642.977 1263.47 643.539 1261.96 644.662C1260.46 645.77 1259.32 647.324 1258.55 649.325C1257.78 651.31 1257.39 653.626 1257.39 656.273ZM1291.67 674V638.545H1296.93V643.901H1297.3C1297.95 642.146 1299.12 640.723 1300.81 639.63C1302.5 638.538 1304.41 637.991 1306.54 637.991C1306.94 637.991 1307.44 637.999 1308.04 638.015C1308.64 638.03 1309.09 638.053 1309.4 638.084V643.624C1309.21 643.577 1308.79 643.508 1308.13 643.416C1307.48 643.308 1306.8 643.254 1306.07 643.254C1304.35 643.254 1302.81 643.616 1301.46 644.339C1300.12 645.047 1299.06 646.032 1298.27 647.294C1297.5 648.54 1297.12 649.964 1297.12 651.564V674H1291.67ZM1315.85 674V638.545H1321.3V674H1315.85ZM1318.62 632.636C1317.56 632.636 1316.65 632.275 1315.88 631.551C1315.12 630.828 1314.75 629.959 1314.75 628.943C1314.75 627.928 1315.12 627.058 1315.88 626.335C1316.65 625.612 1317.56 625.25 1318.62 625.25C1319.69 625.25 1320.59 625.612 1321.35 626.335C1322.12 627.058 1322.5 627.928 1322.5 628.943C1322.5 629.959 1322.12 630.828 1321.35 631.551C1320.59 632.275 1319.69 632.636 1318.62 632.636ZM1356.39 646.486L1351.5 647.871C1351.19 647.055 1350.74 646.263 1350.14 645.493C1349.55 644.708 1348.75 644.062 1347.74 643.554C1346.72 643.047 1345.42 642.793 1343.84 642.793C1341.67 642.793 1339.86 643.293 1338.41 644.293C1336.98 645.278 1336.27 646.532 1336.27 648.055C1336.27 649.41 1336.76 650.479 1337.74 651.264C1338.73 652.049 1340.27 652.703 1342.36 653.226L1347.62 654.518C1350.79 655.288 1353.15 656.465 1354.71 658.05C1356.26 659.62 1357.04 661.643 1357.04 664.121C1357.04 666.152 1356.45 667.968 1355.29 669.568C1354.13 671.169 1352.52 672.43 1350.44 673.354C1348.36 674.277 1345.94 674.739 1343.19 674.739C1339.57 674.739 1336.58 673.954 1334.21 672.384C1331.84 670.815 1330.34 668.522 1329.71 665.506L1334.88 664.213C1335.37 666.121 1336.3 667.552 1337.67 668.506C1339.06 669.46 1340.87 669.938 1343.1 669.938C1345.64 669.938 1347.65 669.399 1349.15 668.322C1350.65 667.229 1351.41 665.921 1351.41 664.398C1351.41 663.167 1350.98 662.136 1350.11 661.305C1349.25 660.458 1347.93 659.827 1346.14 659.412L1340.24 658.027C1336.99 657.258 1334.6 656.065 1333.08 654.449C1331.57 652.818 1330.82 650.779 1330.82 648.332C1330.82 646.332 1331.38 644.562 1332.5 643.023C1333.64 641.485 1335.19 640.277 1337.14 639.4C1339.11 638.522 1341.34 638.084 1343.84 638.084C1347.35 638.084 1350.1 638.853 1352.1 640.392C1354.12 641.931 1355.55 643.962 1356.39 646.486ZM1375.67 674.831C1373.43 674.831 1371.39 674.408 1369.56 673.561C1367.72 672.7 1366.27 671.461 1365.19 669.845C1364.12 668.214 1363.58 666.244 1363.58 663.936C1363.58 661.905 1363.98 660.258 1364.78 658.996C1365.58 657.719 1366.65 656.719 1367.99 655.996C1369.33 655.272 1370.8 654.734 1372.42 654.38C1374.05 654.011 1375.69 653.718 1377.33 653.503C1379.49 653.226 1381.24 653.018 1382.57 652.88C1383.93 652.726 1384.91 652.472 1385.53 652.118C1386.16 651.764 1386.48 651.148 1386.48 650.271V650.087C1386.48 647.809 1385.85 646.04 1384.61 644.778C1383.37 643.516 1381.51 642.885 1379 642.885C1376.4 642.885 1374.36 643.454 1372.88 644.593C1371.4 645.732 1370.36 646.947 1369.76 648.24L1364.59 646.393C1365.52 644.239 1366.75 642.562 1368.29 641.362C1369.84 640.146 1371.53 639.299 1373.36 638.822C1375.21 638.33 1377.03 638.084 1378.81 638.084C1379.95 638.084 1381.26 638.222 1382.74 638.499C1384.23 638.761 1385.67 639.307 1387.05 640.138C1388.45 640.969 1389.61 642.223 1390.54 643.901C1391.46 645.578 1391.92 647.825 1391.92 650.641V674H1386.48V669.199H1386.2C1385.83 669.968 1385.21 670.792 1384.35 671.669C1383.49 672.546 1382.34 673.292 1380.91 673.908C1379.48 674.523 1377.73 674.831 1375.67 674.831ZM1376.5 669.938C1378.66 669.938 1380.47 669.514 1381.95 668.668C1383.44 667.822 1384.57 666.729 1385.32 665.39C1386.09 664.051 1386.48 662.643 1386.48 661.166V656.18C1386.24 656.457 1385.74 656.711 1384.95 656.942C1384.18 657.158 1383.29 657.35 1382.27 657.519C1381.27 657.673 1380.3 657.812 1379.34 657.935C1378.4 658.042 1377.64 658.135 1377.06 658.212C1375.64 658.396 1374.32 658.696 1373.09 659.112C1371.87 659.512 1370.89 660.12 1370.13 660.935C1369.39 661.736 1369.03 662.828 1369.03 664.213C1369.03 666.106 1369.73 667.537 1371.13 668.506C1372.54 669.46 1374.33 669.938 1376.5 669.938ZM1422.82 674H1416.82L1434.18 626.727H1440.09L1457.45 674H1451.45L1437.32 634.206H1436.95L1422.82 674ZM1425.04 655.534H1449.23V660.612H1425.04V655.534ZM1464.81 674V626.727H1480.78C1484.49 626.727 1487.52 627.397 1489.88 628.735C1492.25 630.059 1494 631.852 1495.14 634.114C1496.28 636.376 1496.85 638.899 1496.85 641.685C1496.85 644.47 1496.28 647.001 1495.14 649.279C1494.02 651.556 1492.28 653.372 1489.92 654.726C1487.57 656.065 1484.55 656.734 1480.88 656.734H1469.43V651.656H1480.69C1483.23 651.656 1485.27 651.218 1486.81 650.341C1488.35 649.463 1489.46 648.279 1490.16 646.786C1490.86 645.278 1491.22 643.577 1491.22 641.685C1491.22 639.792 1490.86 638.099 1490.16 636.607C1489.46 635.114 1488.34 633.944 1486.79 633.098C1485.23 632.236 1483.17 631.805 1480.6 631.805H1470.54V674H1464.81ZM1511.8 626.727V674H1506.07V626.727H1511.8ZM1556.6 638.545V643.162H1537.49V638.545H1556.6ZM1543.22 674V633.652C1543.22 631.621 1543.69 629.928 1544.65 628.574C1545.6 627.22 1546.84 626.204 1548.36 625.527C1549.89 624.85 1551.5 624.511 1553.19 624.511C1554.53 624.511 1555.62 624.619 1556.47 624.835C1557.31 625.05 1557.94 625.25 1558.36 625.435L1556.79 630.143C1556.51 630.051 1556.13 629.936 1555.63 629.797C1555.16 629.659 1554.53 629.589 1553.74 629.589C1551.94 629.589 1550.64 630.043 1549.84 630.951C1549.06 631.859 1548.66 633.19 1548.66 634.945V674H1543.22ZM1577.18 674.739C1573.98 674.739 1571.17 673.977 1568.76 672.453C1566.36 670.93 1564.48 668.799 1563.12 666.06C1561.79 663.321 1561.12 660.12 1561.12 656.457C1561.12 652.764 1561.79 649.54 1563.12 646.786C1564.48 644.031 1566.36 641.892 1568.76 640.369C1571.17 638.846 1573.98 638.084 1577.18 638.084C1580.38 638.084 1583.18 638.846 1585.58 640.369C1588 641.892 1589.88 644.031 1591.22 646.786C1592.57 649.54 1593.25 652.764 1593.25 656.457C1593.25 660.12 1592.57 663.321 1591.22 666.06C1589.88 668.799 1588 670.93 1585.58 672.453C1583.18 673.977 1580.38 674.739 1577.18 674.739ZM1577.18 669.845C1579.61 669.845 1581.61 669.222 1583.18 667.975C1584.75 666.729 1585.92 665.09 1586.67 663.059C1587.42 661.028 1587.8 658.827 1587.8 656.457C1587.8 654.088 1587.42 651.879 1586.67 649.833C1585.92 647.786 1584.75 646.132 1583.18 644.87C1581.61 643.608 1579.61 642.977 1577.18 642.977C1574.75 642.977 1572.75 643.608 1571.18 644.87C1569.61 646.132 1568.45 647.786 1567.7 649.833C1566.94 651.879 1566.56 654.088 1566.56 656.457C1566.56 658.827 1566.94 661.028 1567.7 663.059C1568.45 665.09 1569.61 666.729 1571.18 667.975C1572.75 669.222 1574.75 669.845 1577.18 669.845ZM1601.56 674V638.545H1606.83V643.901H1607.2C1607.84 642.146 1609.01 640.723 1610.7 639.63C1612.4 638.538 1614.3 637.991 1616.43 637.991C1616.83 637.991 1617.33 637.999 1617.93 638.015C1618.53 638.03 1618.98 638.053 1619.29 638.084V643.624C1619.11 643.577 1618.68 643.508 1618.02 643.416C1617.37 643.308 1616.69 643.254 1615.97 643.254C1614.24 643.254 1612.7 643.616 1611.35 644.339C1610.01 645.047 1608.95 646.032 1608.16 647.294C1607.4 648.54 1607.01 649.964 1607.01 651.564V674H1601.56ZM1646.71 674H1640.7L1658.06 626.727H1663.97L1681.33 674H1675.33L1661.2 634.206H1660.83L1646.71 674ZM1648.92 655.534H1673.11V660.612H1648.92V655.534ZM1694.42 626.727V674H1688.69V626.727H1694.42ZM1733.87 674.831C1731.62 674.831 1729.59 674.408 1727.75 673.561C1725.92 672.7 1724.47 671.461 1723.39 669.845C1722.31 668.214 1721.78 666.244 1721.78 663.936C1721.78 661.905 1722.18 660.258 1722.98 658.996C1723.78 657.719 1724.85 656.719 1726.18 655.996C1727.52 655.272 1729 654.734 1730.62 654.38C1732.25 654.011 1733.89 653.718 1735.53 653.503C1737.69 653.226 1739.43 653.018 1740.77 652.88C1742.13 652.726 1743.11 652.472 1743.73 652.118C1744.36 651.764 1744.67 651.148 1744.67 650.271V650.087C1744.67 647.809 1744.05 646.04 1742.8 644.778C1741.57 643.516 1739.7 642.885 1737.2 642.885C1734.59 642.885 1732.56 643.454 1731.08 644.593C1729.6 645.732 1728.56 646.947 1727.96 648.24L1722.79 646.393C1723.71 644.239 1724.95 642.562 1726.48 641.362C1728.04 640.146 1729.73 639.299 1731.56 638.822C1733.41 638.33 1735.23 638.084 1737.01 638.084C1738.15 638.084 1739.46 638.222 1740.93 638.499C1742.43 638.761 1743.87 639.307 1745.25 640.138C1746.65 640.969 1747.81 642.223 1748.74 643.901C1749.66 645.578 1750.12 647.825 1750.12 650.641V674H1744.67V669.199H1744.4C1744.03 669.968 1743.41 670.792 1742.55 671.669C1741.69 672.546 1740.54 673.292 1739.11 673.908C1737.68 674.523 1735.93 674.831 1733.87 674.831ZM1734.7 669.938C1736.86 669.938 1738.67 669.514 1740.15 668.668C1741.64 667.822 1742.77 666.729 1743.52 665.39C1744.29 664.051 1744.67 662.643 1744.67 661.166V656.18C1744.44 656.457 1743.94 656.711 1743.15 656.942C1742.38 657.158 1741.49 657.35 1740.47 657.519C1739.47 657.673 1738.5 657.812 1737.54 657.935C1736.6 658.042 1735.84 658.135 1735.26 658.212C1733.84 658.396 1732.52 658.696 1731.29 659.112C1730.07 659.512 1729.09 660.12 1728.33 660.935C1727.59 661.736 1727.22 662.828 1727.22 664.213C1727.22 666.106 1727.92 667.537 1729.32 668.506C1730.74 669.46 1732.53 669.938 1734.7 669.938ZM1765.51 652.672V674H1760.06V638.545H1765.33V644.085H1765.79C1766.62 642.285 1767.88 640.838 1769.57 639.746C1771.27 638.638 1773.45 638.084 1776.13 638.084C1778.53 638.084 1780.63 638.576 1782.43 639.561C1784.23 640.531 1785.63 642.008 1786.63 643.993C1787.63 645.963 1788.13 648.455 1788.13 651.472V674H1782.68V651.841C1782.68 649.056 1781.96 646.886 1780.51 645.332C1779.07 643.762 1777.08 642.977 1774.56 642.977C1772.82 642.977 1771.27 643.354 1769.9 644.108C1768.54 644.862 1767.47 645.963 1766.69 647.409C1765.9 648.856 1765.51 650.61 1765.51 652.672ZM1811.47 674.739C1808.52 674.739 1805.91 673.992 1803.65 672.5C1801.39 670.992 1799.62 668.868 1798.34 666.129C1797.06 663.374 1796.42 660.12 1796.42 656.365C1796.42 652.641 1797.06 649.41 1798.34 646.67C1799.62 643.931 1801.39 641.815 1803.67 640.323C1805.95 638.83 1808.58 638.084 1811.57 638.084C1813.87 638.084 1815.7 638.469 1817.04 639.238C1818.39 639.992 1819.42 640.854 1820.13 641.823C1820.85 642.777 1821.41 643.562 1821.82 644.178H1822.28V626.727H1827.72V674H1822.46V668.553H1821.82C1821.41 669.199 1820.85 670.014 1820.11 670.999C1819.37 671.969 1818.31 672.838 1816.94 673.608C1815.58 674.362 1813.75 674.739 1811.47 674.739ZM1812.21 669.845C1814.4 669.845 1816.24 669.276 1817.75 668.137C1819.26 666.983 1820.41 665.39 1821.19 663.359C1821.98 661.312 1822.37 658.95 1822.37 656.273C1822.37 653.626 1821.98 651.31 1821.21 649.325C1820.45 647.324 1819.31 645.77 1817.8 644.662C1816.29 643.539 1814.43 642.977 1812.21 642.977C1809.9 642.977 1807.98 643.57 1806.44 644.755C1804.92 645.924 1803.77 647.517 1803 649.533C1802.25 651.533 1801.87 653.78 1801.87 656.273C1801.87 658.796 1802.26 661.089 1803.03 663.151C1803.81 665.198 1804.96 666.829 1806.49 668.045C1808.03 669.245 1809.94 669.845 1812.21 669.845ZM265.71 726.727V774H260.17L234.411 736.884H233.949V774H228.224V726.727H233.764L259.616 763.936H260.078V726.727H265.71ZM277.165 774V726.727H282.889V768.922H304.864V774H277.165ZM313.727 774V726.727H329.7C333.409 726.727 336.44 727.397 338.795 728.735C341.165 730.059 342.919 731.852 344.058 734.114C345.196 736.376 345.766 738.899 345.766 741.685C345.766 744.47 345.196 747.001 344.058 749.279C342.934 751.556 341.195 753.372 338.841 754.726C336.487 756.065 333.47 756.734 329.793 756.734H318.344V751.656H329.608C332.147 751.656 334.186 751.218 335.725 750.341C337.264 749.463 338.379 748.279 339.072 746.786C339.78 745.278 340.134 743.577 340.134 741.685C340.134 739.792 339.78 738.099 339.072 736.607C338.379 735.114 337.256 733.944 335.702 733.098C334.148 732.236 332.086 731.805 329.516 731.805H319.452V774H313.727ZM372.53 774V738.545H377.793V743.901H378.162C378.808 742.146 379.978 740.723 381.67 739.63C383.363 738.538 385.271 737.991 387.395 737.991C387.795 737.991 388.295 737.999 388.895 738.015C389.495 738.03 389.949 738.053 390.257 738.084V743.624C390.072 743.577 389.649 743.508 388.987 743.416C388.341 743.308 387.656 743.254 386.933 743.254C385.21 743.254 383.671 743.616 382.317 744.339C380.978 745.047 379.916 746.032 379.131 747.294C378.362 748.54 377.977 749.964 377.977 751.564V774H372.53ZM410.5 774.739C407.084 774.739 404.137 773.985 401.66 772.477C399.198 770.953 397.297 768.83 395.958 766.106C394.635 763.367 393.973 760.181 393.973 756.55C393.973 752.918 394.635 749.717 395.958 746.947C397.297 744.162 399.159 741.992 401.544 740.438C403.945 738.869 406.746 738.084 409.946 738.084C411.793 738.084 413.616 738.392 415.417 739.007C417.217 739.623 418.856 740.623 420.333 742.008C421.811 743.377 422.988 745.193 423.865 747.455C424.742 749.717 425.181 752.503 425.181 755.811V758.119H397.851V753.411H419.641C419.641 751.41 419.241 749.625 418.441 748.055C417.656 746.486 416.532 745.247 415.071 744.339C413.624 743.431 411.916 742.977 409.946 742.977C407.777 742.977 405.899 743.516 404.314 744.593C402.745 745.655 401.537 747.04 400.69 748.748C399.844 750.456 399.421 752.287 399.421 754.241V757.381C399.421 760.058 399.882 762.328 400.806 764.19C401.744 766.037 403.045 767.445 404.707 768.414C406.369 769.368 408.3 769.845 410.5 769.845C411.931 769.845 413.224 769.645 414.378 769.245C415.548 768.83 416.556 768.214 417.402 767.398C418.248 766.567 418.902 765.536 419.364 764.305L424.627 765.783C424.073 767.568 423.142 769.137 421.834 770.491C420.526 771.83 418.91 772.877 416.986 773.631C415.063 774.369 412.901 774.739 410.5 774.739ZM438.915 726.727V774H433.467V726.727H438.915ZM459.325 774.831C457.079 774.831 455.04 774.408 453.208 773.561C451.377 772.7 449.923 771.461 448.846 769.845C447.769 768.214 447.23 766.244 447.23 763.936C447.23 761.905 447.63 760.258 448.43 758.996C449.231 757.719 450.3 756.719 451.639 755.996C452.978 755.272 454.455 754.734 456.071 754.38C457.702 754.011 459.341 753.718 460.987 753.503C463.142 753.226 464.888 753.018 466.227 752.88C467.581 752.726 468.566 752.472 469.181 752.118C469.812 751.764 470.128 751.148 470.128 750.271V750.087C470.128 747.809 469.505 746.04 468.258 744.778C467.027 743.516 465.157 742.885 462.649 742.885C460.049 742.885 458.01 743.454 456.532 744.593C455.055 745.732 454.016 746.947 453.416 748.24L448.246 746.393C449.169 744.239 450.4 742.562 451.939 741.362C453.493 740.146 455.186 739.299 457.017 738.822C458.864 738.33 460.679 738.084 462.464 738.084C463.603 738.084 464.911 738.222 466.388 738.499C467.881 738.761 469.32 739.307 470.705 740.138C472.105 740.969 473.267 742.223 474.19 743.901C475.114 745.578 475.575 747.825 475.575 750.641V774H470.128V769.199H469.851C469.482 769.968 468.866 770.792 468.004 771.669C467.143 772.546 465.996 773.292 464.565 773.908C463.134 774.523 461.387 774.831 459.325 774.831ZM460.156 769.938C462.311 769.938 464.126 769.514 465.604 768.668C467.096 767.822 468.22 766.729 468.974 765.39C469.743 764.051 470.128 762.643 470.128 761.166V756.18C469.897 756.457 469.389 756.711 468.604 756.942C467.835 757.158 466.942 757.35 465.927 757.519C464.927 757.673 463.949 757.812 462.995 757.935C462.057 758.042 461.295 758.135 460.71 758.212C459.295 758.396 457.971 758.696 456.74 759.112C455.524 759.512 454.54 760.12 453.786 760.935C453.047 761.736 452.678 762.828 452.678 764.213C452.678 766.106 453.378 767.537 454.778 768.506C456.194 769.46 457.987 769.938 460.156 769.938ZM500.937 738.545V743.162H482.563V738.545H500.937ZM487.919 730.051H493.366V763.844C493.366 765.383 493.589 766.537 494.035 767.306C494.497 768.06 495.082 768.568 495.79 768.83C496.513 769.076 497.275 769.199 498.075 769.199C498.675 769.199 499.167 769.168 499.552 769.107C499.937 769.03 500.245 768.968 500.475 768.922L501.583 773.815C501.214 773.954 500.699 774.092 500.037 774.231C499.375 774.385 498.536 774.462 497.521 774.462C495.982 774.462 494.474 774.131 492.997 773.469C491.535 772.807 490.319 771.799 489.35 770.445C488.396 769.091 487.919 767.383 487.919 765.321V730.051ZM523.616 774.739C520.199 774.739 517.252 773.985 514.775 772.477C512.313 770.953 510.412 768.83 509.074 766.106C507.75 763.367 507.089 760.181 507.089 756.55C507.089 752.918 507.75 749.717 509.074 746.947C510.412 744.162 512.274 741.992 514.66 740.438C517.06 738.869 519.861 738.084 523.062 738.084C524.908 738.084 526.732 738.392 528.532 739.007C530.332 739.623 531.971 740.623 533.449 742.008C534.926 743.377 536.103 745.193 536.98 747.455C537.857 749.717 538.296 752.503 538.296 755.811V758.119H510.966V753.411H532.756C532.756 751.41 532.356 749.625 531.556 748.055C530.771 746.486 529.648 745.247 528.186 744.339C526.739 743.431 525.031 742.977 523.062 742.977C520.892 742.977 519.014 743.516 517.429 744.593C515.86 745.655 514.652 747.04 513.805 748.748C512.959 750.456 512.536 752.287 512.536 754.241V757.381C512.536 760.058 512.998 762.328 513.921 764.19C514.86 766.037 516.16 767.445 517.822 768.414C519.484 769.368 521.415 769.845 523.616 769.845C525.047 769.845 526.339 769.645 527.493 769.245C528.663 768.83 529.671 768.214 530.517 767.398C531.363 766.567 532.017 765.536 532.479 764.305L537.742 765.783C537.188 767.568 536.257 769.137 534.949 770.491C533.641 771.83 532.025 772.877 530.102 773.631C528.178 774.369 526.016 774.739 523.616 774.739ZM559.97 774.739C557.016 774.739 554.407 773.992 552.145 772.5C549.883 770.992 548.114 768.868 546.836 766.129C545.559 763.374 544.921 760.12 544.921 756.365C544.921 752.641 545.559 749.41 546.836 746.67C548.114 743.931 549.891 741.815 552.168 740.323C554.446 738.83 557.077 738.084 560.063 738.084C562.371 738.084 564.194 738.469 565.533 739.238C566.887 739.992 567.918 740.854 568.626 741.823C569.349 742.777 569.911 743.562 570.311 744.178H570.773V726.727H576.22V774H570.957V768.553H570.311C569.911 769.199 569.342 770.014 568.603 770.999C567.864 771.969 566.81 772.838 565.441 773.608C564.071 774.362 562.248 774.739 559.97 774.739ZM560.709 769.845C562.894 769.845 564.741 769.276 566.249 768.137C567.757 766.983 568.903 765.39 569.688 763.359C570.473 761.312 570.865 758.95 570.865 756.273C570.865 753.626 570.48 751.31 569.711 749.325C568.942 747.324 567.803 745.77 566.295 744.662C564.787 743.539 562.925 742.977 560.709 742.977C558.401 742.977 556.477 743.57 554.938 744.755C553.415 745.924 552.268 747.517 551.499 749.533C550.745 751.533 550.368 753.78 550.368 756.273C550.368 758.796 550.753 761.089 551.522 763.151C552.307 765.198 553.461 766.829 554.984 768.045C556.523 769.245 558.431 769.845 560.709 769.845ZM620.654 738.545V743.162H602.28V738.545H620.654ZM607.635 730.051H613.083V763.844C613.083 765.383 613.306 766.537 613.752 767.306C614.214 768.06 614.799 768.568 615.506 768.83C616.23 769.076 616.991 769.199 617.792 769.199C618.392 769.199 618.884 769.168 619.269 769.107C619.654 769.03 619.961 768.968 620.192 768.922L621.3 773.815C620.931 773.954 620.415 774.092 619.754 774.231C619.092 774.385 618.253 774.462 617.238 774.462C615.699 774.462 614.191 774.131 612.714 773.469C611.252 772.807 610.036 771.799 609.066 770.445C608.112 769.091 607.635 767.383 607.635 765.321V730.051ZM639.281 774.831C637.035 774.831 634.996 774.408 633.165 773.561C631.333 772.7 629.879 771.461 628.802 769.845C627.725 768.214 627.186 766.244 627.186 763.936C627.186 761.905 627.586 760.258 628.386 758.996C629.187 757.719 630.256 756.719 631.595 755.996C632.934 755.272 634.411 754.734 636.027 754.38C637.658 754.011 639.297 753.718 640.943 753.503C643.098 753.226 644.844 753.018 646.183 752.88C647.537 752.726 648.522 752.472 649.138 752.118C649.768 751.764 650.084 751.148 650.084 750.271V750.087C650.084 747.809 649.461 746.04 648.214 744.778C646.983 743.516 645.113 742.885 642.605 742.885C640.005 742.885 637.966 743.454 636.488 744.593C635.011 745.732 633.972 746.947 633.372 748.24L628.202 746.393C629.125 744.239 630.356 742.562 631.895 741.362C633.449 740.146 635.142 739.299 636.973 738.822C638.82 738.33 640.636 738.084 642.421 738.084C643.559 738.084 644.867 738.222 646.345 738.499C647.837 738.761 649.276 739.307 650.661 740.138C652.061 740.969 653.223 742.223 654.146 743.901C655.07 745.578 655.531 747.825 655.531 750.641V774H650.084V769.199H649.807C649.438 769.968 648.822 770.792 647.96 771.669C647.099 772.546 645.952 773.292 644.521 773.908C643.09 774.523 641.343 774.831 639.281 774.831ZM640.112 769.938C642.267 769.938 644.082 769.514 645.56 768.668C647.052 767.822 648.176 766.729 648.93 765.39C649.699 764.051 650.084 762.643 650.084 761.166V756.18C649.853 756.457 649.345 756.711 648.56 756.942C647.791 757.158 646.899 757.35 645.883 757.519C644.883 757.673 643.906 757.812 642.951 757.935C642.013 758.042 641.251 758.135 640.666 758.212C639.251 758.396 637.927 758.696 636.696 759.112C635.48 759.512 634.496 760.12 633.742 760.935C633.003 761.736 632.634 762.828 632.634 764.213C632.634 766.106 633.334 767.537 634.734 768.506C636.15 769.46 637.943 769.938 640.112 769.938ZM690.588 746.486L685.694 747.871C685.386 747.055 684.933 746.263 684.332 745.493C683.748 744.708 682.947 744.062 681.932 743.554C680.916 743.047 679.616 742.793 678.031 742.793C675.861 742.793 674.053 743.293 672.607 744.293C671.175 745.278 670.46 746.532 670.46 748.055C670.46 749.41 670.952 750.479 671.937 751.264C672.922 752.049 674.461 752.703 676.554 753.226L681.816 754.518C684.986 755.288 687.348 756.465 688.903 758.05C690.457 759.62 691.234 761.643 691.234 764.121C691.234 766.152 690.649 767.968 689.48 769.568C688.326 771.169 686.71 772.43 684.632 773.354C682.555 774.277 680.139 774.739 677.385 774.739C673.768 774.739 670.775 773.954 668.406 772.384C666.036 770.815 664.535 768.522 663.904 765.506L669.075 764.213C669.567 766.121 670.498 767.552 671.868 768.506C673.253 769.46 675.061 769.938 677.292 769.938C679.831 769.938 681.847 769.399 683.34 768.322C684.848 767.229 685.602 765.921 685.602 764.398C685.602 763.167 685.171 762.136 684.309 761.305C683.448 760.458 682.124 759.827 680.339 759.412L674.43 758.027C671.183 757.258 668.798 756.065 667.275 754.449C665.766 752.818 665.012 750.779 665.012 748.332C665.012 746.332 665.574 744.562 666.697 743.023C667.836 741.485 669.383 740.277 671.337 739.4C673.307 738.522 675.538 738.084 678.031 738.084C681.539 738.084 684.294 738.853 686.294 740.392C688.31 741.931 689.741 743.962 690.588 746.486ZM704.512 761.074L704.42 754.334H705.528L721.039 738.545H727.779L711.252 755.257H710.791L704.512 761.074ZM699.434 774V726.727H704.881V774H699.434ZM721.962 774L708.113 756.457L711.991 752.672L728.887 774H721.962ZM759.904 746.486L755.011 747.871C754.703 747.055 754.249 746.263 753.649 745.493C753.064 744.708 752.264 744.062 751.248 743.554C750.233 743.047 748.932 742.793 747.347 742.793C745.178 742.793 743.369 743.293 741.923 744.293C740.492 745.278 739.776 746.532 739.776 748.055C739.776 749.41 740.269 750.479 741.254 751.264C742.238 752.049 743.777 752.703 745.87 753.226L751.133 754.518C754.303 755.288 756.665 756.465 758.219 758.05C759.773 759.62 760.55 761.643 760.55 764.121C760.55 766.152 759.966 767.968 758.796 769.568C757.642 771.169 756.026 772.43 753.949 773.354C751.871 774.277 749.455 774.739 746.701 774.739C743.085 774.739 740.092 773.954 737.722 772.384C735.352 770.815 733.852 768.522 733.221 765.506L738.391 764.213C738.884 766.121 739.815 767.552 741.184 768.506C742.569 769.46 744.377 769.938 746.609 769.938C749.148 769.938 751.164 769.399 752.656 768.322C754.164 767.229 754.918 765.921 754.918 764.398C754.918 763.167 754.487 762.136 753.626 761.305C752.764 760.458 751.441 759.827 749.656 759.412L743.746 758.027C740.5 757.258 738.114 756.065 736.591 754.449C735.083 752.818 734.329 750.779 734.329 748.332C734.329 746.332 734.891 744.562 736.014 743.023C737.153 741.485 738.699 740.277 740.653 739.4C742.623 738.522 744.854 738.084 747.347 738.084C750.856 738.084 753.61 738.853 755.611 740.392C757.627 741.931 759.058 743.962 759.904 746.486Z" fill="#AE8EFA"/>
</svg>
