<svg width="1920" height="1080" viewBox="0 0 1920 1080" fill="none" xmlns="http://www.w3.org/2000/svg">
<rect width="1920" height="1080" fill="#4B3F71"/>
<path d="M224.17 220.636C224.17 228.307 222.786 234.936 220.016 240.523C217.246 246.11 213.446 250.419 208.616 253.449C203.787 256.479 198.271 257.994 192.068 257.994C185.866 257.994 180.349 256.479 175.52 253.449C170.69 250.419 166.891 246.11 164.121 240.523C161.351 234.936 159.966 228.307 159.966 220.636C159.966 212.966 161.351 206.337 164.121 200.75C166.891 195.163 170.69 190.854 175.52 187.824C180.349 184.794 185.866 183.278 192.068 183.278C198.271 183.278 203.787 184.794 208.616 187.824C213.446 190.854 217.246 195.163 220.016 200.75C222.786 206.337 224.17 212.966 224.17 220.636ZM215.648 220.636C215.648 214.339 214.594 209.024 212.487 204.692C210.404 200.359 207.575 197.08 204 194.855C200.449 192.63 196.472 191.517 192.068 191.517C187.665 191.517 183.676 192.63 180.101 194.855C176.55 197.08 173.721 200.359 171.614 204.692C169.53 209.024 168.489 214.339 168.489 220.636C168.489 226.934 169.53 232.249 171.614 236.581C173.721 240.913 176.55 244.192 180.101 246.418C183.676 248.643 187.665 249.756 192.068 249.756C196.472 249.756 200.449 248.643 204 246.418C207.575 244.192 210.404 240.913 212.487 236.581C214.594 232.249 215.648 226.934 215.648 220.636ZM282.445 202.455L262.274 257H253.751L233.581 202.455H242.672L257.729 245.92H258.297L273.354 202.455H282.445ZM314.423 258.136C309.167 258.136 304.633 256.976 300.822 254.656C297.034 252.312 294.11 249.045 292.05 244.855C290.014 240.641 288.996 235.741 288.996 230.153C288.996 224.566 290.014 219.642 292.05 215.381C294.11 211.096 296.975 207.758 300.644 205.366C304.337 202.952 308.646 201.744 313.57 201.744C316.411 201.744 319.217 202.218 321.987 203.165C324.756 204.112 327.278 205.651 329.55 207.781C331.823 209.888 333.634 212.682 334.984 216.162C336.333 219.642 337.008 223.927 337.008 229.017V232.568H294.962V225.324H328.485C328.485 222.246 327.87 219.5 326.638 217.085C325.431 214.67 323.703 212.765 321.454 211.368C319.228 209.971 316.601 209.273 313.57 209.273C310.232 209.273 307.344 210.101 304.906 211.759C302.491 213.392 300.632 215.523 299.33 218.151C298.028 220.778 297.377 223.596 297.377 226.602V231.432C297.377 235.551 298.087 239.043 299.508 241.908C300.952 244.749 302.952 246.915 305.509 248.406C308.066 249.874 311.037 250.608 314.423 250.608C316.624 250.608 318.613 250.3 320.388 249.685C322.188 249.045 323.738 248.098 325.04 246.844C326.343 245.565 327.349 243.979 328.059 242.085L336.156 244.358C335.303 247.104 333.871 249.519 331.859 251.602C329.846 253.662 327.361 255.272 324.401 256.432C321.442 257.568 318.116 258.136 314.423 258.136ZM349.756 257V202.455H357.853V210.693H358.421C359.415 207.994 361.215 205.804 363.819 204.124C366.423 202.443 369.359 201.602 372.626 201.602C373.241 201.602 374.011 201.614 374.934 201.638C375.857 201.661 376.556 201.697 377.029 201.744V210.267C376.745 210.196 376.094 210.089 375.076 209.947C374.082 209.782 373.028 209.699 371.915 209.699C369.264 209.699 366.897 210.255 364.813 211.368C362.754 212.457 361.12 213.972 359.913 215.913C358.729 217.831 358.137 220.021 358.137 222.483V257H349.756ZM433.226 202.455L413.055 257H404.533L384.362 202.455H393.453L408.51 245.92H409.078L424.135 202.455H433.226ZM444.288 257V202.455H452.668V257H444.288ZM448.549 193.364C446.915 193.364 445.507 192.807 444.323 191.695C443.163 190.582 442.583 189.244 442.583 187.682C442.583 186.119 443.163 184.782 444.323 183.669C445.507 182.556 446.915 182 448.549 182C450.183 182 451.579 182.556 452.739 183.669C453.923 184.782 454.515 186.119 454.515 187.682C454.515 189.244 453.923 190.582 452.739 191.695C451.579 192.807 450.183 193.364 448.549 193.364ZM490.887 258.136C485.632 258.136 481.098 256.976 477.287 254.656C473.499 252.312 470.575 249.045 468.515 244.855C466.479 240.641 465.461 235.741 465.461 230.153C465.461 224.566 466.479 219.642 468.515 215.381C470.575 211.096 473.44 207.758 477.109 205.366C480.802 202.952 485.111 201.744 490.035 201.744C492.876 201.744 495.681 202.218 498.451 203.165C501.221 204.112 503.743 205.651 506.015 207.781C508.288 209.888 510.099 212.682 511.449 216.162C512.798 219.642 513.473 223.927 513.473 229.017V232.568H471.427V225.324H504.95C504.95 222.246 504.334 219.5 503.103 217.085C501.896 214.67 500.168 212.765 497.919 211.368C495.693 209.971 493.065 209.273 490.035 209.273C486.697 209.273 483.809 210.101 481.37 211.759C478.956 213.392 477.097 215.523 475.795 218.151C474.493 220.778 473.842 223.596 473.842 226.602V231.432C473.842 235.551 474.552 239.043 475.973 241.908C477.417 244.749 479.417 246.915 481.974 248.406C484.531 249.874 487.502 250.608 490.887 250.608C493.089 250.608 495.078 250.3 496.853 249.685C498.653 249.045 500.203 248.098 501.505 246.844C502.807 245.565 503.814 243.979 504.524 242.085L512.62 244.358C511.768 247.104 510.336 249.519 508.324 251.602C506.311 253.662 503.825 255.272 500.866 256.432C497.907 257.568 494.581 258.136 490.887 258.136ZM538.579 257L521.96 202.455H530.767L542.556 244.216H543.125L554.772 202.455H563.721L575.227 244.074H575.795L587.585 202.455H596.392L579.772 257H571.534L559.602 215.097H558.75L546.818 257H538.579Z" fill="#C7C9EF"/>
</svg>
