<svg width="1920" height="1080" viewBox="0 0 1920 1080" fill="none" xmlns="http://www.w3.org/2000/svg">
<rect x="0.5" y="0.5" width="1919" height="1079" fill="white" stroke="black"/>
<path d="M48.8636 84.0682V77.8182H92.5V84.0682H74.2045V136H67.1591V84.0682H48.8636ZM113.864 136.909C109.924 136.909 106.468 135.972 103.494 134.097C100.54 132.222 98.2292 129.598 96.5625 126.227C94.9148 122.856 94.0909 118.917 94.0909 114.409C94.0909 109.864 94.9148 105.896 96.5625 102.506C98.2292 99.1155 100.54 96.483 103.494 94.608C106.468 92.733 109.924 91.7955 113.864 91.7955C117.803 91.7955 121.25 92.733 124.205 94.608C127.178 96.483 129.489 99.1155 131.136 102.506C132.803 105.896 133.636 109.864 133.636 114.409C133.636 118.917 132.803 122.856 131.136 126.227C129.489 129.598 127.178 132.222 124.205 134.097C121.25 135.972 117.803 136.909 113.864 136.909ZM113.864 130.886C116.856 130.886 119.318 130.119 121.25 128.585C123.182 127.051 124.612 125.034 125.54 122.534C126.468 120.034 126.932 117.326 126.932 114.409C126.932 111.492 126.468 108.775 125.54 106.256C124.612 103.737 123.182 101.701 121.25 100.148C119.318 98.5947 116.856 97.8182 113.864 97.8182C110.871 97.8182 108.409 98.5947 106.477 100.148C104.545 101.701 103.116 103.737 102.188 106.256C101.259 108.775 100.795 111.492 100.795 114.409C100.795 117.326 101.259 120.034 102.188 122.534C103.116 125.034 104.545 127.051 106.477 128.585C108.409 130.119 110.871 130.886 113.864 130.886ZM161.598 136.909C157.659 136.909 154.202 135.972 151.229 134.097C148.274 132.222 145.964 129.598 144.297 126.227C142.649 122.856 141.825 118.917 141.825 114.409C141.825 109.864 142.649 105.896 144.297 102.506C145.964 99.1155 148.274 96.483 151.229 94.608C154.202 92.733 157.659 91.7955 161.598 91.7955C165.537 91.7955 168.984 92.733 171.939 94.608C174.912 96.483 177.223 99.1155 178.871 102.506C180.537 105.896 181.371 109.864 181.371 114.409C181.371 118.917 180.537 122.856 178.871 126.227C177.223 129.598 174.912 132.222 171.939 134.097C168.984 135.972 165.537 136.909 161.598 136.909ZM161.598 130.886C164.59 130.886 167.053 130.119 168.984 128.585C170.916 127.051 172.346 125.034 173.274 122.534C174.202 120.034 174.666 117.326 174.666 114.409C174.666 111.492 174.202 108.775 173.274 106.256C172.346 103.737 170.916 101.701 168.984 100.148C167.053 98.5947 164.59 97.8182 161.598 97.8182C158.606 97.8182 156.143 98.5947 154.212 100.148C152.28 101.701 150.85 103.737 149.922 106.256C148.994 108.775 148.53 111.492 148.53 114.409C148.53 117.326 148.994 120.034 149.922 122.534C150.85 125.034 152.28 127.051 154.212 128.585C156.143 130.119 158.606 130.886 161.598 130.886ZM198.31 77.8182V136H191.605V77.8182H198.31ZM241.499 102.136L235.476 103.841C235.097 102.837 234.538 101.862 233.8 100.915C233.08 99.9489 232.095 99.1534 230.845 98.5284C229.595 97.9034 227.995 97.5909 226.044 97.5909C223.374 97.5909 221.148 98.2064 219.368 99.4375C217.607 100.65 216.726 102.193 216.726 104.068C216.726 105.735 217.332 107.051 218.544 108.017C219.756 108.983 221.65 109.788 224.226 110.432L230.703 112.023C234.605 112.97 237.512 114.419 239.425 116.369C241.338 118.301 242.294 120.792 242.294 123.841C242.294 126.341 241.574 128.576 240.135 130.545C238.714 132.515 236.726 134.068 234.169 135.205C231.612 136.341 228.639 136.909 225.249 136.909C220.798 136.909 217.114 135.943 214.197 134.011C211.281 132.08 209.434 129.258 208.658 125.545L215.021 123.955C215.627 126.303 216.773 128.064 218.459 129.239C220.163 130.413 222.389 131 225.135 131C228.26 131 230.741 130.337 232.578 129.011C234.434 127.667 235.362 126.057 235.362 124.182C235.362 122.667 234.832 121.398 233.771 120.375C232.711 119.333 231.082 118.557 228.885 118.045L221.612 116.341C217.616 115.394 214.68 113.926 212.805 111.938C210.949 109.93 210.021 107.42 210.021 104.409C210.021 101.947 210.713 99.7689 212.095 97.875C213.497 95.9811 215.4 94.4943 217.805 93.4148C220.23 92.3352 222.976 91.7955 226.044 91.7955C230.362 91.7955 233.752 92.7424 236.214 94.6364C238.696 96.5303 240.457 99.0303 241.499 102.136Z" fill="#808088"/>
<path d="M114.75 458.321C112.888 458.321 111.188 457.867 109.649 456.959C108.11 456.036 106.879 454.805 105.956 453.266C105.048 451.727 104.594 450.027 104.594 448.165C104.594 446.287 105.048 444.587 105.956 443.064C106.879 441.525 108.11 440.301 109.649 439.393C111.188 438.47 112.888 438.009 114.75 438.009C116.627 438.009 118.328 438.47 119.851 439.393C121.39 440.301 122.613 441.525 123.521 443.064C124.445 444.587 124.906 446.287 124.906 448.165C124.906 450.027 124.445 451.727 123.521 453.266C122.613 454.805 121.39 456.036 119.851 456.959C118.328 457.867 116.627 458.321 114.75 458.321ZM206.71 419.727V467H201.17L175.411 429.884H174.949V467H169.224V419.727H174.764L200.616 456.936H201.078V419.727H206.71ZM231.83 467.739C228.629 467.739 225.821 466.977 223.405 465.453C221.004 463.93 219.127 461.799 217.772 459.06C216.434 456.321 215.764 453.12 215.764 449.457C215.764 445.764 216.434 442.54 217.772 439.786C219.127 437.031 221.004 434.892 223.405 433.369C225.821 431.846 228.629 431.084 231.83 431.084C235.03 431.084 237.831 431.846 240.232 433.369C242.648 434.892 244.525 437.031 245.864 439.786C247.218 442.54 247.895 445.764 247.895 449.457C247.895 453.12 247.218 456.321 245.864 459.06C244.525 461.799 242.648 463.93 240.232 465.453C237.831 466.977 235.03 467.739 231.83 467.739ZM231.83 462.845C234.261 462.845 236.261 462.222 237.831 460.975C239.401 459.729 240.562 458.09 241.316 456.059C242.071 454.028 242.448 451.827 242.448 449.457C242.448 447.088 242.071 444.879 241.316 442.833C240.562 440.786 239.401 439.132 237.831 437.87C236.261 436.608 234.261 435.977 231.83 435.977C229.398 435.977 227.398 436.608 225.828 437.87C224.259 439.132 223.097 440.786 222.343 442.833C221.589 444.879 221.212 447.088 221.212 449.457C221.212 451.827 221.589 454.028 222.343 456.059C223.097 458.09 224.259 459.729 225.828 460.975C227.398 462.222 229.398 462.845 231.83 462.845ZM269.598 467.739C266.644 467.739 264.035 466.992 261.773 465.5C259.511 463.992 257.742 461.868 256.464 459.129C255.187 456.374 254.548 453.12 254.548 449.365C254.548 445.641 255.187 442.41 256.464 439.67C257.742 436.931 259.519 434.815 261.796 433.323C264.074 431.83 266.705 431.084 269.691 431.084C271.999 431.084 273.822 431.469 275.161 432.238C276.515 432.992 277.546 433.854 278.254 434.823C278.977 435.777 279.539 436.562 279.939 437.178H280.401V419.727H285.848V467H280.585V461.553H279.939C279.539 462.199 278.97 463.014 278.231 463.999C277.492 464.969 276.438 465.838 275.069 466.608C273.699 467.362 271.876 467.739 269.598 467.739ZM270.337 462.845C272.522 462.845 274.369 462.276 275.877 461.137C277.385 459.983 278.531 458.39 279.316 456.359C280.101 454.312 280.493 451.95 280.493 449.273C280.493 446.626 280.108 444.31 279.339 442.325C278.57 440.324 277.431 438.77 275.923 437.662C274.415 436.539 272.553 435.977 270.337 435.977C268.029 435.977 266.105 436.57 264.566 437.755C263.043 438.924 261.896 440.517 261.127 442.533C260.373 444.533 259.996 446.78 259.996 449.273C259.996 451.796 260.381 454.089 261.15 456.151C261.935 458.198 263.089 459.829 264.612 461.045C266.151 462.245 268.059 462.845 270.337 462.845ZM311.447 467.739C308.03 467.739 305.084 466.985 302.606 465.477C300.144 463.953 298.243 461.83 296.905 459.106C295.581 456.367 294.92 453.181 294.92 449.55C294.92 445.918 295.581 442.717 296.905 439.947C298.243 437.162 300.105 434.992 302.491 433.438C304.891 431.869 307.692 431.084 310.893 431.084C312.739 431.084 314.563 431.392 316.363 432.007C318.164 432.623 319.802 433.623 321.28 435.008C322.757 436.377 323.934 438.193 324.811 440.455C325.688 442.717 326.127 445.503 326.127 448.811V451.119H298.797V446.411H320.587C320.587 444.41 320.187 442.625 319.387 441.055C318.602 439.486 317.479 438.247 316.017 437.339C314.57 436.431 312.862 435.977 310.893 435.977C308.723 435.977 306.845 436.516 305.26 437.593C303.691 438.655 302.483 440.04 301.637 441.748C300.79 443.456 300.367 445.287 300.367 447.241V450.381C300.367 453.058 300.829 455.328 301.752 457.19C302.691 459.037 303.991 460.445 305.653 461.414C307.315 462.368 309.246 462.845 311.447 462.845C312.878 462.845 314.17 462.645 315.324 462.245C316.494 461.83 317.502 461.214 318.348 460.398C319.195 459.567 319.849 458.536 320.31 457.305L325.573 458.783C325.019 460.568 324.088 462.137 322.78 463.491C321.472 464.83 319.856 465.877 317.933 466.631C316.009 467.369 313.847 467.739 311.447 467.739ZM338.384 467.369C337.245 467.369 336.268 466.962 335.452 466.146C334.637 465.33 334.229 464.353 334.229 463.214C334.229 462.076 334.637 461.099 335.452 460.283C336.268 459.467 337.245 459.06 338.384 459.06C339.522 459.06 340.5 459.467 341.315 460.283C342.131 461.099 342.539 462.076 342.539 463.214C342.539 463.969 342.346 464.661 341.961 465.292C341.592 465.923 341.092 466.431 340.461 466.815C339.846 467.185 339.153 467.369 338.384 467.369ZM352.314 431.545H357.761V469.585C357.761 471.77 357.384 473.663 356.63 475.263C355.892 476.864 354.768 478.103 353.26 478.98C351.768 479.857 349.883 480.295 347.605 480.295C347.42 480.295 347.236 480.295 347.051 480.295C346.866 480.295 346.682 480.295 346.497 480.295V475.217C346.682 475.217 346.851 475.217 347.005 475.217C347.159 475.217 347.328 475.217 347.513 475.217C349.175 475.217 350.39 474.725 351.16 473.74C351.929 472.771 352.314 471.386 352.314 469.585V431.545ZM354.991 425.636C353.93 425.636 353.014 425.275 352.245 424.551C351.491 423.828 351.114 422.959 351.114 421.943C351.114 420.928 351.491 420.058 352.245 419.335C353.014 418.612 353.93 418.25 354.991 418.25C356.053 418.25 356.961 418.612 357.715 419.335C358.485 420.058 358.869 420.928 358.869 421.943C358.869 422.959 358.485 423.828 357.715 424.551C356.961 425.275 356.053 425.636 354.991 425.636ZM392.852 439.486L387.959 440.871C387.651 440.055 387.197 439.263 386.597 438.493C386.012 437.708 385.212 437.062 384.196 436.554C383.181 436.047 381.881 435.793 380.296 435.793C378.126 435.793 376.318 436.293 374.871 437.293C373.44 438.278 372.725 439.532 372.725 441.055C372.725 442.41 373.217 443.479 374.202 444.264C375.187 445.049 376.725 445.703 378.818 446.226L384.081 447.518C387.251 448.288 389.613 449.465 391.167 451.05C392.722 452.62 393.499 454.643 393.499 457.121C393.499 459.152 392.914 460.968 391.744 462.568C390.59 464.169 388.975 465.43 386.897 466.354C384.82 467.277 382.404 467.739 379.649 467.739C376.033 467.739 373.04 466.954 370.67 465.384C368.3 463.815 366.8 461.522 366.169 458.506L371.34 457.213C371.832 459.121 372.763 460.552 374.133 461.506C375.517 462.46 377.326 462.938 379.557 462.938C382.096 462.938 384.112 462.399 385.604 461.322C387.113 460.229 387.867 458.921 387.867 457.398C387.867 456.167 387.436 455.136 386.574 454.305C385.712 453.458 384.389 452.827 382.604 452.412L376.695 451.027C373.448 450.258 371.063 449.065 369.539 447.449C368.031 445.818 367.277 443.779 367.277 441.332C367.277 439.332 367.839 437.562 368.962 436.023C370.101 434.485 371.647 433.277 373.602 432.4C375.571 431.522 377.803 431.084 380.296 431.084C383.804 431.084 386.559 431.853 388.559 433.392C390.575 434.931 392.006 436.962 392.852 439.486ZM436.692 417.511L421.457 474.109H416.471L431.706 417.511H436.692ZM443.888 467V419.727H472.417V424.805H449.612V440.778H470.94V445.857H449.612V461.922H472.787V467H443.888ZM486.059 431.545L494.553 446.041L503.048 431.545H509.326L497.877 449.273L509.326 467H503.048L494.553 453.243L486.059 467H479.781L491.045 449.273L479.781 431.545H486.059ZM517.099 480.295V431.545H522.362V437.178H523.008C523.408 436.562 523.962 435.777 524.67 434.823C525.393 433.854 526.424 432.992 527.763 432.238C529.117 431.469 530.949 431.084 533.257 431.084C536.242 431.084 538.873 431.83 541.151 433.323C543.428 434.815 545.206 436.931 546.483 439.67C547.76 442.41 548.399 445.641 548.399 449.365C548.399 453.12 547.76 456.374 546.483 459.129C545.206 461.868 543.436 463.992 541.174 465.5C538.912 466.992 536.304 467.739 533.349 467.739C531.072 467.739 529.248 467.362 527.879 466.608C526.509 465.838 525.455 464.969 524.716 463.999C523.978 463.014 523.408 462.199 523.008 461.553H522.547V480.295H517.099ZM522.454 449.273C522.454 451.95 522.847 454.312 523.631 456.359C524.416 458.39 525.563 459.983 527.071 461.137C528.579 462.276 530.425 462.845 532.61 462.845C534.888 462.845 536.788 462.245 538.312 461.045C539.851 459.829 541.005 458.198 541.774 456.151C542.559 454.089 542.951 451.796 542.951 449.273C542.951 446.78 542.567 444.533 541.797 442.533C541.043 440.517 539.897 438.924 538.358 437.755C536.835 436.57 534.919 435.977 532.61 435.977C530.395 435.977 528.533 436.539 527.025 437.662C525.516 438.77 524.378 440.324 523.608 442.325C522.839 444.31 522.454 446.626 522.454 449.273ZM556.708 467V431.545H561.971V436.901H562.341C562.987 435.146 564.156 433.723 565.849 432.63C567.542 431.538 569.45 430.991 571.574 430.991C571.974 430.991 572.474 430.999 573.074 431.015C573.674 431.03 574.128 431.053 574.436 431.084V436.624C574.251 436.577 573.828 436.508 573.166 436.416C572.52 436.308 571.835 436.254 571.112 436.254C569.388 436.254 567.85 436.616 566.495 437.339C565.157 438.047 564.095 439.032 563.31 440.294C562.541 441.54 562.156 442.964 562.156 444.564V467H556.708ZM594.679 467.739C591.263 467.739 588.316 466.985 585.838 465.477C583.376 463.953 581.476 461.83 580.137 459.106C578.814 456.367 578.152 453.181 578.152 449.55C578.152 445.918 578.814 442.717 580.137 439.947C581.476 437.162 583.338 434.992 585.723 433.438C588.124 431.869 590.924 431.084 594.125 431.084C595.972 431.084 597.795 431.392 599.596 432.007C601.396 432.623 603.035 433.623 604.512 435.008C605.989 436.377 607.167 438.193 608.044 440.455C608.921 442.717 609.359 445.503 609.359 448.811V451.119H582.03V446.411H603.82C603.82 444.41 603.42 442.625 602.619 441.055C601.835 439.486 600.711 438.247 599.249 437.339C597.803 436.431 596.095 435.977 594.125 435.977C591.955 435.977 590.078 436.516 588.493 437.593C586.923 438.655 585.715 440.04 584.869 441.748C584.023 443.456 583.599 445.287 583.599 447.241V450.381C583.599 453.058 584.061 455.328 584.984 457.19C585.923 459.037 587.223 460.445 588.885 461.414C590.547 462.368 592.478 462.845 594.679 462.845C596.11 462.845 597.403 462.645 598.557 462.245C599.726 461.83 600.734 461.214 601.581 460.398C602.427 459.567 603.081 458.536 603.543 457.305L608.805 458.783C608.251 460.568 607.32 462.137 606.012 463.491C604.704 464.83 603.089 465.877 601.165 466.631C599.242 467.369 597.08 467.739 594.679 467.739ZM642.76 439.486L637.866 440.871C637.558 440.055 637.104 439.263 636.504 438.493C635.92 437.708 635.119 437.062 634.104 436.554C633.088 436.047 631.788 435.793 630.203 435.793C628.033 435.793 626.225 436.293 624.778 437.293C623.347 438.278 622.632 439.532 622.632 441.055C622.632 442.41 623.124 443.479 624.109 444.264C625.094 445.049 626.633 445.703 628.725 446.226L633.988 447.518C637.158 448.288 639.52 449.465 641.075 451.05C642.629 452.62 643.406 454.643 643.406 457.121C643.406 459.152 642.821 460.968 641.652 462.568C640.498 464.169 638.882 465.43 636.804 466.354C634.727 467.277 632.311 467.739 629.556 467.739C625.94 467.739 622.947 466.954 620.577 465.384C618.208 463.815 616.707 461.522 616.076 458.506L621.247 457.213C621.739 459.121 622.67 460.552 624.04 461.506C625.425 462.46 627.233 462.938 629.464 462.938C632.003 462.938 634.019 462.399 635.512 461.322C637.02 460.229 637.774 458.921 637.774 457.398C637.774 456.167 637.343 455.136 636.481 454.305C635.619 453.458 634.296 452.827 632.511 452.412L626.602 451.027C623.355 450.258 620.97 449.065 619.446 447.449C617.938 445.818 617.184 443.779 617.184 441.332C617.184 439.332 617.746 437.562 618.869 436.023C620.008 434.485 621.555 433.277 623.509 432.4C625.479 431.522 627.71 431.084 630.203 431.084C633.711 431.084 636.466 431.853 638.466 433.392C640.482 434.931 641.913 436.962 642.76 439.486ZM676.72 439.486L671.826 440.871C671.518 440.055 671.064 439.263 670.464 438.493C669.879 437.708 669.079 437.062 668.064 436.554C667.048 436.047 665.748 435.793 664.163 435.793C661.993 435.793 660.185 436.293 658.738 437.293C657.307 438.278 656.592 439.532 656.592 441.055C656.592 442.41 657.084 443.479 658.069 444.264C659.054 445.049 660.593 445.703 662.685 446.226L667.948 447.518C671.118 448.288 673.48 449.465 675.035 451.05C676.589 452.62 677.366 454.643 677.366 457.121C677.366 459.152 676.781 460.968 675.612 462.568C674.457 464.169 672.842 465.43 670.764 466.354C668.687 467.277 666.271 467.739 663.516 467.739C659.9 467.739 656.907 466.954 654.537 465.384C652.168 463.815 650.667 461.522 650.036 458.506L655.207 457.213C655.699 459.121 656.63 460.552 658 461.506C659.385 462.46 661.193 462.938 663.424 462.938C665.963 462.938 667.979 462.399 669.472 461.322C670.98 460.229 671.734 458.921 671.734 457.398C671.734 456.167 671.303 455.136 670.441 454.305C669.579 453.458 668.256 452.827 666.471 452.412L660.562 451.027C657.315 450.258 654.93 449.065 653.406 447.449C651.898 445.818 651.144 443.779 651.144 441.332C651.144 439.332 651.706 437.562 652.829 436.023C653.968 434.485 655.515 433.277 657.469 432.4C659.439 431.522 661.67 431.084 664.163 431.084C667.671 431.084 670.426 431.853 672.426 433.392C674.442 434.931 675.873 436.962 676.72 439.486ZM705.786 447.057C705.786 441.24 706.54 435.893 708.048 431.015C709.572 426.121 711.741 421.62 714.557 417.511H719.358C718.251 419.035 717.212 420.912 716.242 423.143C715.288 425.359 714.45 427.798 713.726 430.461C713.003 433.107 712.434 435.846 712.018 438.678C711.618 441.509 711.418 444.302 711.418 447.057C711.418 450.719 711.772 454.435 712.48 458.206C713.188 461.976 714.142 465.477 715.342 468.708C716.542 471.94 717.881 474.571 719.358 476.602H714.557C711.741 472.494 709.572 468 708.048 463.122C706.54 458.229 705.786 452.874 705.786 447.057ZM737.83 467.831C735.583 467.831 733.545 467.408 731.713 466.561C729.882 465.7 728.428 464.461 727.351 462.845C726.274 461.214 725.735 459.244 725.735 456.936C725.735 454.905 726.135 453.258 726.935 451.996C727.735 450.719 728.805 449.719 730.144 448.996C731.483 448.272 732.96 447.734 734.576 447.38C736.207 447.011 737.846 446.718 739.492 446.503C741.646 446.226 743.393 446.018 744.732 445.88C746.086 445.726 747.071 445.472 747.686 445.118C748.317 444.764 748.633 444.148 748.633 443.271V443.087C748.633 440.809 748.009 439.04 746.763 437.778C745.532 436.516 743.662 435.885 741.154 435.885C738.553 435.885 736.514 436.454 735.037 437.593C733.56 438.732 732.521 439.947 731.921 441.24L726.751 439.393C727.674 437.239 728.905 435.562 730.444 434.362C731.998 433.146 733.691 432.299 735.522 431.822C737.369 431.33 739.184 431.084 740.969 431.084C742.108 431.084 743.416 431.222 744.893 431.499C746.386 431.761 747.825 432.307 749.21 433.138C750.61 433.969 751.772 435.223 752.695 436.901C753.619 438.578 754.08 440.825 754.08 443.641V467H748.633V462.199H748.356C747.986 462.968 747.371 463.792 746.509 464.669C745.647 465.546 744.501 466.292 743.07 466.908C741.639 467.523 739.892 467.831 737.83 467.831ZM738.661 462.938C740.815 462.938 742.631 462.514 744.109 461.668C745.601 460.822 746.725 459.729 747.479 458.39C748.248 457.051 748.633 455.643 748.633 454.166V449.18C748.402 449.457 747.894 449.711 747.109 449.942C746.34 450.158 745.447 450.35 744.432 450.519C743.431 450.673 742.454 450.812 741.5 450.935C740.562 451.042 739.8 451.135 739.215 451.212C737.799 451.396 736.476 451.696 735.245 452.112C734.029 452.512 733.044 453.12 732.29 453.935C731.552 454.736 731.182 455.828 731.182 457.213C731.182 459.106 731.883 460.537 733.283 461.506C734.699 462.46 736.491 462.938 738.661 462.938ZM789.137 439.486L784.243 440.871C783.935 440.055 783.481 439.263 782.881 438.493C782.296 437.708 781.496 437.062 780.481 436.554C779.465 436.047 778.165 435.793 776.58 435.793C774.41 435.793 772.602 436.293 771.155 437.293C769.724 438.278 769.009 439.532 769.009 441.055C769.009 442.41 769.501 443.479 770.486 444.264C771.471 445.049 773.01 445.703 775.102 446.226L780.365 447.518C783.535 448.288 785.897 449.465 787.452 451.05C789.006 452.62 789.783 454.643 789.783 457.121C789.783 459.152 789.198 460.968 788.029 462.568C786.874 464.169 785.259 465.43 783.181 466.354C781.104 467.277 778.688 467.739 775.933 467.739C772.317 467.739 769.324 466.954 766.954 465.384C764.585 463.815 763.084 461.522 762.453 458.506L767.624 457.213C768.116 459.121 769.047 460.552 770.417 461.506C771.802 462.46 773.61 462.938 775.841 462.938C778.38 462.938 780.396 462.399 781.889 461.322C783.397 460.229 784.151 458.921 784.151 457.398C784.151 456.167 783.72 455.136 782.858 454.305C781.996 453.458 780.673 452.827 778.888 452.412L772.979 451.027C769.732 450.258 767.347 449.065 765.823 447.449C764.315 445.818 763.561 443.779 763.561 441.332C763.561 439.332 764.123 437.562 765.246 436.023C766.385 434.485 767.932 433.277 769.886 432.4C771.856 431.522 774.087 431.084 776.58 431.084C780.088 431.084 782.843 431.853 784.843 433.392C786.859 434.931 788.29 436.962 789.137 439.486ZM816.264 467V431.545H821.712V467H816.264ZM819.034 425.636C817.972 425.636 817.057 425.275 816.287 424.551C815.533 423.828 815.156 422.959 815.156 421.943C815.156 420.928 815.533 420.058 816.287 419.335C817.057 418.612 817.972 418.25 819.034 418.25C820.096 418.25 821.004 418.612 821.758 419.335C822.527 420.058 822.912 420.928 822.912 421.943C822.912 422.959 822.527 423.828 821.758 424.551C821.004 425.275 820.096 425.636 819.034 425.636ZM847.108 431.545V436.162H828.734V431.545H847.108ZM834.089 423.051H839.537V456.844C839.537 458.383 839.76 459.537 840.206 460.306C840.668 461.06 841.253 461.568 841.961 461.83C842.684 462.076 843.446 462.199 844.246 462.199C844.846 462.199 845.338 462.168 845.723 462.107C846.108 462.03 846.415 461.968 846.646 461.922L847.754 466.815C847.385 466.954 846.869 467.092 846.208 467.231C845.546 467.385 844.707 467.462 843.692 467.462C842.153 467.462 840.645 467.131 839.168 466.469C837.706 465.807 836.49 464.799 835.521 463.445C834.567 462.091 834.089 460.383 834.089 458.321V423.051ZM887.895 481.034C885.263 481.034 883.001 480.696 881.108 480.018C879.216 479.357 877.638 478.48 876.376 477.387C875.13 476.31 874.137 475.156 873.399 473.925L877.738 470.878C878.231 471.524 878.854 472.263 879.608 473.094C880.362 473.94 881.393 474.671 882.701 475.287C884.024 475.917 885.756 476.233 887.895 476.233C890.757 476.233 893.119 475.54 894.981 474.156C896.843 472.771 897.774 470.601 897.774 467.646V460.445H897.312C896.912 461.091 896.343 461.891 895.604 462.845C894.881 463.784 893.834 464.623 892.465 465.361C891.111 466.084 889.279 466.446 886.971 466.446C884.109 466.446 881.539 465.769 879.262 464.415C877 463.061 875.207 461.091 873.884 458.506C872.576 455.92 871.922 452.781 871.922 449.088C871.922 445.456 872.56 442.294 873.837 439.601C875.115 436.893 876.892 434.8 879.169 433.323C881.447 431.83 884.078 431.084 887.064 431.084C889.372 431.084 891.203 431.469 892.557 432.238C893.927 432.992 894.973 433.854 895.696 434.823C896.435 435.777 897.004 436.562 897.404 437.178H897.958V431.545H903.221V468.016C903.221 471.062 902.529 473.54 901.144 475.448C899.774 477.372 897.928 478.78 895.604 479.672C893.296 480.58 890.726 481.034 887.895 481.034ZM887.71 461.553C889.895 461.553 891.742 461.052 893.25 460.052C894.758 459.052 895.904 457.613 896.689 455.736C897.474 453.858 897.866 451.612 897.866 448.996C897.866 446.441 897.481 444.187 896.712 442.233C895.943 440.278 894.804 438.747 893.296 437.639C891.788 436.531 889.926 435.977 887.71 435.977C885.402 435.977 883.478 436.562 881.939 437.732C880.416 438.901 879.269 440.471 878.5 442.44C877.746 444.41 877.369 446.595 877.369 448.996C877.369 451.458 877.754 453.635 878.523 455.528C879.308 457.405 880.462 458.883 881.985 459.96C883.524 461.022 885.432 461.553 887.71 461.553ZM913.193 467V431.545H918.456V436.901H918.825C919.471 435.146 920.641 433.723 922.333 432.63C924.026 431.538 925.934 430.991 928.058 430.991C928.458 430.991 928.958 430.999 929.558 431.015C930.158 431.03 930.612 431.053 930.92 431.084V436.624C930.735 436.577 930.312 436.508 929.651 436.416C929.004 436.308 928.319 436.254 927.596 436.254C925.873 436.254 924.334 436.616 922.98 437.339C921.641 438.047 920.579 439.032 919.794 440.294C919.025 441.54 918.64 442.964 918.64 444.564V467H913.193ZM950.702 467.739C947.501 467.739 944.693 466.977 942.277 465.453C939.876 463.93 937.999 461.799 936.645 459.06C935.306 456.321 934.636 453.12 934.636 449.457C934.636 445.764 935.306 442.54 936.645 439.786C937.999 437.031 939.876 434.892 942.277 433.369C944.693 431.846 947.501 431.084 950.702 431.084C953.902 431.084 956.703 431.846 959.104 433.369C961.52 434.892 963.397 437.031 964.736 439.786C966.09 442.54 966.767 445.764 966.767 449.457C966.767 453.12 966.09 456.321 964.736 459.06C963.397 461.799 961.52 463.93 959.104 465.453C956.703 466.977 953.902 467.739 950.702 467.739ZM950.702 462.845C953.133 462.845 955.134 462.222 956.703 460.975C958.273 459.729 959.435 458.09 960.189 456.059C960.943 454.028 961.32 451.827 961.32 449.457C961.32 447.088 960.943 444.879 960.189 442.833C959.435 440.786 958.273 439.132 956.703 437.87C955.134 436.608 953.133 435.977 950.702 435.977C948.27 435.977 946.27 436.608 944.7 437.87C943.131 439.132 941.969 440.786 941.215 442.833C940.461 444.879 940.084 447.088 940.084 449.457C940.084 451.827 940.461 454.028 941.215 456.059C941.969 458.09 943.131 459.729 944.7 460.975C946.27 462.222 948.27 462.845 950.702 462.845ZM981.909 467L971.107 431.545H976.831L984.494 458.69H984.864L992.435 431.545H998.251L1005.73 458.598H1006.1L1013.76 431.545H1019.49L1008.68 467H1003.33L995.574 439.763H995.02L987.264 467H981.909ZM1051.8 439.486L1046.91 440.871C1046.6 440.055 1046.15 439.263 1045.55 438.493C1044.96 437.708 1044.16 437.062 1043.15 436.554C1042.13 436.047 1040.83 435.793 1039.25 435.793C1037.08 435.793 1035.27 436.293 1033.82 437.293C1032.39 438.278 1031.67 439.532 1031.67 441.055C1031.67 442.41 1032.17 443.479 1033.15 444.264C1034.14 445.049 1035.68 445.703 1037.77 446.226L1043.03 447.518C1046.2 448.288 1048.56 449.465 1050.12 451.05C1051.67 452.62 1052.45 454.643 1052.45 457.121C1052.45 459.152 1051.86 460.968 1050.69 462.568C1049.54 464.169 1047.92 465.43 1045.85 466.354C1043.77 467.277 1041.35 467.739 1038.6 467.739C1034.98 467.739 1031.99 466.954 1029.62 465.384C1027.25 463.815 1025.75 461.522 1025.12 458.506L1030.29 457.213C1030.78 459.121 1031.71 460.552 1033.08 461.506C1034.47 462.46 1036.28 462.938 1038.51 462.938C1041.05 462.938 1043.06 462.399 1044.55 461.322C1046.06 460.229 1046.82 458.921 1046.82 457.398C1046.82 456.167 1046.39 455.136 1045.52 454.305C1044.66 453.458 1043.34 452.827 1041.55 452.412L1035.64 451.027C1032.4 450.258 1030.01 449.065 1028.49 447.449C1026.98 445.818 1026.23 443.779 1026.23 441.332C1026.23 439.332 1026.79 437.562 1027.91 436.023C1029.05 434.485 1030.6 433.277 1032.55 432.4C1034.52 431.522 1036.75 431.084 1039.25 431.084C1042.75 431.084 1045.51 431.853 1047.51 433.392C1049.53 434.931 1050.96 436.962 1051.8 439.486ZM1079.67 467V419.727H1085.12V437.178H1085.58C1085.98 436.562 1086.53 435.777 1087.24 434.823C1087.96 433.854 1088.99 432.992 1090.33 432.238C1091.69 431.469 1093.52 431.084 1095.83 431.084C1098.81 431.084 1101.44 431.83 1103.72 433.323C1106 434.815 1107.78 436.931 1109.05 439.67C1110.33 442.41 1110.97 445.641 1110.97 449.365C1110.97 453.12 1110.33 456.374 1109.05 459.129C1107.78 461.868 1106.01 463.992 1103.74 465.5C1101.48 466.992 1098.87 467.739 1095.92 467.739C1093.64 467.739 1091.82 467.362 1090.45 466.608C1089.08 465.838 1088.02 464.969 1087.29 463.999C1086.55 463.014 1085.98 462.199 1085.58 461.553H1084.93V467H1079.67ZM1085.02 449.273C1085.02 451.95 1085.42 454.312 1086.2 456.359C1086.99 458.39 1088.13 459.983 1089.64 461.137C1091.15 462.276 1092.99 462.845 1095.18 462.845C1097.46 462.845 1099.36 462.245 1100.88 461.045C1102.42 459.829 1103.57 458.198 1104.34 456.151C1105.13 454.089 1105.52 451.796 1105.52 449.273C1105.52 446.78 1105.14 444.533 1104.37 442.533C1103.61 440.517 1102.47 438.924 1100.93 437.755C1099.4 436.57 1097.49 435.977 1095.18 435.977C1092.96 435.977 1091.1 436.539 1089.59 437.662C1088.09 438.77 1086.95 440.324 1086.18 442.325C1085.41 444.31 1085.02 446.626 1085.02 449.273ZM1129.73 467.831C1127.49 467.831 1125.45 467.408 1123.62 466.561C1121.79 465.7 1120.33 464.461 1119.26 462.845C1118.18 461.214 1117.64 459.244 1117.64 456.936C1117.64 454.905 1118.04 453.258 1118.84 451.996C1119.64 450.719 1120.71 449.719 1122.05 448.996C1123.39 448.272 1124.86 447.734 1126.48 447.38C1128.11 447.011 1129.75 446.718 1131.4 446.503C1133.55 446.226 1135.3 446.018 1136.64 445.88C1137.99 445.726 1138.98 445.472 1139.59 445.118C1140.22 444.764 1140.54 444.148 1140.54 443.271V443.087C1140.54 440.809 1139.91 439.04 1138.67 437.778C1137.44 436.516 1135.57 435.885 1133.06 435.885C1130.46 435.885 1128.42 436.454 1126.94 437.593C1125.46 438.732 1124.43 439.947 1123.83 441.24L1118.65 439.393C1119.58 437.239 1120.81 435.562 1122.35 434.362C1123.9 433.146 1125.6 432.299 1127.43 431.822C1129.27 431.33 1131.09 431.084 1132.87 431.084C1134.01 431.084 1135.32 431.222 1136.8 431.499C1138.29 431.761 1139.73 432.307 1141.11 433.138C1142.51 433.969 1143.68 435.223 1144.6 436.901C1145.52 438.578 1145.98 440.825 1145.98 443.641V467H1140.54V462.199H1140.26C1139.89 462.968 1139.28 463.792 1138.41 464.669C1137.55 465.546 1136.41 466.292 1134.97 466.908C1133.54 467.523 1131.8 467.831 1129.73 467.831ZM1130.57 462.938C1132.72 462.938 1134.54 462.514 1136.01 461.668C1137.51 460.822 1138.63 459.729 1139.38 458.39C1140.15 457.051 1140.54 455.643 1140.54 454.166V449.18C1140.31 449.457 1139.8 449.711 1139.01 449.942C1138.24 450.158 1137.35 450.35 1136.34 450.519C1135.34 450.673 1134.36 450.812 1133.4 450.935C1132.47 451.042 1131.7 451.135 1131.12 451.212C1129.7 451.396 1128.38 451.696 1127.15 452.112C1125.93 452.512 1124.95 453.12 1124.19 453.935C1123.46 454.736 1123.09 455.828 1123.09 457.213C1123.09 459.106 1123.79 460.537 1125.19 461.506C1126.6 462.46 1128.4 462.938 1130.57 462.938ZM1170.33 467.739C1167.01 467.739 1164.14 466.954 1161.74 465.384C1159.34 463.815 1157.5 461.653 1156.2 458.898C1154.91 456.144 1154.27 452.997 1154.27 449.457C1154.27 445.857 1154.93 442.679 1156.25 439.924C1157.59 437.154 1159.45 434.992 1161.84 433.438C1164.24 431.869 1167.04 431.084 1170.24 431.084C1172.73 431.084 1174.98 431.545 1176.98 432.469C1178.98 433.392 1180.62 434.685 1181.89 436.347C1183.17 438.009 1183.96 439.947 1184.27 442.163H1178.82C1178.41 440.548 1177.49 439.116 1176.06 437.87C1174.64 436.608 1172.73 435.977 1170.33 435.977C1168.21 435.977 1166.35 436.531 1164.74 437.639C1163.16 438.732 1161.92 440.278 1161.03 442.279C1160.15 444.264 1159.71 446.595 1159.71 449.273C1159.71 452.012 1160.14 454.397 1161.01 456.428C1161.88 458.46 1163.11 460.037 1164.7 461.16C1166.3 462.283 1168.18 462.845 1170.33 462.845C1171.75 462.845 1173.03 462.599 1174.19 462.107C1175.34 461.614 1176.32 460.906 1177.12 459.983C1177.92 459.06 1178.49 457.952 1178.82 456.659H1184.27C1183.96 458.752 1183.2 460.637 1181.99 462.314C1180.79 463.976 1179.19 465.3 1177.21 466.284C1175.24 467.254 1172.95 467.739 1170.33 467.739ZM1197.31 454.074L1197.22 447.334H1198.33L1213.84 431.545H1220.58L1204.05 448.257H1203.59L1197.31 454.074ZM1192.24 467V419.727H1197.68V467H1192.24ZM1214.76 467L1200.91 449.457L1204.79 445.672L1221.69 467H1214.76ZM1244.92 444.195V449.273H1224.24V444.195H1244.92ZM1269.37 467.739C1265.96 467.739 1263.01 466.985 1260.53 465.477C1258.07 463.953 1256.17 461.83 1254.83 459.106C1253.51 456.367 1252.84 453.181 1252.84 449.55C1252.84 445.918 1253.51 442.717 1254.83 439.947C1256.17 437.162 1258.03 434.992 1260.42 433.438C1262.82 431.869 1265.62 431.084 1268.82 431.084C1270.66 431.084 1272.49 431.392 1274.29 432.007C1276.09 432.623 1277.73 433.623 1279.2 435.008C1280.68 436.377 1281.86 438.193 1282.74 440.455C1283.61 442.717 1284.05 445.503 1284.05 448.811V451.119H1256.72V446.411H1278.51C1278.51 444.41 1278.11 442.625 1277.31 441.055C1276.53 439.486 1275.4 438.247 1273.94 437.339C1272.5 436.431 1270.79 435.977 1268.82 435.977C1266.65 435.977 1264.77 436.516 1263.19 437.593C1261.62 438.655 1260.41 440.04 1259.56 441.748C1258.71 443.456 1258.29 445.287 1258.29 447.241V450.381C1258.29 453.058 1258.75 455.328 1259.68 457.19C1260.62 459.037 1261.92 460.445 1263.58 461.414C1265.24 462.368 1267.17 462.845 1269.37 462.845C1270.8 462.845 1272.1 462.645 1273.25 462.245C1274.42 461.83 1275.43 461.214 1276.27 460.398C1277.12 459.567 1277.77 458.536 1278.23 457.305L1283.5 458.783C1282.94 460.568 1282.01 462.137 1280.7 463.491C1279.4 464.83 1277.78 465.877 1275.86 466.631C1273.93 467.369 1271.77 467.739 1269.37 467.739ZM1297.79 445.672V467H1292.34V431.545H1297.6V437.085H1298.06C1298.89 435.285 1300.16 433.838 1301.85 432.746C1303.54 431.638 1305.73 431.084 1308.4 431.084C1310.8 431.084 1312.9 431.576 1314.71 432.561C1316.51 433.531 1317.91 435.008 1318.91 436.993C1319.91 438.963 1320.41 441.455 1320.41 444.472V467H1314.96V444.841C1314.96 442.056 1314.24 439.886 1312.79 438.332C1311.34 436.762 1309.36 435.977 1306.83 435.977C1305.1 435.977 1303.54 436.354 1302.17 437.108C1300.82 437.862 1299.75 438.963 1298.96 440.409C1298.18 441.856 1297.79 443.61 1297.79 445.672ZM1343.75 467.739C1340.79 467.739 1338.19 466.992 1335.92 465.5C1333.66 463.992 1331.89 461.868 1330.61 459.129C1329.34 456.374 1328.7 453.12 1328.7 449.365C1328.7 445.641 1329.34 442.41 1330.61 439.67C1331.89 436.931 1333.67 434.815 1335.95 433.323C1338.22 431.83 1340.86 431.084 1343.84 431.084C1346.15 431.084 1347.97 431.469 1349.31 432.238C1350.67 432.992 1351.7 433.854 1352.4 434.823C1353.13 435.777 1353.69 436.562 1354.09 437.178H1354.55V419.727H1360V467H1354.74V461.553H1354.09C1353.69 462.199 1353.12 463.014 1352.38 463.999C1351.64 464.969 1350.59 465.838 1349.22 466.608C1347.85 467.362 1346.03 467.739 1343.75 467.739ZM1344.49 462.845C1346.67 462.845 1348.52 462.276 1350.03 461.137C1351.54 459.983 1352.68 458.39 1353.47 456.359C1354.25 454.312 1354.64 451.95 1354.64 449.273C1354.64 446.626 1354.26 444.31 1353.49 442.325C1352.72 440.324 1351.58 438.77 1350.07 437.662C1348.57 436.539 1346.7 435.977 1344.49 435.977C1342.18 435.977 1340.26 436.57 1338.72 437.755C1337.19 438.924 1336.05 440.517 1335.28 442.533C1334.52 444.533 1334.15 446.78 1334.15 449.273C1334.15 451.796 1334.53 454.089 1335.3 456.151C1336.09 458.198 1337.24 459.829 1338.76 461.045C1340.3 462.245 1342.21 462.845 1344.49 462.845ZM1404.43 431.545V436.162H1386.06V431.545H1404.43ZM1391.41 423.051H1396.86V456.844C1396.86 458.383 1397.08 459.537 1397.53 460.306C1397.99 461.06 1398.58 461.568 1399.28 461.83C1400.01 462.076 1400.77 462.199 1401.57 462.199C1402.17 462.199 1402.66 462.168 1403.05 462.107C1403.43 462.03 1403.74 461.968 1403.97 461.922L1405.08 466.815C1404.71 466.954 1404.19 467.092 1403.53 467.231C1402.87 467.385 1402.03 467.462 1401.02 467.462C1399.48 467.462 1397.97 467.131 1396.49 466.469C1395.03 465.807 1393.81 464.799 1392.84 463.445C1391.89 462.091 1391.41 460.383 1391.41 458.321V423.051ZM1427.11 467.739C1423.69 467.739 1420.75 466.985 1418.27 465.477C1415.81 463.953 1413.91 461.83 1412.57 459.106C1411.25 456.367 1410.58 453.181 1410.58 449.55C1410.58 445.918 1411.25 442.717 1412.57 439.947C1413.91 437.162 1415.77 434.992 1418.15 433.438C1420.56 431.869 1423.36 431.084 1426.56 431.084C1428.4 431.084 1430.23 431.392 1432.03 432.007C1433.83 432.623 1435.47 433.623 1436.94 435.008C1438.42 436.377 1439.6 438.193 1440.48 440.455C1441.35 442.717 1441.79 445.503 1441.79 448.811V451.119H1414.46V446.411H1436.25C1436.25 444.41 1435.85 442.625 1435.05 441.055C1434.27 439.486 1433.14 438.247 1431.68 437.339C1430.23 436.431 1428.53 435.977 1426.56 435.977C1424.39 435.977 1422.51 436.516 1420.92 437.593C1419.35 438.655 1418.15 440.04 1417.3 441.748C1416.45 443.456 1416.03 445.287 1416.03 447.241V450.381C1416.03 453.058 1416.49 455.328 1417.42 457.19C1418.35 459.037 1419.66 460.445 1421.32 461.414C1422.98 462.368 1424.91 462.845 1427.11 462.845C1428.54 462.845 1429.83 462.645 1430.99 462.245C1432.16 461.83 1433.17 461.214 1434.01 460.398C1434.86 459.567 1435.51 458.536 1435.97 457.305L1441.24 458.783C1440.68 460.568 1439.75 462.137 1438.44 463.491C1437.14 464.83 1435.52 465.877 1433.6 466.631C1431.67 467.369 1429.51 467.739 1427.11 467.739ZM1464.48 467.739C1461.16 467.739 1458.29 466.954 1455.89 465.384C1453.49 463.815 1451.65 461.653 1450.35 458.898C1449.06 456.144 1448.42 452.997 1448.42 449.457C1448.42 445.857 1449.08 442.679 1450.4 439.924C1451.74 437.154 1453.6 434.992 1455.99 433.438C1458.39 431.869 1461.19 431.084 1464.39 431.084C1466.88 431.084 1469.13 431.545 1471.13 432.469C1473.13 433.392 1474.77 434.685 1476.05 436.347C1477.32 438.009 1478.11 439.947 1478.42 442.163H1472.98C1472.56 440.548 1471.64 439.116 1470.21 437.87C1468.79 436.608 1466.88 435.977 1464.48 435.977C1462.36 435.977 1460.5 436.531 1458.9 437.639C1457.31 438.732 1456.07 440.278 1455.18 442.279C1454.3 444.264 1453.86 446.595 1453.86 449.273C1453.86 452.012 1454.29 454.397 1455.16 456.428C1456.03 458.46 1457.26 460.037 1458.85 461.16C1460.45 462.283 1462.33 462.845 1464.48 462.845C1465.9 462.845 1467.18 462.599 1468.34 462.107C1469.49 461.614 1470.47 460.906 1471.27 459.983C1472.07 459.06 1472.64 457.952 1472.98 456.659H1478.42C1478.11 458.752 1477.35 460.637 1476.14 462.314C1474.94 463.976 1473.34 465.3 1471.36 466.284C1469.39 467.254 1467.1 467.739 1464.48 467.739ZM1491.83 445.672V467H1486.39V419.727H1491.83V437.085H1492.3C1493.13 435.254 1494.37 433.8 1496.03 432.723C1497.71 431.63 1499.94 431.084 1502.73 431.084C1505.14 431.084 1507.26 431.569 1509.08 432.538C1510.89 433.492 1512.3 434.962 1513.3 436.947C1514.32 438.916 1514.82 441.425 1514.82 444.472V467H1509.38V444.841C1509.38 442.025 1508.65 439.847 1507.18 438.309C1505.74 436.754 1503.73 435.977 1501.16 435.977C1499.37 435.977 1497.77 436.354 1496.36 437.108C1494.96 437.862 1493.85 438.963 1493.03 440.409C1492.23 441.856 1491.83 443.61 1491.83 445.672ZM1530.24 445.672V467H1524.79V431.545H1530.05V437.085H1530.51C1531.34 435.285 1532.61 433.838 1534.3 432.746C1535.99 431.638 1538.18 431.084 1540.85 431.084C1543.26 431.084 1545.36 431.576 1547.16 432.561C1548.96 433.531 1550.36 435.008 1551.36 436.993C1552.36 438.963 1552.86 441.455 1552.86 444.472V467H1547.41V444.841C1547.41 442.056 1546.69 439.886 1545.24 438.332C1543.79 436.762 1541.81 435.977 1539.29 435.977C1537.55 435.977 1535.99 436.354 1534.62 437.108C1533.27 437.862 1532.2 438.963 1531.41 440.409C1530.63 441.856 1530.24 443.61 1530.24 445.672ZM1577.22 467.739C1574.01 467.739 1571.21 466.977 1568.79 465.453C1566.39 463.93 1564.51 461.799 1563.16 459.06C1561.82 456.321 1561.15 453.12 1561.15 449.457C1561.15 445.764 1561.82 442.54 1563.16 439.786C1564.51 437.031 1566.39 434.892 1568.79 433.369C1571.21 431.846 1574.01 431.084 1577.22 431.084C1580.42 431.084 1583.22 431.846 1585.62 433.369C1588.03 434.892 1589.91 437.031 1591.25 439.786C1592.6 442.54 1593.28 445.764 1593.28 449.457C1593.28 453.12 1592.6 456.321 1591.25 459.06C1589.91 461.799 1588.03 463.93 1585.62 465.453C1583.22 466.977 1580.42 467.739 1577.22 467.739ZM1577.22 462.845C1579.65 462.845 1581.65 462.222 1583.22 460.975C1584.79 459.729 1585.95 458.09 1586.7 456.059C1587.46 454.028 1587.83 451.827 1587.83 449.457C1587.83 447.088 1587.46 444.879 1586.7 442.833C1585.95 440.786 1584.79 439.132 1583.22 437.87C1581.65 436.608 1579.65 435.977 1577.22 435.977C1574.78 435.977 1572.78 436.608 1571.21 437.87C1569.64 439.132 1568.48 440.786 1567.73 442.833C1566.97 444.879 1566.6 447.088 1566.6 449.457C1566.6 451.827 1566.97 454.028 1567.73 456.059C1568.48 458.09 1569.64 459.729 1571.21 460.975C1572.78 462.222 1574.78 462.845 1577.22 462.845ZM1607.04 419.727V467H1601.6V419.727H1607.04ZM1631.42 467.739C1628.22 467.739 1625.42 466.977 1623 465.453C1620.6 463.93 1618.72 461.799 1617.37 459.06C1616.03 456.321 1615.36 453.12 1615.36 449.457C1615.36 445.764 1616.03 442.54 1617.37 439.786C1618.72 437.031 1620.6 434.892 1623 433.369C1625.42 431.846 1628.22 431.084 1631.42 431.084C1634.63 431.084 1637.43 431.846 1639.83 433.369C1642.24 434.892 1644.12 437.031 1645.46 439.786C1646.81 442.54 1647.49 445.764 1647.49 449.457C1647.49 453.12 1646.81 456.321 1645.46 459.06C1644.12 461.799 1642.24 463.93 1639.83 465.453C1637.43 466.977 1634.63 467.739 1631.42 467.739ZM1631.42 462.845C1633.86 462.845 1635.86 462.222 1637.43 460.975C1639 459.729 1640.16 458.09 1640.91 456.059C1641.67 454.028 1642.04 451.827 1642.04 449.457C1642.04 447.088 1641.67 444.879 1640.91 442.833C1640.16 440.786 1639 439.132 1637.43 437.87C1635.86 436.608 1633.86 435.977 1631.42 435.977C1628.99 435.977 1626.99 436.608 1625.42 437.87C1623.85 439.132 1622.69 440.786 1621.94 442.833C1621.18 444.879 1620.81 447.088 1620.81 449.457C1620.81 451.827 1621.18 454.028 1621.94 456.059C1622.69 458.09 1623.85 459.729 1625.42 460.975C1626.99 462.222 1628.99 462.845 1631.42 462.845ZM1670.12 481.034C1667.48 481.034 1665.22 480.696 1663.33 480.018C1661.44 479.357 1659.86 478.48 1658.6 477.387C1657.35 476.31 1656.36 475.156 1655.62 473.925L1659.96 470.878C1660.45 471.524 1661.08 472.263 1661.83 473.094C1662.58 473.94 1663.61 474.671 1664.92 475.287C1666.25 475.917 1667.98 476.233 1670.12 476.233C1672.98 476.233 1675.34 475.54 1677.2 474.156C1679.06 472.771 1680 470.601 1680 467.646V460.445H1679.53C1679.13 461.091 1678.56 461.891 1677.83 462.845C1677.1 463.784 1676.06 464.623 1674.69 465.361C1673.33 466.084 1671.5 466.446 1669.19 466.446C1666.33 466.446 1663.76 465.769 1661.48 464.415C1659.22 463.061 1657.43 461.091 1656.11 458.506C1654.8 455.92 1654.14 452.781 1654.14 449.088C1654.14 445.456 1654.78 442.294 1656.06 439.601C1657.34 436.893 1659.11 434.8 1661.39 433.323C1663.67 431.83 1666.3 431.084 1669.29 431.084C1671.59 431.084 1673.42 431.469 1674.78 432.238C1676.15 432.992 1677.19 433.854 1677.92 434.823C1678.66 435.777 1679.23 436.562 1679.63 437.178H1680.18V431.545H1685.44V468.016C1685.44 471.062 1684.75 473.54 1683.37 475.448C1682 477.372 1680.15 478.78 1677.83 479.672C1675.52 480.58 1672.95 481.034 1670.12 481.034ZM1669.93 461.553C1672.12 461.553 1673.96 461.052 1675.47 460.052C1676.98 459.052 1678.13 457.613 1678.91 455.736C1679.7 453.858 1680.09 451.612 1680.09 448.996C1680.09 446.441 1679.7 444.187 1678.93 442.233C1678.16 440.278 1677.03 438.747 1675.52 437.639C1674.01 436.531 1672.15 435.977 1669.93 435.977C1667.62 435.977 1665.7 436.562 1664.16 437.732C1662.64 438.901 1661.49 440.471 1660.72 442.44C1659.97 444.41 1659.59 446.595 1659.59 448.996C1659.59 451.458 1659.98 453.635 1660.74 455.528C1661.53 457.405 1662.68 458.883 1664.21 459.96C1665.75 461.022 1667.65 461.553 1669.93 461.553ZM1695.41 467V431.545H1700.86V467H1695.41ZM1698.18 425.636C1697.12 425.636 1696.21 425.275 1695.44 424.551C1694.68 423.828 1694.31 422.959 1694.31 421.943C1694.31 420.928 1694.68 420.058 1695.44 419.335C1696.21 418.612 1697.12 418.25 1698.18 418.25C1699.25 418.25 1700.15 418.612 1700.91 419.335C1701.68 420.058 1702.06 420.928 1702.06 421.943C1702.06 422.959 1701.68 423.828 1700.91 424.551C1700.15 425.275 1699.25 425.636 1698.18 425.636ZM1725.7 467.739C1722.29 467.739 1719.34 466.985 1716.86 465.477C1714.4 463.953 1712.5 461.83 1711.16 459.106C1709.84 456.367 1709.18 453.181 1709.18 449.55C1709.18 445.918 1709.84 442.717 1711.16 439.947C1712.5 437.162 1714.36 434.992 1716.75 433.438C1719.15 431.869 1721.95 431.084 1725.15 431.084C1727 431.084 1728.82 431.392 1730.62 432.007C1732.42 432.623 1734.06 433.623 1735.54 435.008C1737.01 436.377 1738.19 438.193 1739.07 440.455C1739.95 442.717 1740.38 445.503 1740.38 448.811V451.119H1713.06V446.411H1734.84C1734.84 444.41 1734.44 442.625 1733.64 441.055C1732.86 439.486 1731.74 438.247 1730.27 437.339C1728.83 436.431 1727.12 435.977 1725.15 435.977C1722.98 435.977 1721.1 436.516 1719.52 437.593C1717.95 438.655 1716.74 440.04 1715.89 441.748C1715.05 443.456 1714.62 445.287 1714.62 447.241V450.381C1714.62 453.058 1715.09 455.328 1716.01 457.19C1716.95 459.037 1718.25 460.445 1719.91 461.414C1721.57 462.368 1723.5 462.845 1725.7 462.845C1727.14 462.845 1728.43 462.645 1729.58 462.245C1730.75 461.83 1731.76 461.214 1732.61 460.398C1733.45 459.567 1734.11 458.536 1734.57 457.305L1739.83 458.783C1739.28 460.568 1738.35 462.137 1737.04 463.491C1735.73 464.83 1734.11 465.877 1732.19 466.631C1730.27 467.369 1728.1 467.739 1725.7 467.739ZM1773.78 439.486L1768.89 440.871C1768.58 440.055 1768.13 439.263 1767.53 438.493C1766.94 437.708 1766.14 437.062 1765.13 436.554C1764.11 436.047 1762.81 435.793 1761.23 435.793C1759.06 435.793 1757.25 436.293 1755.8 437.293C1754.37 438.278 1753.66 439.532 1753.66 441.055C1753.66 442.41 1754.15 443.479 1755.13 444.264C1756.12 445.049 1757.66 445.703 1759.75 446.226L1765.01 447.518C1768.18 448.288 1770.55 449.465 1772.1 451.05C1773.65 452.62 1774.43 454.643 1774.43 457.121C1774.43 459.152 1773.85 460.968 1772.68 462.568C1771.52 464.169 1769.91 465.43 1767.83 466.354C1765.75 467.277 1763.34 467.739 1760.58 467.739C1756.97 467.739 1753.97 466.954 1751.6 465.384C1749.23 463.815 1747.73 461.522 1747.1 458.506L1752.27 457.213C1752.76 459.121 1753.7 460.552 1755.07 461.506C1756.45 462.46 1758.26 462.938 1760.49 462.938C1763.03 462.938 1765.04 462.399 1766.54 461.322C1768.05 460.229 1768.8 458.921 1768.8 457.398C1768.8 456.167 1768.37 455.136 1767.51 454.305C1766.64 453.458 1765.32 452.827 1763.54 452.412L1757.63 451.027C1754.38 450.258 1752 449.065 1750.47 447.449C1748.96 445.818 1748.21 443.779 1748.21 441.332C1748.21 439.332 1748.77 437.562 1749.89 436.023C1751.03 434.485 1752.58 433.277 1754.53 432.4C1756.5 431.522 1758.74 431.084 1761.23 431.084C1764.74 431.084 1767.49 431.853 1769.49 433.392C1771.51 434.931 1772.94 436.962 1773.78 439.486ZM197.477 510.545L184.366 546H178.827L165.716 510.545H171.625L181.412 538.798H181.781L191.568 510.545H197.477ZM214.022 546.831C211.775 546.831 209.736 546.408 207.905 545.561C206.074 544.7 204.619 543.461 203.542 541.845C202.465 540.214 201.926 538.244 201.926 535.936C201.926 533.905 202.326 532.258 203.127 530.996C203.927 529.719 204.996 528.719 206.335 527.996C207.674 527.272 209.151 526.734 210.767 526.38C212.398 526.011 214.037 525.718 215.684 525.503C217.838 525.226 219.584 525.018 220.923 524.88C222.277 524.726 223.262 524.472 223.878 524.118C224.509 523.764 224.824 523.148 224.824 522.271V522.087C224.824 519.809 224.201 518.04 222.954 516.778C221.723 515.516 219.854 514.885 217.345 514.885C214.745 514.885 212.706 515.454 211.229 516.593C209.751 517.732 208.713 518.947 208.112 520.24L202.942 518.393C203.865 516.239 205.096 514.562 206.635 513.362C208.189 512.146 209.882 511.299 211.713 510.822C213.56 510.33 215.376 510.084 217.161 510.084C218.3 510.084 219.608 510.222 221.085 510.499C222.577 510.761 224.016 511.307 225.401 512.138C226.802 512.969 227.963 514.223 228.887 515.901C229.81 517.578 230.272 519.825 230.272 522.641V546H224.824V541.199H224.547C224.178 541.968 223.562 542.792 222.701 543.669C221.839 544.546 220.692 545.292 219.261 545.908C217.83 546.523 216.084 546.831 214.022 546.831ZM214.853 541.938C217.007 541.938 218.823 541.514 220.3 540.668C221.793 539.822 222.916 538.729 223.67 537.39C224.439 536.051 224.824 534.643 224.824 533.166V528.18C224.593 528.457 224.085 528.711 223.301 528.942C222.531 529.158 221.639 529.35 220.623 529.519C219.623 529.673 218.646 529.812 217.692 529.935C216.753 530.042 215.991 530.135 215.407 530.212C213.991 530.396 212.667 530.696 211.436 531.112C210.221 531.512 209.236 532.12 208.482 532.935C207.743 533.736 207.374 534.828 207.374 536.213C207.374 538.106 208.074 539.537 209.474 540.506C210.89 541.46 212.683 541.938 214.853 541.938ZM240.214 546V510.545H245.477V515.901H245.846C246.493 514.146 247.662 512.723 249.355 511.63C251.048 510.538 252.956 509.991 255.079 509.991C255.479 509.991 255.98 509.999 256.58 510.015C257.18 510.03 257.634 510.053 257.942 510.084V515.624C257.757 515.577 257.334 515.508 256.672 515.416C256.026 515.308 255.341 515.254 254.618 515.254C252.894 515.254 251.355 515.616 250.001 516.339C248.662 517.047 247.601 518.032 246.816 519.294C246.046 520.54 245.662 521.964 245.662 523.564V546H240.214ZM268.987 559.295C268.063 559.295 267.24 559.219 266.517 559.065C265.793 558.926 265.293 558.788 265.016 558.649L266.401 553.848C267.725 554.187 268.894 554.31 269.91 554.217C270.925 554.125 271.826 553.671 272.61 552.855C273.411 552.055 274.142 550.755 274.803 548.955L275.819 546.185L262.708 510.545H268.617L278.404 538.798H278.773L288.56 510.545H294.469L279.42 551.17C278.743 553.002 277.904 554.517 276.904 555.718C275.904 556.933 274.742 557.834 273.418 558.418C272.11 559.003 270.633 559.295 268.987 559.295ZM303.408 546.369C302.269 546.369 301.292 545.962 300.477 545.146C299.661 544.33 299.253 543.353 299.253 542.214C299.253 541.076 299.661 540.099 300.477 539.283C301.292 538.467 302.269 538.06 303.408 538.06C304.547 538.06 305.524 538.467 306.34 539.283C307.155 540.099 307.563 541.076 307.563 542.214C307.563 542.969 307.371 543.661 306.986 544.292C306.617 544.923 306.116 545.431 305.486 545.815C304.87 546.185 304.178 546.369 303.408 546.369ZM321.309 546.369C320.17 546.369 319.193 545.962 318.377 545.146C317.561 544.33 317.154 543.353 317.154 542.214C317.154 541.076 317.561 540.099 318.377 539.283C319.193 538.467 320.17 538.06 321.309 538.06C322.447 538.06 323.424 538.467 324.24 539.283C325.056 540.099 325.463 541.076 325.463 542.214C325.463 542.969 325.271 543.661 324.886 544.292C324.517 544.923 324.017 545.431 323.386 545.815C322.77 546.185 322.078 546.369 321.309 546.369ZM339.209 546.369C338.07 546.369 337.093 545.962 336.277 545.146C335.462 544.33 335.054 543.353 335.054 542.214C335.054 541.076 335.462 540.099 336.277 539.283C337.093 538.467 338.07 538.06 339.209 538.06C340.348 538.06 341.325 538.467 342.14 539.283C342.956 540.099 343.364 541.076 343.364 542.214C343.364 542.969 343.171 543.661 342.787 544.292C342.417 544.923 341.917 545.431 341.286 545.815C340.671 546.185 339.978 546.369 339.209 546.369ZM353.878 546V498.727H359.325V516.178H359.787C360.187 515.562 360.741 514.777 361.449 513.823C362.172 512.854 363.203 511.992 364.542 511.238C365.896 510.469 367.727 510.084 370.035 510.084C373.021 510.084 375.652 510.83 377.93 512.323C380.207 513.815 381.984 515.931 383.262 518.67C384.539 521.41 385.177 524.641 385.177 528.365C385.177 532.12 384.539 535.374 383.262 538.129C381.984 540.868 380.215 542.992 377.953 544.5C375.691 545.992 373.082 546.739 370.128 546.739C367.85 546.739 366.027 546.362 364.657 545.608C363.288 544.838 362.234 543.969 361.495 542.999C360.756 542.014 360.187 541.199 359.787 540.553H359.141V546H353.878ZM359.233 528.273C359.233 530.95 359.625 533.312 360.41 535.359C361.195 537.39 362.341 538.983 363.849 540.137C365.357 541.276 367.204 541.845 369.389 541.845C371.667 541.845 373.567 541.245 375.09 540.045C376.629 538.829 377.783 537.198 378.553 535.151C379.338 533.089 379.73 530.796 379.73 528.273C379.73 525.78 379.345 523.533 378.576 521.533C377.822 519.517 376.675 517.924 375.137 516.755C373.613 515.57 371.697 514.977 369.389 514.977C367.173 514.977 365.311 515.539 363.803 516.662C362.295 517.77 361.156 519.324 360.387 521.325C359.618 523.31 359.233 525.626 359.233 528.273ZM415.854 531.504V510.545H421.301V546H415.854V539.999H415.485C414.654 541.799 413.361 543.33 411.607 544.592C409.853 545.838 407.637 546.462 404.959 546.462C402.743 546.462 400.773 545.977 399.05 545.007C397.326 544.023 395.972 542.545 394.987 540.576C394.003 538.591 393.51 536.09 393.51 533.074V510.545H398.958V532.705C398.958 535.29 399.681 537.352 401.127 538.891C402.589 540.429 404.451 541.199 406.713 541.199C408.068 541.199 409.445 540.853 410.845 540.16C412.261 539.468 413.446 538.406 414.4 536.975C415.369 535.544 415.854 533.72 415.854 531.504ZM446.698 510.545V515.162H428.324V510.545H446.698ZM433.679 502.051H439.127V535.844C439.127 537.383 439.35 538.537 439.796 539.306C440.258 540.06 440.843 540.568 441.55 540.83C442.274 541.076 443.035 541.199 443.836 541.199C444.436 541.199 444.928 541.168 445.313 541.107C445.698 541.03 446.005 540.968 446.236 540.922L447.344 545.815C446.975 545.954 446.459 546.092 445.798 546.231C445.136 546.385 444.297 546.462 443.282 546.462C441.743 546.462 440.235 546.131 438.757 545.469C437.296 544.807 436.08 543.799 435.11 542.445C434.156 541.091 433.679 539.383 433.679 537.321V502.051ZM481.206 546L470.403 510.545H476.128L483.791 537.69H484.161L491.732 510.545H497.548L505.027 537.598H505.396L513.06 510.545H518.784L507.982 546H502.626L494.871 518.763H494.317L486.561 546H481.206ZM525.986 546V510.545H531.433V546H525.986ZM528.756 504.636C527.694 504.636 526.778 504.275 526.009 503.551C525.255 502.828 524.878 501.959 524.878 500.943C524.878 499.928 525.255 499.058 526.009 498.335C526.778 497.612 527.694 497.25 528.756 497.25C529.817 497.25 530.725 497.612 531.479 498.335C532.249 499.058 532.634 499.928 532.634 500.943C532.634 501.959 532.249 502.828 531.479 503.551C530.725 504.275 529.817 504.636 528.756 504.636ZM546.858 498.727V546H541.411V498.727H546.858ZM562.283 498.727V546H556.835V498.727H562.283ZM590.541 546V510.545H595.804V516.085H596.266C597.005 514.192 598.197 512.723 599.844 511.676C601.49 510.615 603.468 510.084 605.776 510.084C608.115 510.084 610.061 510.615 611.616 511.676C613.185 512.723 614.409 514.192 615.286 516.085H615.655C616.563 514.254 617.925 512.8 619.741 511.723C621.556 510.63 623.734 510.084 626.273 510.084C629.443 510.084 632.036 511.076 634.052 513.061C636.068 515.031 637.076 518.101 637.076 522.271V546H631.628V522.271C631.628 519.655 630.913 517.786 629.481 516.662C628.05 515.539 626.365 514.977 624.426 514.977C621.934 514.977 620.002 515.731 618.633 517.239C617.263 518.732 616.578 520.625 616.578 522.918V546H611.039V521.717C611.039 519.701 610.385 518.078 609.077 516.847C607.769 515.6 606.084 514.977 604.022 514.977C602.606 514.977 601.282 515.354 600.051 516.108C598.836 516.862 597.851 517.909 597.097 519.248C596.358 520.571 595.989 522.102 595.989 523.841V546H590.541ZM661.439 546.739C658.238 546.739 655.43 545.977 653.014 544.453C650.613 542.93 648.736 540.799 647.382 538.06C646.043 535.321 645.374 532.12 645.374 528.457C645.374 524.764 646.043 521.54 647.382 518.786C648.736 516.031 650.613 513.892 653.014 512.369C655.43 510.846 658.238 510.084 661.439 510.084C664.64 510.084 667.44 510.846 669.841 512.369C672.257 513.892 674.134 516.031 675.473 518.786C676.827 521.54 677.504 524.764 677.504 528.457C677.504 532.12 676.827 535.321 675.473 538.06C674.134 540.799 672.257 542.93 669.841 544.453C667.44 545.977 664.64 546.739 661.439 546.739ZM661.439 541.845C663.87 541.845 665.871 541.222 667.44 539.975C669.01 538.729 670.172 537.09 670.926 535.059C671.68 533.028 672.057 530.827 672.057 528.457C672.057 526.088 671.68 523.879 670.926 521.833C670.172 519.786 669.01 518.132 667.44 516.87C665.871 515.608 663.87 514.977 661.439 514.977C659.008 514.977 657.007 515.608 655.438 516.87C653.868 518.132 652.706 519.786 651.952 521.833C651.198 523.879 650.821 526.088 650.821 528.457C650.821 530.827 651.198 533.028 651.952 535.059C652.706 537.09 653.868 538.729 655.438 539.975C657.007 541.222 659.008 541.845 661.439 541.845ZM710.933 518.486L706.04 519.871C705.732 519.055 705.278 518.263 704.678 517.493C704.093 516.708 703.293 516.062 702.278 515.554C701.262 515.047 699.962 514.793 698.377 514.793C696.207 514.793 694.399 515.293 692.952 516.293C691.521 517.278 690.806 518.532 690.806 520.055C690.806 521.41 691.298 522.479 692.283 523.264C693.268 524.049 694.807 524.703 696.899 525.226L702.162 526.518C705.332 527.288 707.694 528.465 709.248 530.05C710.803 531.62 711.58 533.643 711.58 536.121C711.58 538.152 710.995 539.968 709.825 541.568C708.671 543.169 707.056 544.43 704.978 545.354C702.901 546.277 700.485 546.739 697.73 546.739C694.114 546.739 691.121 545.954 688.751 544.384C686.381 542.815 684.881 540.522 684.25 537.506L689.421 536.213C689.913 538.121 690.844 539.552 692.214 540.506C693.599 541.46 695.407 541.938 697.638 541.938C700.177 541.938 702.193 541.399 703.686 540.322C705.194 539.229 705.948 537.921 705.948 536.398C705.948 535.167 705.517 534.136 704.655 533.305C703.793 532.458 702.47 531.827 700.685 531.412L694.776 530.027C691.529 529.258 689.144 528.065 687.62 526.449C686.112 524.818 685.358 522.779 685.358 520.332C685.358 518.332 685.92 516.562 687.043 515.023C688.182 513.485 689.728 512.277 691.683 511.4C693.652 510.522 695.884 510.084 698.377 510.084C701.885 510.084 704.64 510.853 706.64 512.392C708.656 513.931 710.087 515.962 710.933 518.486ZM735.199 510.545V515.162H716.825V510.545H735.199ZM722.18 502.051H727.628V535.844C727.628 537.383 727.851 538.537 728.297 539.306C728.759 540.06 729.344 540.568 730.051 540.83C730.775 541.076 731.536 541.199 732.337 541.199C732.937 541.199 733.429 541.168 733.814 541.107C734.199 541.03 734.506 540.968 734.737 540.922L735.845 545.815C735.476 545.954 734.96 546.092 734.299 546.231C733.637 546.385 732.798 546.462 731.783 546.462C730.244 546.462 728.736 546.131 727.258 545.469C725.797 544.807 724.581 543.799 723.611 542.445C722.657 541.091 722.18 539.383 722.18 537.321V502.051ZM749.602 498.727V546H744.155V498.727H749.602ZM763.088 559.295C762.165 559.295 761.342 559.219 760.618 559.065C759.895 558.926 759.395 558.788 759.118 558.649L760.503 553.848C761.826 554.187 762.996 554.31 764.011 554.217C765.027 554.125 765.927 553.671 766.712 552.855C767.512 552.055 768.243 550.755 768.905 548.955L769.92 546.185L756.81 510.545H762.719L772.506 538.798H772.875L782.662 510.545H788.571L773.521 551.17C772.844 553.002 772.006 554.517 771.005 555.718C770.005 556.933 768.843 557.834 767.52 558.418C766.212 559.003 764.735 559.295 763.088 559.295ZM814.781 546V498.727H820.229V516.178H820.69C821.09 515.562 821.644 514.777 822.352 513.823C823.075 512.854 824.106 511.992 825.445 511.238C826.799 510.469 828.631 510.084 830.939 510.084C833.924 510.084 836.555 510.83 838.833 512.323C841.11 513.815 842.888 515.931 844.165 518.67C845.442 521.41 846.081 524.641 846.081 528.365C846.081 532.12 845.442 535.374 844.165 538.129C842.888 540.868 841.118 542.992 838.856 544.5C836.594 545.992 833.986 546.739 831.031 546.739C828.754 546.739 826.93 546.362 825.561 545.608C824.191 544.838 823.137 543.969 822.398 542.999C821.66 542.014 821.09 541.199 820.69 540.553H820.044V546H814.781ZM820.136 528.273C820.136 530.95 820.529 533.312 821.313 535.359C822.098 537.39 823.245 538.983 824.753 540.137C826.261 541.276 828.107 541.845 830.292 541.845C832.57 541.845 834.47 541.245 835.994 540.045C837.533 538.829 838.687 537.198 839.456 535.151C840.241 533.089 840.633 530.796 840.633 528.273C840.633 525.78 840.249 523.533 839.479 521.533C838.725 519.517 837.579 517.924 836.04 516.755C834.517 515.57 832.601 514.977 830.292 514.977C828.077 514.977 826.215 515.539 824.706 516.662C823.198 517.77 822.06 519.324 821.29 521.325C820.521 523.31 820.136 525.626 820.136 528.273ZM869.279 546.739C865.862 546.739 862.916 545.985 860.438 544.477C857.976 542.953 856.075 540.83 854.737 538.106C853.413 535.367 852.752 532.181 852.752 528.55C852.752 524.918 853.413 521.717 854.737 518.947C856.075 516.162 857.937 513.992 860.323 512.438C862.723 510.869 865.524 510.084 868.725 510.084C870.571 510.084 872.395 510.392 874.195 511.007C875.996 511.623 877.634 512.623 879.112 514.008C880.589 515.377 881.766 517.193 882.643 519.455C883.52 521.717 883.959 524.503 883.959 527.811V530.119H856.629V525.411H878.419C878.419 523.41 878.019 521.625 877.219 520.055C876.434 518.486 875.311 517.247 873.849 516.339C872.402 515.431 870.694 514.977 868.725 514.977C866.555 514.977 864.677 515.516 863.093 516.593C861.523 517.655 860.315 519.04 859.469 520.748C858.622 522.456 858.199 524.287 858.199 526.241V529.381C858.199 532.058 858.661 534.328 859.584 536.19C860.523 538.037 861.823 539.445 863.485 540.414C865.147 541.368 867.078 541.845 869.279 541.845C870.71 541.845 872.002 541.645 873.156 541.245C874.326 540.83 875.334 540.214 876.18 539.398C877.027 538.567 877.681 537.536 878.142 536.305L883.405 537.783C882.851 539.568 881.92 541.137 880.612 542.491C879.304 543.83 877.688 544.877 875.765 545.631C873.841 546.369 871.679 546.739 869.279 546.739ZM910.527 546V510.545H915.974V546H910.527ZM913.297 504.636C912.235 504.636 911.319 504.275 910.55 503.551C909.796 502.828 909.419 501.959 909.419 500.943C909.419 499.928 909.796 499.058 910.55 498.335C911.319 497.612 912.235 497.25 913.297 497.25C914.358 497.25 915.266 497.612 916.02 498.335C916.79 499.058 917.175 499.928 917.175 500.943C917.175 501.959 916.79 502.828 916.02 503.551C915.266 504.275 914.358 504.636 913.297 504.636ZM931.399 524.672V546H925.952V510.545H931.214V516.085H931.676C932.507 514.285 933.769 512.838 935.462 511.746C937.154 510.638 939.339 510.084 942.017 510.084C944.418 510.084 946.518 510.576 948.318 511.561C950.119 512.531 951.519 514.008 952.519 515.993C953.52 517.963 954.02 520.455 954.02 523.472V546H948.572V523.841C948.572 521.056 947.849 518.886 946.403 517.332C944.956 515.762 942.971 514.977 940.447 514.977C938.708 514.977 937.154 515.354 935.785 516.108C934.431 516.862 933.361 517.963 932.576 519.409C931.791 520.856 931.399 522.61 931.399 524.672ZM1001.09 498.727H1006.81V532.52C1006.81 535.536 1006.26 538.098 1005.15 540.206C1004.05 542.315 1002.48 543.915 1000.47 545.007C998.451 546.1 996.074 546.646 993.335 546.646C990.75 546.646 988.449 546.177 986.433 545.238C984.417 544.284 982.832 542.93 981.678 541.176C980.524 539.422 979.947 537.336 979.947 534.92H985.579C985.579 536.259 985.91 537.429 986.572 538.429C987.249 539.414 988.172 540.183 989.342 540.737C990.511 541.291 991.842 541.568 993.335 541.568C994.981 541.568 996.382 541.222 997.536 540.529C998.69 539.837 999.567 538.821 1000.17 537.483C1000.78 536.128 1001.09 534.474 1001.09 532.52V498.727ZM1044.14 510.545C1043.86 508.206 1042.74 506.391 1040.77 505.098C1038.8 503.805 1036.38 503.159 1033.52 503.159C1031.43 503.159 1029.6 503.498 1028.03 504.175C1026.47 504.852 1025.26 505.783 1024.38 506.968C1023.52 508.153 1023.09 509.499 1023.09 511.007C1023.09 512.269 1023.39 513.354 1023.99 514.262C1024.6 515.154 1025.39 515.901 1026.34 516.501C1027.3 517.085 1028.3 517.57 1029.34 517.955C1030.39 518.324 1031.35 518.624 1032.23 518.855L1037.03 520.148C1038.26 520.471 1039.63 520.917 1041.14 521.487C1042.66 522.056 1044.12 522.833 1045.5 523.818C1046.9 524.787 1048.06 526.034 1048.96 527.557C1049.87 529.081 1050.33 530.95 1050.33 533.166C1050.33 535.721 1049.66 538.029 1048.32 540.091C1046.99 542.153 1045.05 543.792 1042.5 545.007C1039.96 546.223 1036.88 546.831 1033.24 546.831C1029.86 546.831 1026.93 546.285 1024.45 545.192C1021.99 544.1 1020.05 542.576 1018.63 540.622C1017.23 538.667 1016.44 536.398 1016.26 533.812H1022.16C1022.32 535.598 1022.92 537.075 1023.97 538.244C1025.03 539.398 1026.37 540.26 1027.98 540.83C1029.61 541.384 1031.37 541.661 1033.24 541.661C1035.43 541.661 1037.39 541.307 1039.13 540.599C1040.87 539.875 1042.25 538.875 1043.26 537.598C1044.28 536.305 1044.79 534.797 1044.79 533.074C1044.79 531.504 1044.35 530.227 1043.47 529.242C1042.59 528.257 1041.44 527.457 1040.01 526.842C1038.58 526.226 1037.03 525.687 1035.37 525.226L1029.55 523.564C1025.86 522.502 1022.93 520.986 1020.78 519.017C1018.63 517.047 1017.55 514.469 1017.55 511.284C1017.55 508.637 1018.26 506.329 1019.69 504.359C1021.14 502.374 1023.08 500.835 1025.51 499.743C1027.96 498.635 1030.69 498.081 1033.71 498.081C1036.75 498.081 1039.46 498.627 1041.83 499.72C1044.2 500.797 1046.08 502.274 1047.46 504.152C1048.86 506.029 1049.6 508.16 1049.68 510.545H1044.14ZM1087.71 546.831C1085.47 546.831 1083.43 546.408 1081.6 545.561C1079.76 544.7 1078.31 543.461 1077.23 541.845C1076.16 540.214 1075.62 538.244 1075.62 535.936C1075.62 533.905 1076.02 532.258 1076.82 530.996C1077.62 529.719 1078.69 528.719 1080.03 527.996C1081.37 527.272 1082.84 526.734 1084.46 526.38C1086.09 526.011 1087.73 525.718 1089.37 525.503C1091.53 525.226 1093.28 525.018 1094.61 524.88C1095.97 524.726 1096.95 524.472 1097.57 524.118C1098.2 523.764 1098.52 523.148 1098.52 522.271V522.087C1098.52 519.809 1097.89 518.04 1096.65 516.778C1095.41 515.516 1093.55 514.885 1091.04 514.885C1088.44 514.885 1086.4 515.454 1084.92 516.593C1083.44 517.732 1082.4 518.947 1081.8 520.24L1076.63 518.393C1077.56 516.239 1078.79 514.562 1080.33 513.362C1081.88 512.146 1083.57 511.299 1085.4 510.822C1087.25 510.33 1089.07 510.084 1090.85 510.084C1091.99 510.084 1093.3 510.222 1094.78 510.499C1096.27 510.761 1097.71 511.307 1099.09 512.138C1100.49 512.969 1101.65 514.223 1102.58 515.901C1103.5 517.578 1103.96 519.825 1103.96 522.641V546H1098.52V541.199H1098.24C1097.87 541.968 1097.25 542.792 1096.39 543.669C1095.53 544.546 1094.38 545.292 1092.95 545.908C1091.52 546.523 1089.78 546.831 1087.71 546.831ZM1088.54 541.938C1090.7 541.938 1092.51 541.514 1093.99 540.668C1095.48 539.822 1096.61 538.729 1097.36 537.39C1098.13 536.051 1098.52 534.643 1098.52 533.166V528.18C1098.28 528.457 1097.78 528.711 1096.99 528.942C1096.22 529.158 1095.33 529.35 1094.31 529.519C1093.31 529.673 1092.34 529.812 1091.38 529.935C1090.44 530.042 1089.68 530.135 1089.1 530.212C1087.68 530.396 1086.36 530.696 1085.13 531.112C1083.91 531.512 1082.93 532.12 1082.17 532.935C1081.43 533.736 1081.07 534.828 1081.07 536.213C1081.07 538.106 1081.77 539.537 1083.17 540.506C1084.58 541.46 1086.37 541.938 1088.54 541.938ZM1119.35 524.672V546H1113.91V510.545H1119.17V516.085H1119.63C1120.46 514.285 1121.72 512.838 1123.42 511.746C1125.11 510.638 1127.29 510.084 1129.97 510.084C1132.37 510.084 1134.47 510.576 1136.27 511.561C1138.07 512.531 1139.47 514.008 1140.47 515.993C1141.47 517.963 1141.97 520.455 1141.97 523.472V546H1136.53V523.841C1136.53 521.056 1135.8 518.886 1134.36 517.332C1132.91 515.762 1130.93 514.977 1128.4 514.977C1126.66 514.977 1125.11 515.354 1123.74 516.108C1122.38 516.862 1121.32 517.963 1120.53 519.409C1119.75 520.856 1119.35 522.61 1119.35 524.672ZM1165.32 546.739C1162.36 546.739 1159.75 545.992 1157.49 544.5C1155.23 542.992 1153.46 540.868 1152.18 538.129C1150.9 535.374 1150.27 532.12 1150.27 528.365C1150.27 524.641 1150.9 521.41 1152.18 518.67C1153.46 515.931 1155.24 513.815 1157.51 512.323C1159.79 510.83 1162.42 510.084 1165.41 510.084C1167.72 510.084 1169.54 510.469 1170.88 511.238C1172.23 511.992 1173.26 512.854 1173.97 513.823C1174.7 514.777 1175.26 515.562 1175.66 516.178H1176.12V498.727H1181.57V546H1176.3V540.553H1175.66C1175.26 541.199 1174.69 542.014 1173.95 542.999C1173.21 543.969 1172.16 544.838 1170.79 545.608C1169.42 546.362 1167.59 546.739 1165.32 546.739ZM1166.05 541.845C1168.24 541.845 1170.09 541.276 1171.59 540.137C1173.1 538.983 1174.25 537.39 1175.03 535.359C1175.82 533.312 1176.21 530.95 1176.21 528.273C1176.21 525.626 1175.83 523.31 1175.06 521.325C1174.29 519.324 1173.15 517.77 1171.64 516.662C1170.13 515.539 1168.27 514.977 1166.05 514.977C1163.75 514.977 1161.82 515.57 1160.28 516.755C1158.76 517.924 1157.61 519.517 1156.84 521.533C1156.09 523.533 1155.71 525.78 1155.71 528.273C1155.71 530.796 1156.1 533.089 1156.87 535.151C1157.65 537.198 1158.81 538.829 1160.33 540.045C1161.87 541.245 1163.78 541.845 1166.05 541.845ZM1211.32 546V498.727H1227.29C1231 498.727 1234.03 499.397 1236.39 500.735C1238.76 502.059 1240.51 503.852 1241.65 506.114C1242.79 508.376 1243.36 510.899 1243.36 513.685C1243.36 516.47 1242.79 519.001 1241.65 521.279C1240.53 523.556 1238.79 525.372 1236.43 526.726C1234.08 528.065 1231.06 528.734 1227.38 528.734H1215.94V523.656H1227.2C1229.74 523.656 1231.78 523.218 1233.32 522.341C1234.86 521.463 1235.97 520.279 1236.66 518.786C1237.37 517.278 1237.73 515.577 1237.73 513.685C1237.73 511.792 1237.37 510.099 1236.66 508.607C1235.97 507.114 1234.85 505.944 1233.29 505.098C1231.74 504.236 1229.68 503.805 1227.11 503.805H1217.04V546H1211.32ZM1255.35 559.295C1254.43 559.295 1253.6 559.219 1252.88 559.065C1252.16 558.926 1251.66 558.788 1251.38 558.649L1252.76 553.848C1254.09 554.187 1255.26 554.31 1256.27 554.217C1257.29 554.125 1258.19 553.671 1258.97 552.855C1259.77 552.055 1260.5 550.755 1261.17 548.955L1262.18 546.185L1249.07 510.545H1254.98L1264.77 538.798H1265.14L1274.92 510.545H1280.83L1265.78 551.17C1265.1 553.002 1264.27 554.517 1263.27 555.718C1262.27 556.933 1261.1 557.834 1259.78 558.418C1258.47 559.003 1257 559.295 1255.35 559.295ZM1303.44 510.545V515.162H1285.07V510.545H1303.44ZM1290.42 502.051H1295.87V535.844C1295.87 537.383 1296.09 538.537 1296.54 539.306C1297 540.06 1297.59 540.568 1298.29 540.83C1299.02 541.076 1299.78 541.199 1300.58 541.199C1301.18 541.199 1301.67 541.168 1302.06 541.107C1302.44 541.03 1302.75 540.968 1302.98 540.922L1304.09 545.815C1303.72 545.954 1303.2 546.092 1302.54 546.231C1301.88 546.385 1301.04 546.462 1300.02 546.462C1298.49 546.462 1296.98 546.131 1295.5 545.469C1294.04 544.807 1292.82 543.799 1291.85 542.445C1290.9 541.091 1290.42 539.383 1290.42 537.321V502.051ZM1317.84 524.672V546H1312.4V498.727H1317.84V516.085H1318.31C1319.14 514.254 1320.38 512.8 1322.05 511.723C1323.72 510.63 1325.95 510.084 1328.74 510.084C1331.16 510.084 1333.27 510.569 1335.09 511.538C1336.9 512.492 1338.31 513.962 1339.31 515.947C1340.33 517.916 1340.83 520.425 1340.83 523.472V546H1335.39V523.841C1335.39 521.025 1334.66 518.847 1333.19 517.309C1331.75 515.754 1329.74 514.977 1327.17 514.977C1325.38 514.977 1323.78 515.354 1322.37 516.108C1320.97 516.862 1319.86 517.963 1319.04 519.409C1318.24 520.856 1317.84 522.61 1317.84 524.672ZM1365.2 546.739C1362 546.739 1359.19 545.977 1356.78 544.453C1354.38 542.93 1352.5 540.799 1351.15 538.06C1349.81 535.321 1349.14 532.12 1349.14 528.457C1349.14 524.764 1349.81 521.54 1351.15 518.786C1352.5 516.031 1354.38 513.892 1356.78 512.369C1359.19 510.846 1362 510.084 1365.2 510.084C1368.4 510.084 1371.21 510.846 1373.61 512.369C1376.02 513.892 1377.9 516.031 1379.24 518.786C1380.59 521.54 1381.27 524.764 1381.27 528.457C1381.27 532.12 1380.59 535.321 1379.24 538.06C1377.9 540.799 1376.02 542.93 1373.61 544.453C1371.21 545.977 1368.4 546.739 1365.2 546.739ZM1365.2 541.845C1367.64 541.845 1369.64 541.222 1371.21 539.975C1372.77 538.729 1373.94 537.09 1374.69 535.059C1375.44 533.028 1375.82 530.827 1375.82 528.457C1375.82 526.088 1375.44 523.879 1374.69 521.833C1373.94 519.786 1372.77 518.132 1371.21 516.87C1369.64 515.608 1367.64 514.977 1365.2 514.977C1362.77 514.977 1360.77 515.608 1359.2 516.87C1357.63 518.132 1356.47 519.786 1355.72 521.833C1354.96 523.879 1354.59 526.088 1354.59 528.457C1354.59 530.827 1354.96 533.028 1355.72 535.059C1356.47 537.09 1357.63 538.729 1359.2 539.975C1360.77 541.222 1362.77 541.845 1365.2 541.845ZM1395.03 524.672V546H1389.58V510.545H1394.85V516.085H1395.31C1396.14 514.285 1397.4 512.838 1399.09 511.746C1400.79 510.638 1402.97 510.084 1405.65 510.084C1408.05 510.084 1410.15 510.576 1411.95 511.561C1413.75 512.531 1415.15 514.008 1416.15 515.993C1417.15 517.963 1417.65 520.455 1417.65 523.472V546H1412.21V523.841C1412.21 521.056 1411.48 518.886 1410.04 517.332C1408.59 515.762 1406.6 514.977 1404.08 514.977C1402.34 514.977 1400.79 515.354 1399.42 516.108C1398.06 516.862 1396.99 517.963 1396.21 519.409C1395.42 520.856 1395.03 522.61 1395.03 524.672ZM1460.75 546.739C1457.34 546.739 1454.39 545.985 1451.91 544.477C1449.45 542.953 1447.55 540.83 1446.21 538.106C1444.89 535.367 1444.23 532.181 1444.23 528.55C1444.23 524.918 1444.89 521.717 1446.21 518.947C1447.55 516.162 1449.41 513.992 1451.8 512.438C1454.2 510.869 1457 510.084 1460.2 510.084C1462.05 510.084 1463.87 510.392 1465.67 511.007C1467.47 511.623 1469.11 512.623 1470.59 514.008C1472.06 515.377 1473.24 517.193 1474.12 519.455C1475 521.717 1475.43 524.503 1475.43 527.811V530.119H1448.1V525.411H1469.89C1469.89 523.41 1469.49 521.625 1468.69 520.055C1467.91 518.486 1466.79 517.247 1465.32 516.339C1463.88 515.431 1462.17 514.977 1460.2 514.977C1458.03 514.977 1456.15 515.516 1454.57 516.593C1453 517.655 1451.79 519.04 1450.94 520.748C1450.1 522.456 1449.67 524.287 1449.67 526.241V529.381C1449.67 532.058 1450.14 534.328 1451.06 536.19C1452 538.037 1453.3 539.445 1454.96 540.414C1456.62 541.368 1458.55 541.845 1460.75 541.845C1462.18 541.845 1463.48 541.645 1464.63 541.245C1465.8 540.83 1466.81 540.214 1467.65 539.398C1468.5 538.567 1469.16 537.536 1469.62 536.305L1474.88 537.783C1474.33 539.568 1473.39 541.137 1472.09 542.491C1470.78 543.83 1469.16 544.877 1467.24 545.631C1465.32 546.369 1463.15 546.739 1460.75 546.739ZM1498.12 546.739C1494.8 546.739 1491.94 545.954 1489.54 544.384C1487.14 542.815 1485.29 540.653 1484 537.898C1482.7 535.144 1482.06 531.997 1482.06 528.457C1482.06 524.857 1482.72 521.679 1484.04 518.924C1485.38 516.154 1487.24 513.992 1489.63 512.438C1492.03 510.869 1494.83 510.084 1498.03 510.084C1500.52 510.084 1502.77 510.545 1504.77 511.469C1506.77 512.392 1508.41 513.685 1509.69 515.347C1510.97 517.009 1511.76 518.947 1512.07 521.163H1506.62C1506.2 519.548 1505.28 518.116 1503.85 516.87C1502.43 515.608 1500.52 514.977 1498.12 514.977C1496 514.977 1494.14 515.531 1492.54 516.639C1490.95 517.732 1489.71 519.278 1488.82 521.279C1487.94 523.264 1487.51 525.595 1487.51 528.273C1487.51 531.012 1487.94 533.397 1488.8 535.428C1489.68 537.46 1490.91 539.037 1492.49 540.16C1494.09 541.283 1495.97 541.845 1498.12 541.845C1499.54 541.845 1500.82 541.599 1501.98 541.107C1503.13 540.614 1504.11 539.906 1504.91 538.983C1505.71 538.06 1506.28 536.952 1506.62 535.659H1512.07C1511.76 537.752 1511 539.637 1509.78 541.314C1508.58 542.976 1506.99 544.3 1505 545.284C1503.03 546.254 1500.74 546.739 1498.12 546.739ZM1534.43 546.739C1531.23 546.739 1528.42 545.977 1526.01 544.453C1523.61 542.93 1521.73 540.799 1520.38 538.06C1519.04 535.321 1518.37 532.12 1518.37 528.457C1518.37 524.764 1519.04 521.54 1520.38 518.786C1521.73 516.031 1523.61 513.892 1526.01 512.369C1528.42 510.846 1531.23 510.084 1534.43 510.084C1537.63 510.084 1540.43 510.846 1542.83 512.369C1545.25 513.892 1547.13 516.031 1548.47 518.786C1549.82 521.54 1550.5 524.764 1550.5 528.457C1550.5 532.12 1549.82 535.321 1548.47 538.06C1547.13 540.799 1545.25 542.93 1542.83 544.453C1540.43 545.977 1537.63 546.739 1534.43 546.739ZM1534.43 541.845C1536.86 541.845 1538.86 541.222 1540.43 539.975C1542 538.729 1543.17 537.09 1543.92 535.059C1544.67 533.028 1545.05 530.827 1545.05 528.457C1545.05 526.088 1544.67 523.879 1543.92 521.833C1543.17 519.786 1542 518.132 1540.43 516.87C1538.86 515.608 1536.86 514.977 1534.43 514.977C1532 514.977 1530 515.608 1528.43 516.87C1526.86 518.132 1525.7 519.786 1524.95 521.833C1524.19 523.879 1523.81 526.088 1523.81 528.457C1523.81 530.827 1524.19 533.028 1524.95 535.059C1525.7 537.09 1526.86 538.729 1528.43 539.975C1530 541.222 1532 541.845 1534.43 541.845ZM1583.93 518.486L1579.03 519.871C1578.73 519.055 1578.27 518.263 1577.67 517.493C1577.09 516.708 1576.29 516.062 1575.27 515.554C1574.26 515.047 1572.95 514.793 1571.37 514.793C1569.2 514.793 1567.39 515.293 1565.95 516.293C1564.51 517.278 1563.8 518.532 1563.8 520.055C1563.8 521.41 1564.29 522.479 1565.28 523.264C1566.26 524.049 1567.8 524.703 1569.89 525.226L1575.16 526.518C1578.33 527.288 1580.69 528.465 1582.24 530.05C1583.8 531.62 1584.57 533.643 1584.57 536.121C1584.57 538.152 1583.99 539.968 1582.82 541.568C1581.66 543.169 1580.05 544.43 1577.97 545.354C1575.89 546.277 1573.48 546.739 1570.72 546.739C1567.11 546.739 1564.11 545.954 1561.74 544.384C1559.37 542.815 1557.87 540.522 1557.24 537.506L1562.41 536.213C1562.91 538.121 1563.84 539.552 1565.21 540.506C1566.59 541.46 1568.4 541.938 1570.63 541.938C1573.17 541.938 1575.19 541.399 1576.68 540.322C1578.19 539.229 1578.94 537.921 1578.94 536.398C1578.94 535.167 1578.51 534.136 1577.65 533.305C1576.79 532.458 1575.46 531.827 1573.68 531.412L1567.77 530.027C1564.52 529.258 1562.14 528.065 1560.61 526.449C1559.11 524.818 1558.35 522.779 1558.35 520.332C1558.35 518.332 1558.91 516.562 1560.04 515.023C1561.18 513.485 1562.72 512.277 1564.68 511.4C1566.65 510.522 1568.88 510.084 1571.37 510.084C1574.88 510.084 1577.63 510.853 1579.63 512.392C1581.65 513.931 1583.08 515.962 1583.93 518.486ZM1596.28 559.295C1595.36 559.295 1594.53 559.219 1593.81 559.065C1593.09 558.926 1592.59 558.788 1592.31 558.649L1593.7 553.848C1595.02 554.187 1596.19 554.31 1597.2 554.217C1598.22 554.125 1599.12 553.671 1599.91 552.855C1600.71 552.055 1601.44 550.755 1602.1 548.955L1603.11 546.185L1590 510.545H1595.91L1605.7 538.798H1606.07L1615.86 510.545H1621.76L1606.71 551.17C1606.04 553.002 1605.2 554.517 1604.2 555.718C1603.2 556.933 1602.04 557.834 1600.71 558.418C1599.41 559.003 1597.93 559.295 1596.28 559.295ZM1654.07 518.486L1649.17 519.871C1648.87 519.055 1648.41 518.263 1647.81 517.493C1647.23 516.708 1646.43 516.062 1645.41 515.554C1644.4 515.047 1643.1 514.793 1641.51 514.793C1639.34 514.793 1637.53 515.293 1636.09 516.293C1634.66 517.278 1633.94 518.532 1633.94 520.055C1633.94 521.41 1634.43 522.479 1635.42 523.264C1636.4 524.049 1637.94 524.703 1640.03 525.226L1645.3 526.518C1648.47 527.288 1650.83 528.465 1652.38 530.05C1653.94 531.62 1654.71 533.643 1654.71 536.121C1654.71 538.152 1654.13 539.968 1652.96 541.568C1651.81 543.169 1650.19 544.43 1648.11 545.354C1646.04 546.277 1643.62 546.739 1640.87 546.739C1637.25 546.739 1634.26 545.954 1631.89 544.384C1629.52 542.815 1628.02 540.522 1627.38 537.506L1632.56 536.213C1633.05 538.121 1633.98 539.552 1635.35 540.506C1636.73 541.46 1638.54 541.938 1640.77 541.938C1643.31 541.938 1645.33 541.399 1646.82 540.322C1648.33 539.229 1649.08 537.921 1649.08 536.398C1649.08 535.167 1648.65 534.136 1647.79 533.305C1646.93 532.458 1645.6 531.827 1643.82 531.412L1637.91 530.027C1634.66 529.258 1632.28 528.065 1630.75 526.449C1629.25 524.818 1628.49 522.779 1628.49 520.332C1628.49 518.332 1629.05 516.562 1630.18 515.023C1631.32 513.485 1632.86 512.277 1634.82 511.4C1636.79 510.522 1639.02 510.084 1641.51 510.084C1645.02 510.084 1647.77 510.853 1649.77 512.392C1651.79 513.931 1653.22 515.962 1654.07 518.486ZM1678.33 510.545V515.162H1659.96V510.545H1678.33ZM1665.32 502.051H1670.76V535.844C1670.76 537.383 1670.99 538.537 1671.43 539.306C1671.89 540.06 1672.48 540.568 1673.19 540.83C1673.91 541.076 1674.67 541.199 1675.47 541.199C1676.07 541.199 1676.56 541.168 1676.95 541.107C1677.33 541.03 1677.64 540.968 1677.87 540.922L1678.98 545.815C1678.61 545.954 1678.1 546.092 1677.43 546.231C1676.77 546.385 1675.93 546.462 1674.92 546.462C1673.38 546.462 1671.87 546.131 1670.39 545.469C1668.93 544.807 1667.72 543.799 1666.75 542.445C1665.79 541.091 1665.32 539.383 1665.32 537.321V502.051ZM1701.01 546.739C1697.6 546.739 1694.65 545.985 1692.17 544.477C1689.71 542.953 1687.81 540.83 1686.47 538.106C1685.15 535.367 1684.48 532.181 1684.48 528.55C1684.48 524.918 1685.15 521.717 1686.47 518.947C1687.81 516.162 1689.67 513.992 1692.06 512.438C1694.46 510.869 1697.26 510.084 1700.46 510.084C1702.3 510.084 1704.13 510.392 1705.93 511.007C1707.73 511.623 1709.37 512.623 1710.85 514.008C1712.32 515.377 1713.5 517.193 1714.38 519.455C1715.25 521.717 1715.69 524.503 1715.69 527.811V530.119H1688.36V525.411H1710.15C1710.15 523.41 1709.75 521.625 1708.95 520.055C1708.17 518.486 1707.04 517.247 1705.58 516.339C1704.14 515.431 1702.43 514.977 1700.46 514.977C1698.29 514.977 1696.41 515.516 1694.83 516.593C1693.26 517.655 1692.05 519.04 1691.2 520.748C1690.36 522.456 1689.93 524.287 1689.93 526.241V529.381C1689.93 532.058 1690.39 534.328 1691.32 536.19C1692.26 538.037 1693.56 539.445 1695.22 540.414C1696.88 541.368 1698.81 541.845 1701.01 541.845C1702.44 541.845 1703.74 541.645 1704.89 541.245C1706.06 540.83 1707.07 540.214 1707.91 539.398C1708.76 538.567 1709.41 537.536 1709.88 536.305L1715.14 537.783C1714.58 539.568 1713.65 541.137 1712.35 542.491C1711.04 543.83 1709.42 544.877 1707.5 545.631C1705.57 546.369 1703.41 546.739 1701.01 546.739ZM1723.98 546V510.545H1729.24V516.085H1729.7C1730.44 514.192 1731.63 512.723 1733.28 511.676C1734.93 510.615 1736.91 510.084 1739.21 510.084C1741.55 510.084 1743.5 510.615 1745.05 511.676C1746.62 512.723 1747.85 514.192 1748.72 516.085H1749.09C1750 514.254 1751.36 512.8 1753.18 511.723C1754.99 510.63 1757.17 510.084 1759.71 510.084C1762.88 510.084 1765.47 511.076 1767.49 513.061C1769.51 515.031 1770.51 518.101 1770.51 522.271V546H1765.07V522.271C1765.07 519.655 1764.35 517.786 1762.92 516.662C1761.49 515.539 1759.8 514.977 1757.86 514.977C1755.37 514.977 1753.44 515.731 1752.07 517.239C1750.7 518.732 1750.02 520.625 1750.02 522.918V546H1744.48V521.717C1744.48 519.701 1743.82 518.078 1742.51 516.847C1741.21 515.6 1739.52 514.977 1737.46 514.977C1736.04 514.977 1734.72 515.354 1733.49 516.108C1732.27 516.862 1731.29 517.909 1730.53 519.248C1729.8 520.571 1729.43 522.102 1729.43 523.841V546H1723.98ZM1805.59 518.486L1800.69 519.871C1800.39 519.055 1799.93 518.263 1799.33 517.493C1798.75 516.708 1797.95 516.062 1796.93 515.554C1795.92 515.047 1794.61 514.793 1793.03 514.793C1790.86 514.793 1789.05 515.293 1787.61 516.293C1786.17 517.278 1785.46 518.532 1785.46 520.055C1785.46 521.41 1785.95 522.479 1786.94 523.264C1787.92 524.049 1789.46 524.703 1791.55 525.226L1796.82 526.518C1799.99 527.288 1802.35 528.465 1803.9 530.05C1805.46 531.62 1806.23 533.643 1806.23 536.121C1806.23 538.152 1805.65 539.968 1804.48 541.568C1803.32 543.169 1801.71 544.43 1799.63 545.354C1797.55 546.277 1795.14 546.739 1792.38 546.739C1788.77 546.739 1785.77 545.954 1783.4 544.384C1781.03 542.815 1779.53 540.522 1778.9 537.506L1784.07 536.213C1784.57 538.121 1785.5 539.552 1786.87 540.506C1788.25 541.46 1790.06 541.938 1792.29 541.938C1794.83 541.938 1796.85 541.399 1798.34 540.322C1799.85 539.229 1800.6 537.921 1800.6 536.398C1800.6 535.167 1800.17 534.136 1799.31 533.305C1798.45 532.458 1797.12 531.827 1795.34 531.412L1789.43 530.027C1786.18 529.258 1783.8 528.065 1782.27 526.449C1780.77 524.818 1780.01 522.779 1780.01 520.332C1780.01 518.332 1780.57 516.562 1781.7 515.023C1782.84 513.485 1784.38 512.277 1786.34 511.4C1788.31 510.522 1790.54 510.084 1793.03 510.084C1796.54 510.084 1799.29 510.853 1801.29 512.392C1803.31 513.931 1804.74 515.962 1805.59 518.486ZM1826.07 526.057C1826.07 531.874 1825.3 537.229 1823.78 542.122C1822.27 547 1820.11 551.494 1817.3 555.602H1812.49C1813.6 554.079 1814.63 552.201 1815.59 549.97C1816.56 547.754 1817.4 545.323 1818.13 542.676C1818.85 540.014 1819.41 537.267 1819.81 534.436C1820.23 531.589 1820.43 528.796 1820.43 526.057C1820.43 522.394 1820.08 518.678 1819.37 514.908C1818.66 511.138 1817.71 507.637 1816.51 504.406C1815.31 501.174 1813.97 498.543 1812.49 496.511H1817.3C1820.11 500.62 1822.27 505.121 1823.78 510.015C1825.3 514.893 1826.07 520.24 1826.07 526.057ZM114.75 616.321C112.888 616.321 111.188 615.867 109.649 614.959C108.11 614.036 106.879 612.805 105.956 611.266C105.048 609.727 104.594 608.027 104.594 606.165C104.594 604.287 105.048 602.587 105.956 601.064C106.879 599.525 108.11 598.301 109.649 597.393C111.188 596.47 112.888 596.009 114.75 596.009C116.627 596.009 118.328 596.47 119.851 597.393C121.39 598.301 122.613 599.525 123.521 601.064C124.445 602.587 124.906 604.287 124.906 606.165C124.906 608.027 124.445 609.727 123.521 611.266C122.613 612.805 121.39 614.036 119.851 614.959C118.328 615.867 116.627 616.321 114.75 616.321ZM195.077 589.545C194.8 587.206 193.676 585.391 191.707 584.098C189.737 582.805 187.321 582.159 184.459 582.159C182.366 582.159 180.535 582.498 178.965 583.175C177.411 583.852 176.195 584.783 175.318 585.968C174.456 587.153 174.026 588.499 174.026 590.007C174.026 591.269 174.326 592.354 174.926 593.262C175.541 594.154 176.326 594.901 177.28 595.501C178.234 596.085 179.234 596.57 180.281 596.955C181.327 597.324 182.289 597.624 183.166 597.855L187.967 599.148C189.198 599.471 190.568 599.917 192.076 600.487C193.599 601.056 195.054 601.833 196.439 602.818C197.839 603.787 198.993 605.034 199.901 606.557C200.809 608.081 201.263 609.95 201.263 612.166C201.263 614.721 200.593 617.029 199.255 619.091C197.931 621.153 195.992 622.792 193.438 624.007C190.899 625.223 187.813 625.831 184.182 625.831C180.796 625.831 177.865 625.285 175.387 624.192C172.925 623.1 170.986 621.576 169.571 619.622C168.17 617.667 167.378 615.398 167.193 612.812H173.102C173.256 614.598 173.856 616.075 174.903 617.244C175.964 618.398 177.303 619.26 178.919 619.83C180.55 620.384 182.304 620.661 184.182 620.661C186.367 620.661 188.329 620.307 190.068 619.599C191.807 618.875 193.184 617.875 194.2 616.598C195.215 615.305 195.723 613.797 195.723 612.074C195.723 610.504 195.284 609.227 194.407 608.242C193.53 607.257 192.376 606.457 190.945 605.842C189.514 605.226 187.967 604.687 186.305 604.226L180.489 602.564C176.795 601.502 173.872 599.986 171.717 598.017C169.563 596.047 168.486 593.469 168.486 590.284C168.486 587.637 169.201 585.329 170.632 583.359C172.079 581.374 174.018 579.835 176.449 578.743C178.896 577.635 181.627 577.081 184.643 577.081C187.69 577.081 190.399 577.627 192.768 578.72C195.138 579.797 197.016 581.274 198.401 583.152C199.801 585.029 200.54 587.16 200.616 589.545H195.077ZM227.848 610.227H234.126L239.389 617.152L240.774 618.999L248.622 629.432H242.344L237.173 622.507L235.881 620.753L227.848 610.227ZM250.561 601.364C250.561 606.349 249.661 610.658 247.86 614.29C246.06 617.921 243.59 620.722 240.451 622.692C237.312 624.661 233.726 625.646 229.695 625.646C225.663 625.646 222.077 624.661 218.938 622.692C215.799 620.722 213.329 617.921 211.529 614.29C209.728 610.658 208.828 606.349 208.828 601.364C208.828 596.378 209.728 592.069 211.529 588.438C213.329 584.806 215.799 582.005 218.938 580.036C222.077 578.066 225.663 577.081 229.695 577.081C233.726 577.081 237.312 578.066 240.451 580.036C243.59 582.005 246.06 584.806 247.86 588.438C249.661 592.069 250.561 596.378 250.561 601.364ZM245.021 601.364C245.021 597.27 244.336 593.816 242.967 591C241.613 588.184 239.774 586.052 237.45 584.606C235.142 583.159 232.557 582.436 229.695 582.436C226.832 582.436 224.239 583.159 221.916 584.606C219.608 586.052 217.769 588.184 216.399 591C215.045 593.816 214.368 597.27 214.368 601.364C214.368 605.457 215.045 608.912 216.399 611.728C217.769 614.544 219.608 616.675 221.916 618.121C224.239 619.568 226.832 620.291 229.695 620.291C232.557 620.291 235.142 619.568 237.45 618.121C239.774 616.675 241.613 614.544 242.967 611.728C244.336 608.912 245.021 605.457 245.021 601.364ZM260.186 625V577.727H265.911V619.922H287.885V625H260.186ZM296.01 625V589.545H301.458V625H296.01ZM298.78 583.636C297.718 583.636 296.803 583.275 296.033 582.551C295.279 581.828 294.902 580.959 294.902 579.943C294.902 578.928 295.279 578.058 296.033 577.335C296.803 576.612 297.718 576.25 298.78 576.25C299.842 576.25 300.75 576.612 301.504 577.335C302.273 578.058 302.658 578.928 302.658 579.943C302.658 580.959 302.273 581.828 301.504 582.551C300.75 583.275 299.842 583.636 298.78 583.636ZM326.854 589.545V594.162H308.48V589.545H326.854ZM313.836 581.051H319.283V614.844C319.283 616.383 319.506 617.537 319.952 618.306C320.414 619.06 320.999 619.568 321.707 619.83C322.43 620.076 323.192 620.199 323.992 620.199C324.592 620.199 325.084 620.168 325.469 620.107C325.854 620.03 326.162 619.968 326.392 619.922L327.5 624.815C327.131 624.954 326.616 625.092 325.954 625.231C325.292 625.385 324.453 625.462 323.438 625.462C321.899 625.462 320.391 625.131 318.914 624.469C317.452 623.807 316.236 622.799 315.267 621.445C314.313 620.091 313.836 618.383 313.836 616.321V581.051ZM349.532 625.739C346.116 625.739 343.169 624.985 340.692 623.477C338.23 621.953 336.329 619.83 334.991 617.106C333.667 614.367 333.006 611.181 333.006 607.55C333.006 603.918 333.667 600.717 334.991 597.947C336.329 595.162 338.191 592.992 340.577 591.438C342.977 589.869 345.778 589.084 348.979 589.084C350.825 589.084 352.649 589.392 354.449 590.007C356.249 590.623 357.888 591.623 359.366 593.008C360.843 594.377 362.02 596.193 362.897 598.455C363.774 600.717 364.213 603.503 364.213 606.811V609.119H336.883V604.411H358.673C358.673 602.41 358.273 600.625 357.473 599.055C356.688 597.486 355.565 596.247 354.103 595.339C352.656 594.431 350.948 593.977 348.979 593.977C346.809 593.977 344.931 594.516 343.346 595.593C341.777 596.655 340.569 598.04 339.722 599.748C338.876 601.456 338.453 603.287 338.453 605.241V608.381C338.453 611.058 338.915 613.328 339.838 615.19C340.777 617.037 342.077 618.445 343.739 619.414C345.401 620.368 347.332 620.845 349.532 620.845C350.964 620.845 352.256 620.645 353.41 620.245C354.58 619.83 355.588 619.214 356.434 618.398C357.28 617.567 357.934 616.536 358.396 615.305L363.659 616.783C363.105 618.568 362.174 620.137 360.866 621.491C359.558 622.83 357.942 623.877 356.019 624.631C354.095 625.369 351.933 625.739 349.532 625.739Z" fill="#2F2E33"/>
</svg>
