<svg width="475" height="475" viewBox="0 0 475 475" fill="none" xmlns="http://www.w3.org/2000/svg">
<path fill-rule="evenodd" clip-rule="evenodd" d="M237.5 2.24463e-05C106.298 2.24463e-05 0 109.001 0 243.529C0 351.137 68.0607 442.378 162.416 474.59C174.291 476.819 178.634 469.297 178.634 462.854C178.634 457.074 178.43 441.751 178.295 421.413C112.236 436.144 98.325 388.782 98.325 388.782C87.5018 360.644 71.9286 353.157 71.9286 353.157C50.3839 338.043 73.5571 338.356 73.5571 338.356C97.4089 340.098 109.963 363.43 109.963 363.43C131.134 400.692 165.537 389.897 179.075 383.698C181.212 367.957 187.354 357.231 194.139 351.137C141.414 345.008 85.975 324.113 85.975 230.783C85.975 204.212 95.2375 182.446 110.404 165.452C107.961 159.288 99.8178 134.528 112.779 101.026C112.779 101.026 132.661 94.4445 178.057 125.961C197.432 120.543 217.419 117.779 237.5 117.742C257.687 117.847 278.011 120.528 296.977 125.961C342.305 94.4445 362.221 100.992 362.221 100.992C375.182 134.528 367.039 159.288 364.596 165.417C379.796 182.481 389.025 204.212 389.025 230.783C389.025 324.322 333.45 344.938 280.555 350.928C289.071 358.45 296.671 373.32 296.671 396.061C296.671 428.587 296.366 454.845 296.366 462.854C296.366 469.367 300.675 476.924 312.72 474.555C359.961 458.387 401.052 427.378 430.175 385.916C459.299 344.455 474.98 294.642 475 243.529C474.964 178.91 449.923 116.952 405.384 71.2826C360.845 25.6131 300.456 -0.0276937 237.5 2.24463e-05Z" fill="#2D2568"/>
</svg>
