<svg width="475" height="475" viewBox="0 0 475 475" fill="none" xmlns="http://www.w3.org/2000/svg">
<path d="M42.9678 0.5H432.032C455.486 0.5 474.5 19.5138 474.5 42.9678V432.031C474.5 455.486 455.486 474.5 432.031 474.5H42.9678C19.5139 474.5 0.500055 455.486 0.5 432.031V42.9678C0.5 19.5138 19.5138 0.5 42.9678 0.5ZM81.2539 174.016C74.0716 174.016 68.249 179.837 68.249 187.02V410.146C68.2491 417.329 74.0717 423.15 81.2539 423.15H134.481C141.663 423.15 147.485 417.329 147.485 410.146V187.02C147.485 179.837 141.664 174.016 134.481 174.016H81.2539ZM334.215 170.271C313.503 170.271 298.243 174.063 286.51 180.339C275.314 186.327 267.365 194.561 260.963 203.852V186.013C260.963 179.387 255.591 174.016 248.966 174.016H193.725C187.099 174.016 181.728 179.387 181.728 186.013V411.153C181.728 417.779 187.099 423.15 193.725 423.15H248.966C255.592 423.15 260.963 417.779 260.963 411.153V290.464C261.679 282.379 263.816 269.386 270.121 258.426C276.416 247.484 286.852 238.578 304.237 238.578C315.478 238.578 323.579 241.845 329.429 246.949C335.287 252.061 338.93 259.054 341.177 266.574C345.678 281.637 344.539 298.639 344.539 306.494V411.153C344.539 417.779 349.911 423.15 356.536 423.15H413.653C420.278 423.15 425.649 417.778 425.649 411.153V303.164C425.649 279.712 425.788 246.509 414.441 219.171C408.763 205.488 400.199 193.253 387.289 184.442C374.378 175.631 357.159 170.272 334.215 170.271ZM107.867 51.8496C79.6643 51.8497 56.8008 74.7131 56.8008 102.916C56.8009 131.119 79.6644 153.982 107.867 153.982C136.071 153.982 158.933 131.119 158.934 102.916C158.934 74.7131 136.07 51.8496 107.867 51.8496Z" fill="#2D2568" stroke="#2D2568"/>
</svg>
