<svg width="475" height="475" viewBox="0 0 475 475" fill="none" xmlns="http://www.w3.org/2000/svg">
<rect width="475" height="475" rx="70" fill="#2D2568"/>
<path d="M376 32.5C392.845 32.5 406.5 46.1553 406.5 63V227.5C406.5 244.345 392.845 258 376 258H216.5C200.208 258 187 271.208 187 287.5V420C187 436.845 173.345 450.5 156.5 450.5H116C99.1553 450.5 85.5 436.845 85.5 420V63C85.5 46.1553 99.1553 32.5 116 32.5H376Z" fill="#F8F8FA" stroke="#F8F8FA"/>
<path d="M246.846 180.113C241.96 180.113 240.332 180.113 233.817 184.713C233.253 185.112 222.418 194.394 222.418 189.313C222.418 184.232 230.56 175.513 235.446 168.613C242.641 168.613 246.846 175.032 246.846 180.113Z" fill="#2D2568"/>
<ellipse cx="280.16" cy="138.417" rx="55.3691" ry="52.8996" fill="#2D2568"/>
<path d="M233.977 178.662L243.584 177.813L244.021 175.258L238.095 165.282L235.441 168.613L233.977 178.662Z" fill="#2D2568"/>
</svg>
