<svg width="475" height="475" viewBox="0 0 475 475" fill="none" xmlns="http://www.w3.org/2000/svg">
<rect width="475" height="475" rx="70" fill="#2D2568"/>
<path d="M376 34.5C392.845 34.5 406.5 48.1553 406.5 65V179.146C406.5 195.991 392.845 209.646 376 209.646H186.872C170.58 209.647 157.372 222.854 157.372 239.146V425C157.372 441.845 143.717 455.5 126.872 455.5H116C99.1553 455.5 85.5 441.845 85.5 425V65C85.5 48.1553 99.1553 34.5 116 34.5H376Z" fill="#F8F8FA" stroke="#F8F8FA"/>
<path d="M235.846 158.113C230.96 158.113 229.332 158.113 222.817 162.713C222.253 163.112 211.418 172.394 211.418 167.313C211.418 162.232 219.56 153.513 224.446 146.613C231.641 146.613 235.846 153.032 235.846 158.113Z" fill="#2D2568"/>
<ellipse cx="265.16" cy="114.417" rx="55.3691" ry="52.8996" fill="#2D2568"/>
<path d="M222.977 156.662L232.584 155.813L233.021 153.258L227.095 143.282L224.441 146.613L222.977 156.662Z" fill="#2D2568"/>
</svg>
