<svg width="475" height="475" viewBox="0 0 475 475" fill="none" xmlns="http://www.w3.org/2000/svg">
<rect width="475" height="475" rx="70" fill="#2D2568"/>
<path d="M376 34.5C392.845 34.5 406.5 48.1553 406.5 65V179.146C406.5 195.991 392.845 209.646 376 209.646H186.872C170.58 209.647 157.372 222.854 157.372 239.146V425C157.372 441.845 143.717 455.5 126.872 455.5H116C99.1553 455.5 85.5 441.845 85.5 425V65C85.5 48.1553 99.1553 34.5 116 34.5H376Z" fill="#2D2568" stroke="#F8F8FA"/>
<rect x="99.0312" y="68.8281" width="16.1074" height="351.215" fill="white"/>
<rect x="100.031" y="69.8281" width="14.1074" height="349.215" stroke="#F8F8FA" stroke-opacity="0.870588" stroke-width="2"/>
<rect x="100.031" y="45.4375" width="14.1074" height="29.7069" rx="2" stroke="#F8F8FA" stroke-opacity="0.870588" stroke-width="2"/>
<path d="M112.724 419.22H101.445L107.084 438.446L112.724 419.22Z" stroke="#F8F8FA" stroke-opacity="0.870588" stroke-width="2"/>
<rect x="127.225" y="68.8281" width="16.1074" height="351.215" fill="white"/>
<rect x="128.225" y="69.8281" width="14.1074" height="349.215" stroke="#F8F8FA" stroke-opacity="0.870588" stroke-width="2"/>
<rect x="128.225" y="45.4375" width="14.1074" height="29.7069" rx="2" stroke="#F8F8FA" stroke-opacity="0.870588" stroke-width="2"/>
<path d="M140.917 419.22H129.639L135.277 438.446L140.917 419.22Z" stroke="#F8F8FA" stroke-opacity="0.870588" stroke-width="2"/>
<rect x="368.482" y="44.4395" width="17.073" height="208.111" transform="rotate(90 368.482 44.4395)" fill="white"/>
<rect x="367.482" y="45.4395" width="15.073" height="206.111" transform="rotate(90 367.482 45.4395)" stroke="#F8F8FA" stroke-opacity="0.870588" stroke-width="2"/>
<rect x="381.934" y="45.4375" width="15.073" height="16.7878" rx="2" transform="rotate(90 381.934 45.4375)" stroke="#F8F8FA" stroke-opacity="0.870588" stroke-width="2"/>
<path d="M160.462 58.7148V47.2373L149.522 52.9756L160.462 58.7148Z" stroke="#F8F8FA" stroke-opacity="0.870588" stroke-width="2"/>
<rect x="368.482" y="76.1582" width="17.073" height="208.111" transform="rotate(90 368.482 76.1582)" fill="white"/>
<rect x="367.482" y="77.1582" width="15.073" height="206.111" transform="rotate(90 367.482 77.1582)" stroke="#F8F8FA" stroke-opacity="0.870588" stroke-width="2"/>
<rect x="381.934" y="77.1582" width="15.073" height="16.7878" rx="2" transform="rotate(90 381.934 77.1582)" stroke="#F8F8FA" stroke-opacity="0.870588" stroke-width="2"/>
<path d="M160.462 90.4336V78.9561L149.522 84.6943L160.462 90.4336Z" stroke="#F8F8FA" stroke-opacity="0.870588" stroke-width="2"/>
<rect x="368.482" y="107.85" width="17.073" height="208.111" transform="rotate(90 368.482 107.85)" fill="white"/>
<rect x="367.482" y="108.85" width="15.073" height="206.111" transform="rotate(90 367.482 108.85)" stroke="#F8F8FA" stroke-opacity="0.870588" stroke-width="2"/>
<rect x="381.934" y="108.85" width="15.073" height="16.7878" rx="2" transform="rotate(90 381.934 108.85)" stroke="#F8F8FA" stroke-opacity="0.870588" stroke-width="2"/>
<path d="M160.462 122.125V110.647L149.522 116.386L160.462 122.125Z" stroke="#F8F8FA" stroke-opacity="0.870588" stroke-width="2"/>
<rect x="368.482" y="139.561" width="17.073" height="208.111" transform="rotate(90 368.482 139.561)" fill="white"/>
<rect x="367.482" y="140.561" width="15.073" height="206.111" transform="rotate(90 367.482 140.561)" stroke="#F8F8FA" stroke-opacity="0.870588" stroke-width="2"/>
<rect x="381.934" y="140.561" width="15.073" height="16.7878" rx="2" transform="rotate(90 381.934 140.561)" stroke="#F8F8FA" stroke-opacity="0.870588" stroke-width="2"/>
<path d="M160.462 153.836V142.358L149.522 148.097L160.462 153.836Z" stroke="#F8F8FA" stroke-opacity="0.870588" stroke-width="2"/>
<rect x="368.482" y="171.271" width="17.073" height="208.111" transform="rotate(90 368.482 171.271)" fill="white"/>
<rect x="367.482" y="172.271" width="15.073" height="206.111" transform="rotate(90 367.482 172.271)" stroke="#F8F8FA" stroke-opacity="0.870588" stroke-width="2"/>
<rect x="381.934" y="172.27" width="15.073" height="16.7878" rx="2" transform="rotate(90 381.934 172.27)" stroke="#F8F8FA" stroke-opacity="0.870588" stroke-width="2"/>
<path d="M160.462 185.547V174.069L149.522 179.808L160.462 185.547Z" stroke="#F8F8FA" stroke-opacity="0.870588" stroke-width="2"/>
<path d="M235.846 158.113C230.96 158.113 229.332 158.113 222.817 162.713C222.253 163.112 211.418 172.394 211.418 167.313C211.418 162.232 219.56 153.513 224.446 146.613C231.641 146.613 235.846 153.032 235.846 158.113Z" fill="#F8F8FA"/>
<ellipse cx="265.16" cy="114.417" rx="55.3691" ry="52.8996" fill="#F8F8FA"/>
<path d="M222.977 156.662L232.584 155.813L233.021 153.258L227.095 143.282L224.441 146.613L222.977 156.662Z" fill="#F8F8FA"/>
</svg>
