<svg width="475" height="476" viewBox="0 0 475 476" fill="none" xmlns="http://www.w3.org/2000/svg">
<rect x="0.5" y="0.5" width="474" height="475" rx="49.5" fill="#887BFF" stroke="black"/>
<path d="M71.6777 425.485C71.1377 425.785 70.6577 425.935 70.2377 425.935C69.4577 425.935 68.8427 425.545 68.3927 424.765C68.1227 424.375 67.9877 423.97 67.9877 423.55C67.9877 422.77 68.4527 422.125 69.3827 421.615L85.8977 412.66L69.3827 403.705C68.4527 403.195 67.9877 402.55 67.9877 401.77C67.9877 401.35 68.1227 400.945 68.3927 400.555C68.8427 399.805 69.4577 399.43 70.2377 399.43C70.6877 399.43 71.1677 399.565 71.6777 399.835L90.8477 410.5C91.8377 411.04 92.3327 411.76 92.3327 412.66C92.3327 413.56 91.8377 414.28 90.8477 414.82L71.6777 425.485ZM99.9346 425.485C99.3946 425.785 98.9146 425.935 98.4946 425.935C97.7146 425.935 97.0996 425.545 96.6496 424.765C96.3796 424.375 96.2446 423.97 96.2446 423.55C96.2446 422.77 96.7096 422.125 97.6396 421.615L114.155 412.66L97.6396 403.705C96.7096 403.195 96.2446 402.55 96.2446 401.77C96.2446 401.35 96.3796 400.945 96.6496 400.555C97.0996 399.805 97.7146 399.43 98.4946 399.43C98.9446 399.43 99.4246 399.565 99.9346 399.835L119.105 410.5C120.095 411.04 120.59 411.76 120.59 412.66C120.59 413.56 120.095 414.28 119.105 414.82L99.9346 425.485ZM139.512 424.45C138.732 424.45 138.117 424.24 137.667 423.82C137.247 423.4 137.037 422.815 137.037 422.065V403.885C137.037 403.135 137.247 402.55 137.667 402.13C138.117 401.71 138.732 401.5 139.512 401.5C140.292 401.5 140.907 401.725 141.357 402.175C141.807 402.595 142.032 403.165 142.032 403.885V405.46C142.782 404.2 143.712 403.225 144.822 402.535C145.962 401.845 147.177 401.5 148.467 401.5C149.787 401.5 150.957 401.86 151.977 402.58C153.027 403.27 153.807 404.23 154.317 405.46C156.417 402.82 158.847 401.5 161.607 401.5C164.007 401.5 165.852 402.31 167.142 403.93C168.462 405.52 169.122 407.785 169.122 410.725V422.065C169.122 422.815 168.882 423.4 168.402 423.82C167.952 424.24 167.337 424.45 166.557 424.45C165.777 424.45 165.162 424.24 164.712 423.82C164.292 423.4 164.082 422.815 164.082 422.065V410.455C164.082 407.185 162.912 405.55 160.572 405.55C158.562 405.55 156.972 406.735 155.802 409.105V422.065C155.802 422.815 155.577 423.4 155.127 423.82C154.677 424.24 154.062 424.45 153.282 424.45C152.502 424.45 151.887 424.24 151.437 423.82C150.987 423.4 150.762 422.815 150.762 422.065V411.31C150.762 407.47 149.607 405.55 147.297 405.55C145.707 405.55 144.432 406.18 143.472 407.44C142.512 408.67 142.032 410.335 142.032 412.435V422.065C142.032 422.785 141.807 423.37 141.357 423.82C140.907 424.24 140.292 424.45 139.512 424.45ZM182.462 424.45C179.612 424.45 177.332 423.775 175.622 422.425C173.912 421.075 173.057 419.275 173.057 417.025C173.057 414.805 173.957 413.035 175.757 411.715C177.587 410.395 180.047 409.735 183.137 409.735C186.137 409.735 188.477 410.425 190.157 411.805V410.095C190.157 408.595 189.677 407.455 188.717 406.675C187.787 405.865 186.407 405.46 184.577 405.46C181.997 405.46 179.777 406.03 177.917 407.17C177.287 407.53 176.717 407.71 176.207 407.71C175.667 407.71 175.172 407.47 174.722 406.99C174.422 406.66 174.272 406.27 174.272 405.82C174.272 405.1 174.587 404.53 175.217 404.11C176.297 403.3 177.662 402.67 179.312 402.22C180.962 401.74 182.687 401.5 184.487 401.5C187.877 401.5 190.532 402.265 192.452 403.795C194.372 405.325 195.332 407.44 195.332 410.14V422.2C195.332 422.89 195.107 423.445 194.657 423.865C194.207 424.255 193.592 424.45 192.812 424.45C192.032 424.45 191.417 424.255 190.967 423.865C190.547 423.475 190.337 422.935 190.337 422.245V421.39C188.567 423.43 185.942 424.45 182.462 424.45ZM183.542 420.76C185.582 420.76 187.202 420.43 188.402 419.77C189.602 419.08 190.202 418.15 190.202 416.98C190.202 415.84 189.617 414.94 188.447 414.28C187.277 413.62 185.672 413.29 183.632 413.29C181.862 413.29 180.482 413.62 179.492 414.28C178.532 414.94 178.052 415.855 178.052 417.025C178.052 418.225 178.517 419.155 179.447 419.815C180.407 420.445 181.772 420.76 183.542 420.76ZM216.323 418.645C216.773 419.005 216.998 419.425 216.998 419.905C216.998 420.415 216.803 420.925 216.413 421.435C215.783 422.365 214.883 423.1 213.713 423.64C212.543 424.18 211.253 424.45 209.843 424.45C207.593 424.45 205.823 423.82 204.533 422.56C203.243 421.3 202.598 419.575 202.598 417.385V405.955H200.573C199.763 405.955 199.118 405.775 198.638 405.415C198.188 405.055 197.963 404.575 197.963 403.975C197.963 403.345 198.188 402.85 198.638 402.49C199.118 402.13 199.763 401.95 200.573 401.95H202.598V394.84C202.598 394.09 202.823 393.505 203.273 393.085C203.723 392.665 204.338 392.455 205.118 392.455C205.898 392.455 206.513 392.665 206.963 393.085C207.413 393.505 207.638 394.09 207.638 394.84V401.95H212.543C213.323 401.95 213.938 402.13 214.388 402.49C214.868 402.85 215.108 403.345 215.108 403.975C215.108 404.575 214.883 405.055 214.433 405.415C213.983 405.775 213.353 405.955 212.543 405.955H207.638V417.79C207.638 418.6 207.863 419.245 208.313 419.725C208.763 420.175 209.393 420.4 210.203 420.4C211.313 420.4 212.303 419.965 213.173 419.095C213.863 418.465 214.493 418.15 215.063 418.15C215.543 418.15 215.963 418.315 216.323 418.645ZM236.846 418.645C237.296 419.005 237.521 419.425 237.521 419.905C237.521 420.415 237.326 420.925 236.936 421.435C236.306 422.365 235.406 423.1 234.236 423.64C233.066 424.18 231.776 424.45 230.366 424.45C228.116 424.45 226.346 423.82 225.056 422.56C223.766 421.3 223.121 419.575 223.121 417.385V405.955H221.096C220.286 405.955 219.641 405.775 219.161 405.415C218.711 405.055 218.486 404.575 218.486 403.975C218.486 403.345 218.711 402.85 219.161 402.49C219.641 402.13 220.286 401.95 221.096 401.95H223.121V394.84C223.121 394.09 223.346 393.505 223.796 393.085C224.246 392.665 224.861 392.455 225.641 392.455C226.421 392.455 227.036 392.665 227.486 393.085C227.936 393.505 228.161 394.09 228.161 394.84V401.95H233.066C233.846 401.95 234.461 402.13 234.911 402.49C235.391 402.85 235.631 403.345 235.631 403.975C235.631 404.575 235.406 405.055 234.956 405.415C234.506 405.775 233.876 405.955 233.066 405.955H228.161V417.79C228.161 418.6 228.386 419.245 228.836 419.725C229.286 420.175 229.916 420.4 230.726 420.4C231.836 420.4 232.826 419.965 233.696 419.095C234.386 418.465 235.016 418.15 235.586 418.15C236.066 418.15 236.486 418.315 236.846 418.645ZM243.526 430.3C242.716 430.3 242.056 430.12 241.546 429.76C241.036 429.4 240.781 428.92 240.781 428.32C240.781 427.69 241.021 427.195 241.501 426.835C242.011 426.475 242.686 426.295 243.526 426.295H261.391C262.201 426.295 262.846 426.475 263.326 426.835C263.836 427.195 264.091 427.69 264.091 428.32C264.091 428.92 263.836 429.4 263.326 429.76C262.846 430.12 262.201 430.3 261.391 430.3H243.526ZM270.954 424.45C270.174 424.45 269.559 424.24 269.109 423.82C268.659 423.4 268.434 422.815 268.434 422.065V403.885C268.434 403.135 268.644 402.55 269.064 402.13C269.514 401.71 270.114 401.5 270.864 401.5C271.644 401.5 272.244 401.71 272.664 402.13C273.114 402.55 273.339 403.135 273.339 403.885V405.775C275.289 403.225 277.854 401.95 281.034 401.95H282.069C282.879 401.95 283.509 402.13 283.959 402.49C284.439 402.85 284.679 403.345 284.679 403.975C284.679 404.635 284.439 405.145 283.959 405.505C283.509 405.835 282.879 406 282.069 406H280.629C278.439 406 276.699 406.675 275.409 408.025C274.119 409.345 273.474 411.16 273.474 413.47V422.065C273.474 422.785 273.234 423.37 272.754 423.82C272.304 424.24 271.704 424.45 270.954 424.45ZM296.385 424.45C293.355 424.45 290.985 423.58 289.275 421.84C287.565 420.07 286.71 417.625 286.71 414.505V403.885C286.71 403.135 286.935 402.55 287.385 402.13C287.865 401.71 288.495 401.5 289.275 401.5C290.055 401.5 290.655 401.71 291.075 402.13C291.525 402.55 291.75 403.135 291.75 403.885V414.505C291.75 416.365 292.245 417.82 293.235 418.87C294.225 419.89 295.605 420.4 297.375 420.4C299.595 420.4 301.365 419.695 302.685 418.285C304.005 416.845 304.665 414.91 304.665 412.48V403.885C304.665 403.135 304.89 402.55 305.34 402.13C305.79 401.71 306.405 401.5 307.185 401.5C307.965 401.5 308.58 401.71 309.03 402.13C309.48 402.55 309.705 403.135 309.705 403.885V422.065C309.705 422.815 309.495 423.4 309.075 423.82C308.655 424.24 308.055 424.45 307.275 424.45C306.495 424.45 305.88 424.24 305.43 423.82C305.01 423.37 304.8 422.785 304.8 422.065V420.31C302.61 423.07 299.805 424.45 296.385 424.45ZM326.456 424.45C323.876 424.45 321.626 424 319.706 423.1C317.816 422.17 316.361 420.85 315.341 419.14C314.351 417.43 313.856 415.405 313.856 413.065C313.856 409.435 314.936 406.6 317.096 404.56C319.256 402.52 322.256 401.5 326.096 401.5C328.466 401.5 330.566 401.875 332.396 402.625C334.226 403.375 335.651 404.425 336.671 405.775C337.691 407.095 338.201 408.61 338.201 410.32C338.201 411.7 337.781 412.765 336.941 413.515C336.101 414.265 334.916 414.64 333.386 414.64H318.806C318.806 416.5 319.466 417.94 320.786 418.96C322.106 419.98 323.996 420.49 326.456 420.49C327.866 420.49 329.111 420.34 330.191 420.04C331.271 419.74 332.276 419.26 333.206 418.6C334.076 418.03 334.736 417.745 335.186 417.745C335.576 417.745 335.981 417.955 336.401 418.375C336.881 418.825 337.121 419.32 337.121 419.86C337.121 420.43 336.866 420.91 336.356 421.3C333.836 423.4 330.536 424.45 326.456 424.45ZM331.856 410.995C332.366 410.995 332.741 410.89 332.981 410.68C333.221 410.47 333.341 410.11 333.341 409.6C333.341 408.37 332.681 407.38 331.361 406.63C330.041 405.85 328.286 405.46 326.096 405.46C323.876 405.46 322.121 405.97 320.831 406.99C319.541 407.98 318.896 409.315 318.896 410.995H331.856ZM358.486 418.645C358.936 419.005 359.161 419.425 359.161 419.905C359.161 420.415 358.966 420.925 358.576 421.435C357.946 422.365 357.046 423.1 355.876 423.64C354.706 424.18 353.416 424.45 352.006 424.45C349.756 424.45 347.986 423.82 346.696 422.56C345.406 421.3 344.761 419.575 344.761 417.385V405.955H342.736C341.926 405.955 341.281 405.775 340.801 405.415C340.351 405.055 340.126 404.575 340.126 403.975C340.126 403.345 340.351 402.85 340.801 402.49C341.281 402.13 341.926 401.95 342.736 401.95H344.761V394.84C344.761 394.09 344.986 393.505 345.436 393.085C345.886 392.665 346.501 392.455 347.281 392.455C348.061 392.455 348.676 392.665 349.126 393.085C349.576 393.505 349.801 394.09 349.801 394.84V401.95H354.706C355.486 401.95 356.101 402.13 356.551 402.49C357.031 402.85 357.271 403.345 357.271 403.975C357.271 404.575 357.046 405.055 356.596 405.415C356.146 405.775 355.516 405.955 354.706 405.955H349.801V417.79C349.801 418.6 350.026 419.245 350.476 419.725C350.926 420.175 351.556 420.4 352.366 420.4C353.476 420.4 354.466 419.965 355.336 419.095C356.026 418.465 356.656 418.15 357.226 418.15C357.706 418.15 358.126 418.315 358.486 418.645ZM374.796 424.45C372.216 424.45 369.966 424 368.046 423.1C366.156 422.17 364.701 420.85 363.681 419.14C362.691 417.43 362.196 415.405 362.196 413.065C362.196 409.435 363.276 406.6 365.436 404.56C367.596 402.52 370.596 401.5 374.436 401.5C376.806 401.5 378.906 401.875 380.736 402.625C382.566 403.375 383.991 404.425 385.011 405.775C386.031 407.095 386.541 408.61 386.541 410.32C386.541 411.7 386.121 412.765 385.281 413.515C384.441 414.265 383.256 414.64 381.726 414.64H367.146C367.146 416.5 367.806 417.94 369.126 418.96C370.446 419.98 372.336 420.49 374.796 420.49C376.206 420.49 377.451 420.34 378.531 420.04C379.611 419.74 380.616 419.26 381.546 418.6C382.416 418.03 383.076 417.745 383.526 417.745C383.916 417.745 384.321 417.955 384.741 418.375C385.221 418.825 385.461 419.32 385.461 419.86C385.461 420.43 385.206 420.91 384.696 421.3C382.176 423.4 378.876 424.45 374.796 424.45ZM380.196 410.995C380.706 410.995 381.081 410.89 381.321 410.68C381.561 410.47 381.681 410.11 381.681 409.6C381.681 408.37 381.021 407.38 379.701 406.63C378.381 405.85 376.626 405.46 374.436 405.46C372.216 405.46 370.461 405.97 369.171 406.99C367.881 407.98 367.236 409.315 367.236 410.995H380.196ZM393.254 424.45C392.474 424.45 391.859 424.24 391.409 423.82C390.959 423.4 390.734 422.815 390.734 422.065V403.885C390.734 403.135 390.944 402.55 391.364 402.13C391.814 401.71 392.414 401.5 393.164 401.5C393.944 401.5 394.544 401.71 394.964 402.13C395.414 402.55 395.639 403.135 395.639 403.885V405.775C397.589 403.225 400.154 401.95 403.334 401.95H404.369C405.179 401.95 405.809 402.13 406.259 402.49C406.739 402.85 406.979 403.345 406.979 403.975C406.979 404.635 406.739 405.145 406.259 405.505C405.809 405.835 405.179 406 404.369 406H402.929C400.739 406 398.999 406.675 397.709 408.025C396.419 409.345 395.774 411.16 395.774 413.47V422.065C395.774 422.785 395.534 423.37 395.054 423.82C394.604 424.24 394.004 424.45 393.254 424.45Z" fill="black"/>
<mask id="path-3-outside-1_2074_54" maskUnits="userSpaceOnUse" x="61" y="151" width="352" height="188" fill="black">
<rect fill="white" x="61" y="151" width="352" height="188"/>
<path d="M71.3961 273.2C66.8627 270.667 64.5961 267.467 64.5961 263.6C64.5961 259.733 66.8627 256.533 71.3961 254L156.596 206.6C158.863 205.4 160.996 204.8 162.996 204.8C166.463 204.8 169.196 206.467 171.196 209.8C172.396 211.533 172.996 213.333 172.996 215.2C172.996 216.933 172.463 218.6 171.396 220.2C170.329 221.667 168.796 222.867 166.796 223.8L93.3961 263.6L166.796 303.4C170.929 305.667 172.996 308.533 172.996 312C172.996 313.867 172.396 315.667 171.196 317.4C168.929 320.867 166.129 322.6 162.796 322.6C161.063 322.6 158.996 321.933 156.596 320.6L71.3961 273.2ZM196.782 334.4C194.515 333.467 192.849 332.133 191.782 330.4C190.715 328.8 190.182 327 190.182 325C190.182 323.133 190.582 321.4 191.382 319.8L263.182 161C265.315 156.6 268.515 154.4 272.782 154.4C274.382 154.4 275.915 154.667 277.382 155.2C279.649 156 281.382 157.2 282.582 158.8C283.782 160.267 284.382 162 284.382 164C284.382 165.467 283.982 167 283.182 168.6L210.782 328C209.715 330.267 208.315 332 206.582 333.2C204.849 334.533 202.915 335.2 200.782 335.2C199.315 335.2 197.982 334.933 196.782 334.4ZM317.715 320.6C315.315 321.933 313.182 322.6 311.315 322.6C307.848 322.6 305.115 320.867 303.115 317.4C301.915 315.667 301.315 313.867 301.315 312C301.315 308.533 303.382 305.667 307.515 303.4L380.915 263.6L307.515 223.8C303.382 221.533 301.315 218.667 301.315 215.2C301.315 213.333 301.915 211.533 303.115 209.8C305.115 206.467 307.848 204.8 311.315 204.8C313.315 204.8 315.448 205.4 317.715 206.6L402.915 254C407.315 256.4 409.515 259.6 409.515 263.6C409.515 267.6 407.315 270.8 402.915 273.2L317.715 320.6Z"/>
</mask>
<path d="M71.3961 273.2C66.8627 270.667 64.5961 267.467 64.5961 263.6C64.5961 259.733 66.8627 256.533 71.3961 254L156.596 206.6C158.863 205.4 160.996 204.8 162.996 204.8C166.463 204.8 169.196 206.467 171.196 209.8C172.396 211.533 172.996 213.333 172.996 215.2C172.996 216.933 172.463 218.6 171.396 220.2C170.329 221.667 168.796 222.867 166.796 223.8L93.3961 263.6L166.796 303.4C170.929 305.667 172.996 308.533 172.996 312C172.996 313.867 172.396 315.667 171.196 317.4C168.929 320.867 166.129 322.6 162.796 322.6C161.063 322.6 158.996 321.933 156.596 320.6L71.3961 273.2ZM196.782 334.4C194.515 333.467 192.849 332.133 191.782 330.4C190.715 328.8 190.182 327 190.182 325C190.182 323.133 190.582 321.4 191.382 319.8L263.182 161C265.315 156.6 268.515 154.4 272.782 154.4C274.382 154.4 275.915 154.667 277.382 155.2C279.649 156 281.382 157.2 282.582 158.8C283.782 160.267 284.382 162 284.382 164C284.382 165.467 283.982 167 283.182 168.6L210.782 328C209.715 330.267 208.315 332 206.582 333.2C204.849 334.533 202.915 335.2 200.782 335.2C199.315 335.2 197.982 334.933 196.782 334.4ZM317.715 320.6C315.315 321.933 313.182 322.6 311.315 322.6C307.848 322.6 305.115 320.867 303.115 317.4C301.915 315.667 301.315 313.867 301.315 312C301.315 308.533 303.382 305.667 307.515 303.4L380.915 263.6L307.515 223.8C303.382 221.533 301.315 218.667 301.315 215.2C301.315 213.333 301.915 211.533 303.115 209.8C305.115 206.467 307.848 204.8 311.315 204.8C313.315 204.8 315.448 205.4 317.715 206.6L402.915 254C407.315 256.4 409.515 259.6 409.515 263.6C409.515 267.6 407.315 270.8 402.915 273.2L317.715 320.6Z" fill="white"/>
<path d="M71.3961 273.2L69.9326 275.819L69.9376 275.822L71.3961 273.2ZM71.3961 254L69.9376 251.378L69.9326 251.381L71.3961 254ZM156.596 206.6L155.192 203.949L155.165 203.963L155.138 203.978L156.596 206.6ZM171.196 209.8L168.624 211.343L168.674 211.427L168.73 211.508L171.196 209.8ZM171.396 220.2L173.822 221.965L173.858 221.915L173.892 221.864L171.396 220.2ZM166.796 223.8L165.527 221.081L165.446 221.12L165.366 221.163L166.796 223.8ZM93.3961 263.6L91.9661 260.963L87.1024 263.6L91.9661 266.237L93.3961 263.6ZM166.796 303.4L168.239 300.77L168.232 300.766L168.226 300.763L166.796 303.4ZM171.196 317.4L168.73 315.692L168.707 315.725L168.685 315.758L171.196 317.4ZM156.596 320.6L155.138 323.222L155.139 323.222L156.596 320.6ZM71.3961 273.2L72.8595 270.581C68.9031 268.37 67.5961 266.012 67.5961 263.6H64.5961H61.5961C61.5961 268.921 64.8224 272.963 69.9326 275.819L71.3961 273.2ZM64.5961 263.6H67.5961C67.5961 261.188 68.9031 258.83 72.8595 256.619L71.3961 254L69.9326 251.381C64.8224 254.237 61.5961 258.279 61.5961 263.6H64.5961ZM71.3961 254L72.8546 256.622L158.055 209.222L156.596 206.6L155.138 203.978L69.9376 251.378L71.3961 254ZM156.596 206.6L158 209.251C159.953 208.217 161.604 207.8 162.996 207.8V204.8V201.8C160.388 201.8 157.773 202.583 155.192 203.949L156.596 206.6ZM162.996 204.8V207.8C165.264 207.8 167.087 208.783 168.624 211.343L171.196 209.8L173.769 208.257C171.305 204.151 167.661 201.8 162.996 201.8V204.8ZM171.196 209.8L168.73 211.508C169.629 212.807 169.996 214.021 169.996 215.2H172.996H175.996C175.996 212.646 175.163 210.26 173.663 208.092L171.196 209.8ZM172.996 215.2H169.996C169.996 216.277 169.675 217.373 168.9 218.536L171.396 220.2L173.892 221.864C175.25 219.827 175.996 217.59 175.996 215.2H172.996ZM171.396 220.2L168.97 218.435C168.26 219.411 167.166 220.317 165.527 221.081L166.796 223.8L168.065 226.519C170.426 225.417 172.398 223.922 173.822 221.965L171.396 220.2ZM166.796 223.8L165.366 221.163L91.9661 260.963L93.3961 263.6L94.8261 266.237L168.226 226.437L166.796 223.8ZM93.3961 263.6L91.9661 266.237L165.366 306.037L166.796 303.4L168.226 300.763L94.8261 260.963L93.3961 263.6ZM166.796 303.4L165.354 306.03C168.921 307.987 169.996 310.015 169.996 312H172.996H175.996C175.996 307.052 172.938 303.347 168.239 300.77L166.796 303.4ZM172.996 312H169.996C169.996 313.179 169.629 314.393 168.73 315.692L171.196 317.4L173.663 319.108C175.163 316.94 175.996 314.554 175.996 312H172.996ZM171.196 317.4L168.685 315.758C166.819 318.612 164.866 319.6 162.796 319.6V322.6V325.6C167.393 325.6 171.039 323.122 173.707 319.042L171.196 317.4ZM162.796 322.6V319.6C161.787 319.6 160.242 319.194 158.053 317.978L156.596 320.6L155.139 323.222C157.75 324.673 160.339 325.6 162.796 325.6V322.6ZM156.596 320.6L158.055 317.978L72.8546 270.578L71.3961 273.2L69.9376 275.822L155.138 323.222L156.596 320.6ZM196.782 334.4L198 331.659L197.963 331.642L197.924 331.626L196.782 334.4ZM191.782 330.4L194.337 328.828L194.308 328.781L194.278 328.736L191.782 330.4ZM191.382 319.8L194.065 321.142L194.091 321.089L194.116 321.036L191.382 319.8ZM263.182 161L260.483 159.691L260.465 159.727L260.448 159.764L263.182 161ZM277.382 155.2L276.357 158.019L276.37 158.024L276.384 158.029L277.382 155.2ZM282.582 158.8L280.182 160.6L280.22 160.651L280.26 160.7L282.582 158.8ZM283.182 168.6L280.499 167.258L280.474 167.308L280.451 167.359L283.182 168.6ZM210.782 328L213.496 329.277L213.505 329.259L213.513 329.241L210.782 328ZM206.582 333.2L204.874 330.733L204.813 330.776L204.753 330.822L206.582 333.2ZM196.782 334.4L197.924 331.626C196.121 330.883 195.008 329.918 194.337 328.828L191.782 330.4L189.227 331.972C190.689 334.348 192.91 336.05 195.64 337.174L196.782 334.4ZM191.782 330.4L194.278 328.736C193.554 327.649 193.182 326.433 193.182 325H190.182H187.182C187.182 327.567 187.877 329.951 189.286 332.064L191.782 330.4ZM190.182 325H193.182C193.182 323.578 193.483 322.307 194.065 321.142L191.382 319.8L188.699 318.458C187.681 320.493 187.182 322.688 187.182 325H190.182ZM191.382 319.8L194.116 321.036L265.916 162.236L263.182 161L260.448 159.764L188.648 318.564L191.382 319.8ZM263.182 161L265.881 162.309C266.779 160.457 267.808 159.261 268.882 158.522C269.932 157.8 271.193 157.4 272.782 157.4V154.4V151.4C270.104 151.4 267.632 152.1 265.482 153.578C263.357 155.039 261.718 157.143 260.483 159.691L263.182 161ZM272.782 154.4V157.4C274.041 157.4 275.227 157.609 276.357 158.019L277.382 155.2L278.407 152.381C276.604 151.725 274.723 151.4 272.782 151.4V154.4ZM277.382 155.2L276.384 158.029C278.206 158.672 279.404 159.562 280.182 160.6L282.582 158.8L284.982 157C283.36 154.838 281.091 153.328 278.38 152.371L277.382 155.2ZM282.582 158.8L280.26 160.7C280.996 161.599 281.382 162.651 281.382 164H284.382H287.382C287.382 161.349 286.568 158.934 284.904 156.9L282.582 158.8ZM284.382 164H281.382C281.382 164.91 281.135 165.985 280.499 167.258L283.182 168.6L285.865 169.942C286.829 168.015 287.382 166.024 287.382 164H284.382ZM283.182 168.6L280.451 167.359L208.051 326.759L210.782 328L213.513 329.241L285.913 169.841L283.182 168.6ZM210.782 328L208.068 326.723C207.183 328.602 206.098 329.886 204.874 330.733L206.582 333.2L208.29 335.667C210.533 334.114 212.247 331.932 213.496 329.277L210.782 328ZM206.582 333.2L204.753 330.822C203.53 331.763 202.236 332.2 200.782 332.2V335.2V338.2C203.595 338.2 206.168 337.304 208.411 335.578L206.582 333.2ZM200.782 335.2V332.2C199.686 332.2 198.774 332.003 198 331.659L196.782 334.4L195.564 337.141C197.19 337.864 198.945 338.2 200.782 338.2V335.2ZM317.715 320.6L319.172 323.222L319.173 323.222L317.715 320.6ZM303.115 317.4L305.713 315.901L305.652 315.794L305.581 315.692L303.115 317.4ZM307.515 303.4L306.085 300.763L306.079 300.766L306.072 300.77L307.515 303.4ZM380.915 263.6L382.345 266.237L387.209 263.6L382.345 260.963L380.915 263.6ZM307.515 223.8L306.072 226.43L306.079 226.434L306.085 226.437L307.515 223.8ZM303.115 209.8L305.581 211.508L305.637 211.427L305.687 211.343L303.115 209.8ZM317.715 206.6L319.173 203.978L319.146 203.963L319.118 203.949L317.715 206.6ZM402.915 254L401.456 256.622L401.467 256.628L401.478 256.634L402.915 254ZM402.915 273.2L401.478 270.566L401.467 270.572L401.456 270.578L402.915 273.2ZM317.715 320.6L316.258 317.978C314.108 319.172 312.487 319.6 311.315 319.6V322.6V325.6C313.876 325.6 316.521 324.695 319.172 323.222L317.715 320.6ZM311.315 322.6V319.6C309.105 319.6 307.277 318.61 305.713 315.901L303.115 317.4L300.516 318.899C302.953 323.123 306.592 325.6 311.315 325.6V322.6ZM303.115 317.4L305.581 315.692C304.682 314.393 304.315 313.179 304.315 312H301.315H298.315C298.315 314.554 299.148 316.94 300.648 319.108L303.115 317.4ZM301.315 312H304.315C304.315 310.015 305.39 307.987 308.957 306.03L307.515 303.4L306.072 300.77C301.373 303.347 298.315 307.052 298.315 312H301.315ZM307.515 303.4L308.945 306.037L382.345 266.237L380.915 263.6L379.485 260.963L306.085 300.763L307.515 303.4ZM380.915 263.6L382.345 260.963L308.945 221.163L307.515 223.8L306.085 226.437L379.485 266.237L380.915 263.6ZM307.515 223.8L308.957 221.17C305.39 219.213 304.315 217.185 304.315 215.2H301.315H298.315C298.315 220.148 301.373 223.853 306.072 226.43L307.515 223.8ZM301.315 215.2H304.315C304.315 214.021 304.682 212.807 305.581 211.508L303.115 209.8L300.648 208.092C299.148 210.26 298.315 212.646 298.315 215.2H301.315ZM303.115 209.8L305.687 211.343C307.224 208.783 309.047 207.8 311.315 207.8V204.8V201.8C306.65 201.8 303.006 204.151 300.542 208.257L303.115 209.8ZM311.315 204.8V207.8C312.707 207.8 314.358 208.217 316.311 209.251L317.715 206.6L319.118 203.949C316.538 202.583 313.923 201.8 311.315 201.8V204.8ZM317.715 206.6L316.256 209.222L401.456 256.622L402.915 254L404.373 251.378L319.173 203.978L317.715 206.6ZM402.915 254L401.478 256.634C405.201 258.664 406.515 260.99 406.515 263.6H409.515H412.515C412.515 258.21 409.428 254.136 404.351 251.366L402.915 254ZM409.515 263.6H406.515C406.515 266.21 405.201 268.536 401.478 270.566L402.915 273.2L404.351 275.834C409.428 273.064 412.515 268.99 412.515 263.6H409.515ZM402.915 273.2L401.456 270.578L316.256 317.978L317.715 320.6L319.173 323.222L404.373 275.822L402.915 273.2Z" fill="black" mask="url(#path-3-outside-1_2074_54)"/>
<line y1="-0.5" x2="199.625" y2="-0.5" transform="matrix(0.413414 -0.910543 0.907405 0.420258 195.885 335.407)" stroke="black"/>
<line y1="-0.5" x2="199.625" y2="-0.5" transform="matrix(0.413414 -0.910543 0.907405 0.420258 198.868 336.411)" stroke="black"/>
<line y1="-0.5" x2="199.625" y2="-0.5" transform="matrix(0.413414 -0.910543 0.907405 0.420258 192.902 334.403)" stroke="black"/>
<line y1="-0.5" x2="20.0847" y2="-0.5" transform="matrix(0 1 1 0 71.5959 254.063)" stroke="black"/>
<line y1="-0.5" x2="24.1017" y2="-0.5" transform="matrix(0 1 1 0 74.5789 252.055)" stroke="black"/>
<line y1="-0.5" x2="28.1186" y2="-0.5" transform="matrix(0 1 1 0 77.5618 250.047)" stroke="black"/>
<line y1="-0.5" x2="30.1271" y2="-0.5" transform="matrix(0 1 1 0 80.5447 249.042)" stroke="black"/>
<line y1="-0.5" x2="33.1398" y2="-0.5" transform="matrix(0 1 1 0 83.5277 247.034)" stroke="black"/>
<line y1="-0.5" x2="36.1525" y2="-0.5" transform="matrix(0 1 1 0 86.5106 246.03)" stroke="black"/>
<line y1="-0.5" x2="40.1695" y2="-0.5" transform="matrix(0 1 1 0 89.4935 244.021)" stroke="black"/>
<line y1="-0.5" x2="44.1864" y2="-0.5" transform="matrix(0 1 1 0 92.4764 242.013)" stroke="black"/>
<line y1="-0.5" x2="19.0805" y2="-0.5" transform="matrix(0 1 1 0 68.613 254.063)" stroke="black"/>
<path d="M158.212 205.06L159.387 209.681C160.495 214.041 163.059 217.908 166.662 220.656L169.416 222.756" stroke="black"/>
<path d="M161.573 202.847L162.748 207.469C163.856 211.829 166.42 215.696 170.023 218.444L172.778 220.544" stroke="black"/>
<path d="M151.251 209.077L152.426 213.698C153.535 218.058 156.099 221.926 159.701 224.673L162.456 226.774" stroke="black"/>
<path d="M154.613 206.865L155.788 211.486C156.896 215.846 159.46 219.713 163.063 222.461L165.818 224.561" stroke="black"/>
<path d="M144.291 213.094L145.466 217.715C146.575 222.075 149.139 225.942 152.741 228.69L155.496 230.79" stroke="black"/>
<path d="M147.653 210.881L148.828 215.503C149.936 219.863 152.5 223.73 156.103 226.478L158.858 228.578" stroke="black"/>
<path d="M168.38 303.612L165.123 306.983C161.984 310.231 160.024 314.492 159.567 319.066L159.227 322.474" stroke="black"/>
<path d="M171.998 305.364L168.74 308.735C165.601 311.983 163.642 316.244 163.185 320.818L162.845 324.226" stroke="black"/>
<path d="M161.367 299.691L158.109 303.062C154.97 306.31 153.011 310.571 152.554 315.145L152.213 318.553" stroke="black"/>
<path d="M164.984 301.443L161.726 304.814C158.587 308.062 156.628 312.323 156.171 316.897L155.831 320.305" stroke="black"/>
<path d="M154.353 295.77L151.095 299.141C147.956 302.389 145.997 306.65 145.54 311.224L145.199 314.632" stroke="black"/>
<path d="M157.97 297.522L154.713 300.893C151.574 304.141 149.614 308.402 149.157 312.976L148.817 316.384" stroke="black"/>
<line x1="403.201" y1="254.063" x2="403.201" y2="274.148" stroke="black"/>
<line x1="400.218" y1="252.055" x2="400.218" y2="276.157" stroke="black"/>
<line x1="397.235" y1="250.047" x2="397.235" y2="278.165" stroke="black"/>
<line x1="394.252" y1="249.042" x2="394.252" y2="279.17" stroke="black"/>
<line x1="391.269" y1="247.034" x2="391.269" y2="280.174" stroke="black"/>
<line x1="388.286" y1="246.03" x2="388.286" y2="282.182" stroke="black"/>
<line x1="385.303" y1="244.021" x2="385.303" y2="284.191" stroke="black"/>
<line x1="382.321" y1="242.013" x2="382.321" y2="286.199" stroke="black"/>
<line x1="406.184" y1="254.063" x2="406.184" y2="273.144" stroke="black"/>
<path d="M304.43 222.014L307.888 218.859C311.225 215.815 313.446 211.683 314.187 207.145L314.738 203.769" stroke="black"/>
<path d="M300.929 220.036L304.386 216.881C307.723 213.837 309.945 209.705 310.686 205.167L311.237 201.791" stroke="black"/>
<path d="M311.187 226.372L314.644 223.217C317.981 220.173 320.202 216.041 320.943 211.503L321.494 208.127" stroke="black"/>
<path d="M307.685 224.394L311.143 221.239C314.48 218.195 316.701 214.063 317.442 209.525L317.993 206.149" stroke="black"/>
<path d="M317.943 230.729L321.4 227.575C324.737 224.53 326.959 220.399 327.7 215.86L328.251 212.485" stroke="black"/>
<path d="M314.441 228.751L317.899 225.597C321.236 222.552 323.457 218.421 324.198 213.882L324.749 210.507" stroke="black"/>
<path d="M315.102 322.195L314.226 317.506C313.4 313.083 311.09 309.055 307.671 306.078L305.057 303.801" stroke="black"/>
<path d="M311.605 324.182L310.73 319.493C309.904 315.07 307.594 311.042 304.175 308.065L301.561 305.788" stroke="black"/>
<path d="M322.305 318.642L321.43 313.954C320.604 309.531 318.293 305.503 314.875 302.525L312.261 300.248" stroke="black"/>
<path d="M318.809 320.63L317.933 315.941C317.107 311.518 314.797 307.49 311.378 304.512L308.764 302.236" stroke="black"/>
<path d="M329.509 315.09L328.633 310.402C327.807 305.979 325.497 301.951 322.078 298.973L319.464 296.696" stroke="black"/>
<path d="M326.012 317.077L325.137 312.389C324.311 307.966 322 303.938 318.582 300.96L315.968 298.683" stroke="black"/>
</svg>
